{"glyphs":{"0":{"ha":854,"x_min":65,"x_max":804,"o":"m 400 -12 q 153 72 242 -12 q 65 299 65 156 q 75 397 65 349 q 210 623 101 540 q 479 706 319 706 q 719 625 633 706 q 804 406 804 544 q 794 310 804 357 q 660 74 767 161 q 400 -12 554 -12 m 418 75 q 524 126 478 75 q 586 268 569 176 q 599 393 599 335 q 559 556 599 497 q 449 615 519 615 q 338 563 385 615 q 276 424 292 511 q 265 308 265 360 q 306 138 265 201 q 418 75 346 75 z "},"1":{"ha":575,"x_min":43,"x_max":546,"o":"m 43 -4 q 60 81 46 49 q 119 99 100 86 q 148 136 139 113 q 167 213 157 160 l 217 483 q 225 546 225 521 q 207 592 225 578 q 142 614 189 607 q 138 661 138 635 q 140 699 138 674 q 340 694 200 694 q 546 699 476 694 q 531 614 546 653 q 470 594 490 608 q 441 553 450 579 q 421 468 432 526 l 372 215 q 364 147 364 172 q 381 101 364 114 q 446 81 399 88 q 451 31 451 47 q 449 -4 451 21 q 247 0 381 0 q 43 -4 126 0 z "},"2":{"ha":703,"x_min":19,"x_max":643,"o":"m 406 703 q 143 638 254 703 q 114 453 139 536 q 229 433 153 433 q 274 575 246 533 q 351 617 303 617 q 413 594 390 617 q 436 531 436 572 q 432 497 436 517 q 385 402 422 447 q 278 303 349 357 q 132 190 175 225 q 21 93 89 156 q 19 72 19 86 q 38 -4 19 28 q 304 0 132 0 q 453 -3 375 0 q 501 -4 474 -4 q 553 6 535 -4 q 583 42 571 15 q 586 137 581 83 q 603 239 592 190 q 555 253 585 249 q 499 254 525 257 q 474 188 488 206 q 433 171 460 171 q 403 172 415 171 q 335 175 364 175 q 251 172 281 175 q 381 268 322 228 q 450 314 386 271 q 565 400 526 367 q 624 469 604 433 q 643 553 643 504 q 582 664 643 625 q 406 703 521 703 z "},"3":{"ha":692,"x_min":4,"x_max":632,"o":"m 132 638 q 123 542 131 592 q 101 453 115 493 q 218 433 150 431 q 265 575 235 533 q 343 617 296 617 q 406 592 382 617 q 429 522 429 567 q 425 488 429 507 q 353 365 411 414 q 192 289 294 317 q 189 264 189 272 q 207 204 189 226 q 339 169 293 207 q 385 64 385 132 q 379 18 385 51 q 306 -103 364 -60 q 160 -147 249 -147 q 43 -125 90 -147 q 18 -156 31 -132 q 4 -197 6 -179 q 168 -237 54 -237 q 435 -164 322 -237 q 581 36 549 -90 q 590 110 590 71 q 551 238 590 182 q 439 317 511 293 q 570 404 529 360 q 625 503 611 449 q 632 551 632 531 q 569 663 632 622 q 388 703 507 703 q 132 638 243 703 z "},"4":{"ha":794,"x_min":10,"x_max":704,"o":"m 704 131 q 663 0 679 82 l 556 0 l 515 -212 q 485 -211 504 -211 q 349 -237 414 -211 q 319 -192 319 -221 q 321 -175 319 -181 l 354 -1 q 38 -7 117 -4 q 13 100 10 36 q 563 703 329 433 q 683 685 635 703 l 586 165 l 650 165 q 704 131 688 165 m 449 458 q 182 164 339 314 l 386 164 l 406 271 q 449 458 424 379 z "},"5":{"ha":668,"x_min":-28,"x_max":639,"o":"m 72 313 q 97 244 72 271 q 286 187 219 235 q 353 61 353 139 q 349 21 353 42 q 273 -102 333 -57 q 124 -147 213 -147 q 10 -126 58 -147 q -28 -203 -19 -156 q 133 -237 29 -237 q 322 -203 235 -237 q 470 -104 410 -169 q 550 53 531 -39 q 557 119 557 82 q 462 313 557 236 q 192 410 367 389 l 224 517 q 544 521 307 521 q 606 554 592 521 q 639 760 615 678 q 564 772 608 772 q 532 771 542 772 q 444 694 517 694 q 192 699 283 694 l 72 313 z "},"6":{"ha":793,"x_min":72,"x_max":735,"o":"m 729 811 q 310 508 406 747 q 396 540 356 531 q 483 549 436 549 q 656 490 593 549 q 718 329 718 431 q 711 258 718 290 q 592 60 688 132 q 357 -12 497 -12 q 146 63 219 -12 q 72 276 72 138 q 85 399 72 335 q 200 649 113 542 q 422 817 288 756 q 725 886 557 878 q 735 849 735 872 q 729 811 735 829 m 392 451 q 285 429 333 451 l 281 406 q 267 267 267 332 q 294 128 267 178 q 372 79 322 79 q 458 120 422 79 q 508 232 494 161 q 515 297 515 271 q 482 410 515 368 q 392 451 449 451 z "},"7":{"ha":664,"x_min":100,"x_max":664,"o":"m 640 699 q 664 618 664 664 q 474 349 531 436 q 382 185 418 261 q 340 47 353 121 q 322 -149 326 -26 q 238 -185 282 -161 q 163 -236 193 -210 q 115 -147 115 -222 q 142 -15 115 -86 q 250 183 168 56 q 494 519 332 310 l 339 519 q 256 498 283 519 q 211 419 228 476 q 100 439 139 417 q 150 699 138 572 q 407 694 229 694 q 640 699 553 694 z "},"8":{"ha":764,"x_min":47,"x_max":732,"o":"m 728 682 q 668 576 715 621 q 543 496 621 531 q 682 258 682 388 q 672 188 682 222 q 339 -12 618 -12 q 126 36 204 -12 q 47 179 47 85 q 54 238 47 203 q 122 365 71 313 q 267 463 172 418 q 164 647 164 549 q 172 704 164 675 q 276 838 194 792 q 481 885 357 885 q 667 840 603 885 q 732 719 732 794 q 728 682 732 701 m 546 676 q 550 714 550 697 q 526 782 550 758 q 464 806 503 806 q 403 786 429 806 q 368 729 378 767 q 363 693 363 713 q 390 617 363 650 q 463 551 418 583 q 517 606 497 576 q 546 676 538 636 m 469 175 q 475 221 475 197 q 444 313 475 272 q 347 403 414 353 q 284 340 307 375 q 251 256 261 306 q 247 206 247 229 q 276 110 247 146 q 357 75 304 75 q 429 100 400 75 q 469 175 458 125 z "},"9":{"ha":789,"x_min":31,"x_max":728,"o":"m 451 703 q 655 628 582 703 q 728 418 728 554 q 715 300 728 365 q 592 31 685 147 q 358 -155 500 -86 q 40 -235 217 -224 q 31 -190 31 -221 q 33 -160 31 -182 q 316 -44 210 -126 q 475 161 422 39 q 315 124 406 124 q 144 185 204 124 q 83 353 83 247 q 93 438 83 385 q 211 632 118 561 q 451 703 304 703 m 521 313 q 533 438 533 383 q 505 567 533 524 q 428 611 476 611 q 342 569 376 611 q 293 457 307 528 q 286 382 286 413 q 317 265 286 308 q 413 221 347 221 q 504 243 460 221 q 521 313 514 275 z "},"\r":{"ha":264,"x_min":0,"x_max":0,"o":""}," ":{"ha":264,"x_min":0,"x_max":0,"o":""},"A":{"ha":971,"x_min":-44,"x_max":896,"o":"m 890 81 q 896 32 896 53 q 893 -4 896 21 q 704 0 843 0 q 500 -4 556 0 q 515 81 503 51 q 579 101 561 88 q 597 144 597 115 q 590 190 597 160 l 572 265 q 229 257 363 265 q 199 206 222 243 q 171 129 171 157 q 185 97 171 108 q 229 81 200 86 q 233 36 233 60 q 229 -4 233 17 q 79 0 174 0 q -44 -4 7 0 q -28 81 -42 46 q 36 119 8 90 q 113 228 64 147 q 528 939 231 421 q 610 947 556 947 q 806 229 722 585 q 831 137 819 167 q 856 96 843 107 q 890 81 869 85 m 553 343 q 497 550 517 486 q 468 699 479 611 q 408 578 453 663 l 393 549 q 279 343 347 461 l 553 343 z "},"Á":{"ha":971,"x_min":-44,"x_max":896,"o":"m 890 81 q 896 32 896 53 q 893 -4 896 21 q 704 0 843 0 q 500 -4 556 0 q 515 81 503 51 q 579 101 561 88 q 597 144 597 115 q 590 190 597 160 l 572 265 q 229 257 363 265 q 199 206 222 243 q 171 129 171 157 q 185 97 171 108 q 229 81 200 86 q 233 36 233 60 q 229 -4 233 17 q 79 0 174 0 q -44 -4 7 0 q -28 81 -42 46 q 36 119 8 90 q 113 228 64 147 q 528 939 231 421 q 610 947 556 947 q 806 229 722 585 q 831 137 819 167 q 856 96 843 107 q 890 81 869 85 m 553 343 q 497 550 517 486 q 468 699 479 611 q 408 578 453 663 l 393 549 q 279 343 347 461 l 553 343 m 582 1015 q 488 1050 529 1019 q 553 1140 522 1090 q 597 1222 583 1189 q 660 1225 618 1225 q 789 1204 743 1225 q 582 1015 663 1094 z "},"Ă":{"ha":971,"x_min":-44,"x_max":896,"o":"m 890 81 q 896 32 896 53 q 893 -4 896 21 q 704 0 843 0 q 500 -4 556 0 q 515 81 503 51 q 579 101 561 88 q 597 144 597 115 q 590 190 597 160 l 572 265 q 229 257 363 265 q 199 206 222 243 q 171 129 171 157 q 185 97 171 108 q 229 81 200 86 q 233 36 233 60 q 229 -4 233 17 q 79 0 174 0 q -44 -4 7 0 q -28 81 -42 46 q 36 119 8 90 q 113 228 64 147 q 528 939 231 421 q 610 947 556 947 q 806 229 722 585 q 831 137 819 167 q 856 96 843 107 q 890 81 869 85 m 553 343 q 497 550 517 486 q 468 699 479 611 q 408 578 453 663 l 393 549 q 279 343 347 461 l 553 343 m 567 1007 q 401 1047 457 1007 q 344 1163 344 1086 q 349 1207 344 1185 q 432 1221 388 1221 q 456 1219 447 1221 q 493 1149 454 1174 q 601 1124 532 1124 q 716 1149 671 1124 q 775 1219 761 1174 q 806 1222 797 1222 q 863 1211 840 1222 q 769 1059 844 1111 q 567 1007 693 1007 z "},"Ắ":{"ha":971,"x_min":-44,"x_max":896,"o":"m 890 81 q 896 32 896 53 q 893 -4 896 21 q 704 0 843 0 q 500 -4 556 0 q 515 81 503 51 q 579 101 561 88 q 597 144 597 115 q 590 190 597 160 l 572 265 q 229 257 363 265 q 199 206 222 243 q 171 129 171 157 q 185 97 171 108 q 229 81 200 86 q 233 36 233 60 q 229 -4 233 17 q 79 0 174 0 q -44 -4 7 0 q -28 81 -42 46 q 36 119 8 90 q 113 228 64 147 q 528 939 231 421 q 610 947 556 947 q 806 229 722 585 q 831 137 819 167 q 856 96 843 107 q 890 81 869 85 m 553 343 q 497 550 517 486 q 468 699 479 611 q 408 578 453 663 l 393 549 q 279 343 347 461 l 553 343 z "},"Ặ":{"ha":971,"x_min":-44,"x_max":896,"o":"m 890 81 q 896 32 896 53 q 893 -4 896 21 q 704 0 843 0 q 500 -4 556 0 q 515 81 503 51 q 579 101 561 88 q 597 144 597 115 q 590 190 597 160 l 572 265 q 229 257 363 265 q 199 206 222 243 q 171 129 171 157 q 185 97 171 108 q 229 81 200 86 q 233 36 233 60 q 229 -4 233 17 q 79 0 174 0 q -44 -4 7 0 q -28 81 -42 46 q 36 119 8 90 q 113 228 64 147 q 528 939 231 421 q 610 947 556 947 q 806 229 722 585 q 831 137 819 167 q 856 96 843 107 q 890 81 869 85 m 553 343 q 497 550 517 486 q 468 699 479 611 q 408 578 453 663 l 393 549 q 279 343 347 461 l 553 343 m 310 -321 q 235 -297 261 -321 q 210 -233 210 -274 q 246 -143 210 -176 q 338 -110 282 -110 q 411 -133 385 -110 q 438 -199 438 -157 q 402 -288 438 -256 q 310 -321 367 -321 m 567 1007 q 401 1047 457 1007 q 344 1163 344 1086 q 349 1207 344 1185 q 432 1221 388 1221 q 456 1219 447 1221 q 493 1149 454 1174 q 601 1124 532 1124 q 716 1149 671 1124 q 775 1219 761 1174 q 806 1222 797 1222 q 863 1211 840 1222 q 769 1059 844 1111 q 567 1007 693 1007 z "},"Ằ":{"ha":971,"x_min":-44,"x_max":896,"o":"m 890 81 q 896 32 896 53 q 893 -4 896 21 q 704 0 843 0 q 500 -4 556 0 q 515 81 503 51 q 579 101 561 88 q 597 144 597 115 q 590 190 597 160 l 572 265 q 229 257 363 265 q 199 206 222 243 q 171 129 171 157 q 185 97 171 108 q 229 81 200 86 q 233 36 233 60 q 229 -4 233 17 q 79 0 174 0 q -44 -4 7 0 q -28 81 -42 46 q 36 119 8 90 q 113 228 64 147 q 528 939 231 421 q 610 947 556 947 q 806 229 722 585 q 831 137 819 167 q 856 96 843 107 q 890 81 869 85 m 553 343 q 497 550 517 486 q 468 699 479 611 q 408 578 453 663 l 393 549 q 279 343 347 461 l 553 343 z "},"Ẳ":{"ha":971,"x_min":-44,"x_max":896,"o":"m 890 81 q 896 32 896 53 q 893 -4 896 21 q 704 0 843 0 q 500 -4 556 0 q 515 81 503 51 q 579 101 561 88 q 597 144 597 115 q 590 190 597 160 l 572 265 q 229 257 363 265 q 199 206 222 243 q 171 129 171 157 q 185 97 171 108 q 229 81 200 86 q 233 36 233 60 q 229 -4 233 17 q 79 0 174 0 q -44 -4 7 0 q -28 81 -42 46 q 36 119 8 90 q 113 228 64 147 q 528 939 231 421 q 610 947 556 947 q 806 229 722 585 q 831 137 819 167 q 856 96 843 107 q 890 81 869 85 m 553 343 q 497 550 517 486 q 468 699 479 611 q 408 578 453 663 l 393 549 q 279 343 347 461 l 553 343 z "},"Ẵ":{"ha":971,"x_min":-44,"x_max":908,"o":"m 890 81 q 896 32 896 53 q 893 -4 896 21 q 704 0 843 0 q 500 -4 556 0 q 515 81 503 51 q 579 101 561 88 q 597 144 597 115 q 590 190 597 160 l 572 265 q 229 257 363 265 q 199 206 222 243 q 171 129 171 157 q 185 97 171 108 q 229 81 200 86 q 233 36 233 60 q 229 -4 233 17 q 79 0 174 0 q -44 -4 7 0 q -28 81 -42 46 q 36 119 8 90 q 113 228 64 147 q 528 939 231 421 q 610 947 556 947 q 806 229 722 585 q 831 137 819 167 q 856 96 843 107 q 890 81 869 85 m 553 343 q 497 550 517 486 q 468 699 479 611 q 408 578 453 663 l 393 549 q 279 343 347 461 l 553 343 m 567 1007 q 401 1047 457 1007 q 344 1163 344 1086 q 349 1207 344 1185 q 432 1221 388 1221 q 456 1219 447 1221 q 493 1149 454 1174 q 601 1124 532 1124 q 716 1149 671 1124 q 775 1219 761 1174 q 806 1222 797 1222 q 863 1211 840 1222 q 769 1059 844 1111 q 567 1007 693 1007 m 706 1261 q 651 1269 674 1261 q 601 1294 629 1278 q 563 1315 579 1308 q 525 1321 546 1321 q 408 1264 474 1321 q 385 1335 385 1299 q 386 1356 385 1349 q 481 1419 431 1400 q 575 1438 531 1438 q 630 1430 607 1438 q 685 1406 653 1422 q 723 1388 707 1394 q 757 1382 739 1382 q 850 1433 801 1382 q 908 1381 893 1413 q 813 1291 864 1321 q 706 1261 761 1261 z "},"Ǎ":{"ha":971,"x_min":-44,"x_max":896,"o":"m 890 81 q 896 32 896 53 q 893 -4 896 21 q 704 0 843 0 q 500 -4 556 0 q 515 81 503 51 q 579 101 561 88 q 597 144 597 115 q 590 190 597 160 l 572 265 q 229 257 363 265 q 199 206 222 243 q 171 129 171 157 q 185 97 171 108 q 229 81 200 86 q 233 36 233 60 q 229 -4 233 17 q 79 0 174 0 q -44 -4 7 0 q -28 81 -42 46 q 36 119 8 90 q 113 228 64 147 q 528 939 231 421 q 610 947 556 947 q 806 229 722 585 q 831 137 819 167 q 856 96 843 107 q 890 81 869 85 m 553 343 q 497 550 517 486 q 468 699 479 611 q 408 578 453 663 l 393 549 q 279 343 347 461 l 553 343 m 536 1013 q 356 1175 458 1099 q 428 1236 374 1231 q 606 1151 507 1188 q 796 1236 696 1176 q 830 1213 814 1231 q 856 1175 846 1196 q 622 1025 711 1090 q 558 1011 594 1011 q 536 1013 543 1011 z "},"Â":{"ha":971,"x_min":-44,"x_max":896,"o":"m 890 81 q 896 32 896 53 q 893 -4 896 21 q 704 0 843 0 q 500 -4 556 0 q 515 81 503 51 q 579 101 561 88 q 597 144 597 115 q 590 190 597 160 l 572 265 q 229 257 363 265 q 199 206 222 243 q 171 129 171 157 q 185 97 171 108 q 229 81 200 86 q 233 36 233 60 q 229 -4 233 17 q 79 0 174 0 q -44 -4 7 0 q -28 81 -42 46 q 36 119 8 90 q 113 228 64 147 q 528 939 231 421 q 610 947 556 947 q 806 229 722 585 q 831 137 819 167 q 856 96 843 107 q 890 81 869 85 m 553 343 q 497 550 517 486 q 468 699 479 611 q 408 578 453 663 l 393 549 q 279 343 347 461 l 553 343 m 410 1006 q 375 1038 389 1015 q 358 1081 361 1061 q 592 1231 457 1128 q 618 1232 600 1232 q 679 1222 654 1232 q 853 1050 724 1174 q 819 1027 842 1036 q 771 1015 797 1018 q 601 1100 678 1074 q 449 1026 546 1078 q 410 1006 426 1013 z "},"Ấ":{"ha":971,"x_min":-44,"x_max":1031,"o":"m 890 81 q 896 32 896 53 q 893 -4 896 21 q 704 0 843 0 q 500 -4 556 0 q 515 81 503 51 q 579 101 561 88 q 597 144 597 115 q 590 190 597 160 l 572 265 q 229 257 363 265 q 199 206 222 243 q 171 129 171 157 q 185 97 171 108 q 229 81 200 86 q 233 36 233 60 q 229 -4 233 17 q 79 0 174 0 q -44 -4 7 0 q -28 81 -42 46 q 36 119 8 90 q 113 228 64 147 q 528 939 231 421 q 610 947 556 947 q 806 229 722 585 q 831 137 819 167 q 856 96 843 107 q 890 81 869 85 m 553 343 q 497 550 517 486 q 468 699 479 611 q 408 578 453 663 l 393 549 q 279 343 347 461 l 553 343 m 843 1190 q 758 1222 800 1194 q 817 1302 789 1258 q 858 1376 844 1346 q 915 1381 888 1381 q 1031 1361 988 1381 q 843 1190 932 1274 m 410 1006 q 374 1038 389 1015 q 358 1081 360 1061 q 592 1231 457 1128 q 618 1232 600 1232 q 679 1222 651 1232 q 853 1050 729 1167 q 769 1015 826 1019 q 600 1100 676 1074 q 451 1028 558 1083 l 410 1006 z "},"Ậ":{"ha":971,"x_min":-44,"x_max":896,"o":"m 890 81 q 896 32 896 53 q 893 -4 896 21 q 704 0 843 0 q 500 -4 556 0 q 515 81 503 51 q 579 101 561 88 q 597 144 597 115 q 590 190 597 160 l 572 265 q 229 257 363 265 q 199 206 222 243 q 171 129 171 157 q 185 97 171 108 q 229 81 200 86 q 233 36 233 60 q 229 -4 233 17 q 79 0 174 0 q -44 -4 7 0 q -28 81 -42 46 q 36 119 8 90 q 113 228 64 147 q 528 939 231 421 q 610 947 556 947 q 806 229 722 585 q 831 137 819 167 q 856 96 843 107 q 890 81 869 85 m 553 343 q 497 550 517 486 q 468 699 479 611 q 408 578 453 663 l 393 549 q 279 343 347 461 l 553 343 m 310 -321 q 235 -297 261 -321 q 210 -233 210 -274 q 246 -143 210 -176 q 338 -110 282 -110 q 411 -133 385 -110 q 438 -199 438 -157 q 402 -288 438 -256 q 310 -321 367 -321 m 410 1006 q 375 1038 389 1015 q 358 1081 361 1061 q 592 1231 457 1128 q 618 1232 600 1232 q 679 1222 654 1232 q 853 1050 724 1174 q 819 1027 842 1036 q 771 1015 797 1018 q 601 1100 678 1074 q 449 1026 546 1078 q 410 1006 426 1013 z "},"Ầ":{"ha":971,"x_min":-44,"x_max":900,"o":"m 890 81 q 896 32 896 53 q 893 -4 896 21 q 704 0 843 0 q 500 -4 556 0 q 515 81 503 51 q 579 101 561 88 q 597 144 597 115 q 590 190 597 160 l 572 265 q 229 257 363 265 q 199 206 222 243 q 171 129 171 157 q 185 97 171 108 q 229 81 200 86 q 233 36 233 60 q 229 -4 233 17 q 79 0 174 0 q -44 -4 7 0 q -28 81 -42 46 q 36 119 8 90 q 113 228 64 147 q 528 939 231 421 q 610 947 556 947 q 806 229 722 585 q 831 137 819 167 q 856 96 843 107 q 890 81 869 85 m 553 343 q 497 550 517 486 q 468 699 479 611 q 408 578 453 663 l 393 549 q 279 343 347 461 l 553 343 z "},"Ẩ":{"ha":971,"x_min":-44,"x_max":990,"o":"m 890 81 q 896 32 896 53 q 893 -4 896 21 q 704 0 843 0 q 500 -4 556 0 q 515 81 503 51 q 579 101 561 88 q 597 144 597 115 q 590 190 597 160 l 572 265 q 229 257 363 265 q 199 206 222 243 q 171 129 171 157 q 185 97 171 108 q 229 81 200 86 q 233 36 233 60 q 229 -4 233 17 q 79 0 174 0 q -44 -4 7 0 q -28 81 -42 46 q 36 119 8 90 q 113 228 64 147 q 528 939 231 421 q 610 947 556 947 q 806 229 722 585 q 831 137 819 167 q 856 96 843 107 q 890 81 869 85 m 553 343 q 497 550 517 486 q 468 699 479 611 q 408 578 453 663 l 393 549 q 279 343 347 461 l 553 343 z "},"Ẫ":{"ha":971,"x_min":-44,"x_max":924,"o":"m 890 81 q 896 32 896 53 q 893 -4 896 21 q 704 0 843 0 q 500 -4 556 0 q 515 81 503 51 q 579 101 561 88 q 597 144 597 115 q 590 190 597 160 l 572 265 q 229 257 363 265 q 199 206 222 243 q 171 129 171 157 q 185 97 171 108 q 229 81 200 86 q 233 36 233 60 q 229 -4 233 17 q 79 0 174 0 q -44 -4 7 0 q -28 81 -42 46 q 36 119 8 90 q 113 228 64 147 q 528 939 231 421 q 610 947 556 947 q 806 229 722 585 q 831 137 819 167 q 856 96 843 107 q 890 81 869 85 m 553 343 q 497 550 517 486 q 468 699 479 611 q 408 578 453 663 l 393 549 q 279 343 347 461 l 553 343 m 410 1006 q 375 1038 389 1015 q 358 1081 361 1061 q 592 1231 457 1128 q 618 1232 600 1232 q 679 1222 654 1232 q 853 1050 724 1174 q 819 1027 842 1036 q 771 1015 797 1018 q 601 1100 678 1074 q 449 1026 546 1078 q 410 1006 426 1013 m 721 1294 q 667 1303 689 1294 q 617 1328 644 1311 q 578 1348 594 1342 q 540 1354 561 1354 q 424 1297 489 1354 q 400 1368 400 1332 q 401 1389 400 1382 q 496 1452 446 1433 q 590 1471 546 1471 q 645 1463 622 1471 q 700 1439 668 1456 q 738 1422 722 1428 q 772 1415 754 1415 q 865 1467 817 1415 q 924 1414 908 1446 q 828 1324 879 1354 q 721 1294 776 1294 z "},"Ȁ":{"ha":971,"x_min":-44,"x_max":896,"o":"m 890 81 q 896 32 896 53 q 893 -4 896 21 q 704 0 843 0 q 500 -4 556 0 q 515 81 503 51 q 579 101 561 88 q 597 144 597 115 q 590 190 597 160 l 572 265 q 229 257 363 265 q 199 206 222 243 q 171 129 171 157 q 185 97 171 108 q 229 81 200 86 q 233 36 233 60 q 229 -4 233 17 q 79 0 174 0 q -44 -4 7 0 q -28 81 -42 46 q 36 119 8 90 q 113 228 64 147 q 528 939 231 421 q 610 947 556 947 q 806 229 722 585 q 831 137 819 167 q 856 96 843 107 q 890 81 869 85 m 553 343 q 497 550 517 486 q 468 699 479 611 q 408 578 453 663 l 393 549 q 279 343 347 461 l 553 343 m 701 1006 q 583 1182 631 1119 q 674 1194 621 1194 q 739 1189 697 1194 q 799 1004 771 1067 q 754 1001 771 1001 q 701 1006 731 1001 m 457 1006 q 331 1179 385 1114 q 432 1193 371 1193 q 494 1189 465 1193 q 554 1004 526 1067 q 510 1001 524 1001 q 457 1006 486 1001 z "},"Ä":{"ha":971,"x_min":-44,"x_max":896,"o":"m 890 81 q 896 32 896 53 q 893 -4 896 21 q 704 0 843 0 q 500 -4 556 0 q 515 81 503 51 q 579 101 561 88 q 597 144 597 115 q 590 190 597 160 l 572 265 q 229 257 363 265 q 199 206 222 243 q 171 129 171 157 q 185 97 171 108 q 229 81 200 86 q 233 36 233 60 q 229 -4 233 17 q 79 0 174 0 q -44 -4 7 0 q -28 81 -42 46 q 36 119 8 90 q 113 228 64 147 q 528 939 231 421 q 610 947 556 947 q 806 229 722 585 q 831 137 819 167 q 856 96 843 107 q 890 81 869 85 m 553 343 q 497 550 517 486 q 468 699 479 611 q 408 578 453 663 l 393 549 q 279 343 347 461 l 553 343 m 449 1007 q 378 1033 404 1007 q 353 1103 353 1060 q 451 1203 353 1203 q 522 1179 496 1203 q 549 1114 549 1156 q 547 1092 549 1100 q 449 1007 532 1007 m 750 1007 q 678 1033 704 1007 q 653 1103 653 1058 q 679 1177 653 1151 q 757 1203 706 1203 q 827 1178 801 1203 q 853 1111 853 1154 q 826 1034 853 1061 q 750 1007 799 1007 z "},"Ạ":{"ha":971,"x_min":-44,"x_max":896,"o":"m 890 81 q 896 32 896 53 q 893 -4 896 21 q 704 0 843 0 q 500 -4 556 0 q 515 81 503 51 q 579 101 561 88 q 597 144 597 115 q 590 190 597 160 l 572 265 q 229 257 363 265 q 199 206 222 243 q 171 129 171 157 q 185 97 171 108 q 229 81 200 86 q 233 36 233 60 q 229 -4 233 17 q 79 0 174 0 q -44 -4 7 0 q -28 81 -42 46 q 36 119 8 90 q 113 228 64 147 q 528 939 231 421 q 610 947 556 947 q 806 229 722 585 q 831 137 819 167 q 856 96 843 107 q 890 81 869 85 m 553 343 q 497 550 517 486 q 468 699 479 611 q 408 578 453 663 l 393 549 q 279 343 347 461 l 553 343 m 310 -321 q 235 -297 261 -321 q 210 -233 210 -274 q 246 -143 210 -176 q 338 -110 282 -110 q 411 -133 385 -110 q 438 -199 438 -157 q 402 -288 438 -256 q 310 -321 367 -321 z "},"À":{"ha":971,"x_min":-44,"x_max":896,"o":"m 890 81 q 896 32 896 53 q 893 -4 896 21 q 704 0 843 0 q 500 -4 556 0 q 515 81 503 51 q 579 101 561 88 q 597 144 597 115 q 590 190 597 160 l 572 265 q 229 257 363 265 q 199 206 222 243 q 171 129 171 157 q 185 97 171 108 q 229 81 200 86 q 233 36 233 60 q 229 -4 233 17 q 79 0 174 0 q -44 -4 7 0 q -28 81 -42 46 q 36 119 8 90 q 113 228 64 147 q 528 939 231 421 q 610 947 556 947 q 806 229 722 585 q 831 137 819 167 q 856 96 843 107 q 890 81 869 85 m 553 343 q 497 550 517 486 q 468 699 479 611 q 408 578 453 663 l 393 549 q 279 343 347 461 l 553 343 m 658 1028 q 604 1021 635 1021 q 544 1029 569 1021 q 486 1111 525 1064 q 410 1197 447 1158 q 525 1213 464 1213 q 589 1207 561 1213 q 658 1028 619 1099 z "},"Ả":{"ha":971,"x_min":-44,"x_max":896,"o":"m 890 81 q 896 32 896 53 q 893 -4 896 21 q 704 0 843 0 q 500 -4 556 0 q 515 81 503 51 q 579 101 561 88 q 597 144 597 115 q 590 190 597 160 l 572 265 q 229 257 363 265 q 199 206 222 243 q 171 129 171 157 q 185 97 171 108 q 229 81 200 86 q 233 36 233 60 q 229 -4 233 17 q 79 0 174 0 q -44 -4 7 0 q -28 81 -42 46 q 36 119 8 90 q 113 228 64 147 q 528 939 231 421 q 610 947 556 947 q 806 229 722 585 q 831 137 819 167 q 856 96 843 107 q 890 81 869 85 m 553 343 q 497 550 517 486 q 468 699 479 611 q 408 578 453 663 l 393 549 q 279 343 347 461 l 553 343 m 542 1011 q 536 1042 536 1022 q 551 1085 536 1071 q 594 1115 565 1099 q 626 1135 615 1128 q 640 1154 636 1142 q 643 1167 643 1163 q 634 1182 643 1176 q 611 1188 625 1188 q 533 1107 557 1188 q 453 1125 476 1110 q 471 1211 471 1179 q 632 1247 549 1247 q 726 1227 693 1247 q 760 1174 760 1207 q 756 1149 760 1161 q 725 1099 746 1117 q 671 1064 704 1082 q 640 1046 649 1053 q 628 1029 631 1039 q 625 1006 624 1017 q 596 1003 608 1003 q 542 1011 563 1003 z "},"Ȃ":{"ha":971,"x_min":-44,"x_max":896,"o":"m 890 81 q 896 32 896 53 q 893 -4 896 21 q 704 0 843 0 q 500 -4 556 0 q 515 81 503 51 q 579 101 561 88 q 597 144 597 115 q 590 190 597 160 l 572 265 q 229 257 363 265 q 199 206 222 243 q 171 129 171 157 q 185 97 171 108 q 229 81 200 86 q 233 36 233 60 q 229 -4 233 17 q 79 0 174 0 q -44 -4 7 0 q -28 81 -42 46 q 36 119 8 90 q 113 228 64 147 q 528 939 231 421 q 610 947 556 947 q 806 229 722 585 q 831 137 819 167 q 856 96 843 107 q 890 81 869 85 m 553 343 q 497 550 517 486 q 468 699 479 611 q 408 578 453 663 l 393 549 q 279 343 347 461 l 553 343 m 639 1214 q 803 1174 747 1214 q 860 1058 860 1135 q 856 1014 860 1038 q 772 1000 817 1000 q 749 1001 757 1000 q 711 1072 750 1047 q 603 1097 672 1097 q 488 1072 533 1097 q 429 1001 443 1047 q 399 999 407 999 q 342 1010 364 999 q 437 1162 361 1110 q 639 1214 513 1214 z "},"Ā":{"ha":971,"x_min":-44,"x_max":896,"o":"m 890 81 q 896 32 896 53 q 893 -4 896 21 q 704 0 843 0 q 500 -4 556 0 q 515 81 503 51 q 579 101 561 88 q 597 144 597 115 q 590 190 597 160 l 572 265 q 229 257 363 265 q 199 206 222 243 q 171 129 171 157 q 185 97 171 108 q 229 81 200 86 q 233 36 233 60 q 229 -4 233 17 q 79 0 174 0 q -44 -4 7 0 q -28 81 -42 46 q 36 119 8 90 q 113 228 64 147 q 528 939 231 421 q 610 947 556 947 q 806 229 722 585 q 831 137 819 167 q 856 96 843 107 q 890 81 869 85 m 553 343 q 497 550 517 486 q 468 699 479 611 q 408 578 453 663 l 393 549 q 279 343 347 461 l 553 343 m 349 1063 q 361 1139 349 1113 l 854 1139 q 842 1069 854 1106 q 349 1063 553 1069 z "},"Ą":{"ha":971,"x_min":-44,"x_max":896,"o":"m 807 0 q 697 -69 733 -29 q 660 -144 660 -108 q 678 -188 660 -172 q 729 -204 697 -204 q 778 -194 757 -204 q 801 -271 801 -224 q 676 -344 732 -296 q 647 -346 665 -346 q 526 -314 572 -346 q 479 -218 479 -282 q 482 -186 479 -208 q 531 -90 492 -135 q 660 0 571 -44 q 500 -4 563 0 q 515 81 503 51 q 579 101 561 88 q 597 144 597 115 q 590 190 597 160 l 572 265 q 229 257 363 265 q 199 206 222 243 q 171 129 171 157 q 185 97 171 108 q 229 81 200 86 q 233 36 233 60 q 229 -4 233 17 q 79 0 174 0 q -44 -4 7 0 q -28 81 -42 46 q 36 119 8 90 q 113 228 64 147 q 528 939 231 421 q 610 947 556 947 q 806 229 722 585 q 831 137 819 167 q 856 96 843 107 q 890 81 869 85 q 896 32 896 53 q 893 -4 896 21 l 807 0 m 553 343 q 497 550 517 486 q 468 699 479 611 q 408 578 453 663 l 393 549 q 279 343 347 461 l 553 343 z "},"Å":{"ha":971,"x_min":-44,"x_max":896,"o":"m 890 81 q 896 32 896 53 q 893 -4 896 21 q 704 0 843 0 q 500 -4 556 0 q 515 81 503 51 q 579 101 561 88 q 597 144 597 115 q 590 190 597 160 l 572 265 q 229 257 363 265 q 199 206 222 243 q 171 129 171 157 q 185 97 171 108 q 229 81 200 86 q 233 36 233 60 q 229 -4 233 17 q 79 0 174 0 q -44 -4 7 0 q -28 81 -42 46 q 36 119 8 90 q 113 228 64 147 q 528 939 231 421 q 610 947 556 947 q 806 229 722 585 q 831 137 819 167 q 856 96 843 107 q 890 81 869 85 m 553 343 q 497 550 517 486 q 468 699 479 611 q 408 578 453 663 l 393 549 q 279 343 347 461 l 553 343 m 594 996 q 477 1026 518 996 q 436 1103 436 1056 q 484 1197 436 1164 q 614 1229 532 1229 q 731 1201 692 1229 q 771 1125 771 1172 q 724 1030 771 1064 q 594 996 676 996 m 599 1060 q 636 1073 621 1060 q 657 1108 651 1086 q 658 1122 658 1113 q 646 1156 658 1142 q 610 1171 633 1171 q 565 1153 582 1171 q 547 1104 547 1135 q 561 1072 547 1085 q 599 1060 575 1060 z "},"Ǻ":{"ha":971,"x_min":-44,"x_max":896,"o":"m 890 81 q 896 32 896 53 q 893 -4 896 21 q 704 0 843 0 q 500 -4 556 0 q 515 81 503 51 q 579 101 561 88 q 597 144 597 115 q 590 190 597 160 l 572 265 q 229 257 363 265 q 199 206 222 243 q 171 129 171 157 q 185 97 171 108 q 229 81 200 86 q 233 36 233 60 q 229 -4 233 17 q 79 0 174 0 q -44 -4 7 0 q -28 81 -42 46 q 36 119 8 90 q 113 228 64 147 q 528 939 231 421 q 610 947 556 947 q 806 229 722 585 q 831 137 819 167 q 856 96 843 107 q 890 81 869 85 m 553 343 q 497 550 517 486 q 468 699 479 611 q 408 578 453 663 l 393 549 q 279 343 347 461 l 553 343 m 594 996 q 477 1026 518 996 q 436 1103 436 1056 q 484 1197 436 1164 q 614 1229 532 1229 q 731 1201 692 1229 q 771 1125 771 1172 q 724 1030 771 1064 q 594 996 676 996 m 599 1060 q 636 1073 621 1060 q 657 1108 651 1086 q 658 1122 658 1113 q 646 1156 658 1142 q 610 1171 633 1171 q 565 1153 582 1171 q 547 1104 547 1135 q 561 1072 547 1085 q 599 1060 575 1060 m 638 1306 q 543 1340 585 1310 q 608 1430 578 1381 q 653 1513 639 1479 q 715 1515 674 1515 q 844 1494 799 1515 q 638 1306 718 1385 z "},"Ã":{"ha":971,"x_min":-44,"x_max":896,"o":"m 890 81 q 896 32 896 53 q 893 -4 896 21 q 704 0 843 0 q 500 -4 556 0 q 515 81 503 51 q 579 101 561 88 q 597 144 597 115 q 590 190 597 160 l 572 265 q 229 257 363 265 q 199 206 222 243 q 171 129 171 157 q 185 97 171 108 q 229 81 200 86 q 233 36 233 60 q 229 -4 233 17 q 79 0 174 0 q -44 -4 7 0 q -28 81 -42 46 q 36 119 8 90 q 113 228 64 147 q 528 939 231 421 q 610 947 556 947 q 806 229 722 585 q 831 137 819 167 q 856 96 843 107 q 890 81 869 85 m 553 343 q 497 550 517 486 q 468 699 479 611 q 408 578 453 663 l 393 549 q 279 343 347 461 l 553 343 m 664 1029 q 610 1038 632 1029 q 560 1063 588 1046 q 521 1083 538 1076 q 483 1089 504 1089 q 367 1032 432 1089 q 343 1103 343 1067 q 344 1124 343 1117 q 439 1187 389 1168 q 533 1206 489 1206 q 588 1198 565 1206 q 643 1174 611 1190 q 681 1156 665 1163 q 715 1150 697 1150 q 808 1201 760 1150 q 867 1149 851 1181 q 771 1059 822 1089 q 664 1029 719 1029 z "},"Æ":{"ha":1233,"x_min":-44,"x_max":1247,"o":"m 861 854 l 799 482 l 832 482 q 938 505 907 482 q 978 590 968 528 q 1042 596 1006 596 q 1076 594 1064 596 q 1044 426 1057 521 q 1029 271 1031 332 q 936 290 972 274 q 915 377 939 349 q 822 406 890 406 l 786 406 l 756 226 q 747 156 747 183 q 769 99 747 113 q 847 85 790 85 l 860 85 q 966 103 925 85 q 1035 163 1007 122 q 1092 272 1064 203 q 1147 257 1124 267 q 1192 231 1171 247 q 1125 -4 1142 113 q 804 0 1042 0 q 419 -4 518 0 q 438 82 419 38 q 497 99 478 86 q 527 140 517 111 q 550 238 538 169 l 579 406 q 368 397 457 404 l 293 293 l 225 199 q 186 118 186 143 q 197 94 186 103 q 229 81 207 86 q 233 36 233 60 q 229 -4 233 17 q 79 0 174 0 q -44 -4 7 0 q -28 81 -42 46 q 42 115 11 90 q 128 210 74 140 q 510 729 267 389 q 539 800 539 769 q 461 858 539 850 q 456 903 456 876 q 460 943 456 925 q 721 939 583 939 l 724 939 l 868 939 q 1247 943 1083 939 q 1233 767 1233 853 q 1236 703 1233 742 q 1132 689 1185 689 q 1116 784 1129 750 q 1065 836 1103 818 q 950 854 1026 854 l 861 854 m 593 482 l 626 668 q 664 835 642 758 q 428 482 592 711 l 593 482 z "},"Ǽ":{"ha":1233,"x_min":-44,"x_max":1247,"o":"m 861 854 l 799 482 l 832 482 q 938 505 907 482 q 978 590 968 528 q 1042 596 1006 596 q 1076 594 1064 596 q 1044 426 1057 521 q 1029 271 1031 332 q 936 290 972 274 q 915 377 939 349 q 822 406 890 406 l 786 406 l 756 226 q 747 156 747 183 q 769 99 747 113 q 847 85 790 85 l 860 85 q 966 103 925 85 q 1035 163 1007 122 q 1092 272 1064 203 q 1147 257 1124 267 q 1192 231 1171 247 q 1125 -4 1142 113 q 804 0 1042 0 q 419 -4 518 0 q 438 82 419 38 q 497 99 478 86 q 527 140 517 111 q 550 238 538 169 l 579 406 q 368 397 457 404 l 293 293 l 225 199 q 186 118 186 143 q 197 94 186 103 q 229 81 207 86 q 233 36 233 60 q 229 -4 233 17 q 79 0 174 0 q -44 -4 7 0 q -28 81 -42 46 q 42 115 11 90 q 128 210 74 140 q 510 729 267 389 q 539 800 539 769 q 461 858 539 850 q 456 903 456 876 q 460 943 456 925 q 721 939 583 939 l 724 939 l 868 939 q 1247 943 1083 939 q 1233 767 1233 853 q 1236 703 1233 742 q 1132 689 1185 689 q 1116 784 1129 750 q 1065 836 1103 818 q 950 854 1026 854 l 861 854 m 593 482 l 626 668 q 664 835 642 758 q 428 482 592 711 l 593 482 m 829 1015 q 735 1050 776 1019 q 800 1140 769 1090 q 844 1222 831 1189 q 907 1225 865 1225 q 1036 1204 990 1225 q 829 1015 910 1094 z "},"B":{"ha":915,"x_min":24,"x_max":892,"o":"m 886 703 q 808 576 874 629 q 640 510 743 524 q 814 453 756 504 q 872 308 872 401 q 865 240 872 279 q 739 63 843 126 q 443 0 635 0 q 24 -4 142 0 q 43 81 25 35 q 102 97 83 85 q 131 140 121 110 q 154 238 142 169 l 240 731 q 246 788 246 763 q 228 839 246 825 q 165 858 210 853 q 161 899 161 878 q 164 943 161 915 q 317 939 243 939 l 431 940 q 575 943 525 943 q 815 898 739 943 q 892 758 892 853 q 886 703 892 729 m 674 707 q 678 744 678 728 q 641 829 678 800 q 539 858 604 858 q 467 844 511 858 l 414 532 l 456 532 q 601 578 544 532 q 674 707 658 625 m 636 257 q 642 314 642 285 q 592 413 642 385 q 435 442 543 442 l 399 442 l 358 210 q 351 147 351 168 q 371 94 351 106 q 438 82 390 82 q 567 130 511 82 q 636 257 622 178 z "},"C":{"ha":867,"x_min":69,"x_max":921,"o":"m 921 874 q 875 661 888 785 q 811 650 846 650 q 769 654 790 650 q 774 719 774 690 q 737 836 774 804 q 628 868 700 868 q 467 815 538 868 q 353 671 397 761 q 294 472 310 581 q 288 382 288 421 q 349 174 288 251 q 535 96 410 96 q 775 163 654 96 q 803 88 800 135 q 475 -12 660 -12 q 260 35 351 -12 q 119 173 169 83 q 69 385 69 263 q 78 483 69 432 q 183 740 100 635 q 381 899 265 846 q 622 951 497 951 q 781 933 710 951 q 921 874 853 915 z "},"Ć":{"ha":867,"x_min":69,"x_max":921,"o":"m 921 874 q 875 661 888 785 q 811 650 846 650 q 769 654 790 650 q 774 719 774 690 q 737 836 774 804 q 628 868 700 868 q 467 815 538 868 q 353 671 397 761 q 294 472 310 581 q 288 382 288 421 q 349 174 288 251 q 535 96 410 96 q 775 163 654 96 q 803 88 800 135 q 475 -12 660 -12 q 260 35 351 -12 q 119 173 169 83 q 69 385 69 263 q 78 483 69 432 q 183 740 100 635 q 381 899 265 846 q 622 951 497 951 q 781 933 710 951 q 921 874 853 915 m 639 1015 q 544 1050 586 1019 q 610 1140 579 1090 q 654 1222 640 1189 q 717 1225 675 1225 q 846 1204 800 1225 q 639 1015 719 1094 z "},"Č":{"ha":867,"x_min":69,"x_max":921,"o":"m 921 874 q 875 661 888 785 q 811 650 846 650 q 769 654 790 650 q 774 719 774 690 q 737 836 774 804 q 628 868 700 868 q 467 815 538 868 q 353 671 397 761 q 294 472 310 581 q 288 382 288 421 q 349 174 288 251 q 535 96 410 96 q 775 163 654 96 q 803 88 800 135 q 475 -12 660 -12 q 260 35 351 -12 q 119 173 169 83 q 69 385 69 263 q 78 483 69 432 q 183 740 100 635 q 381 899 265 846 q 622 951 497 951 q 781 933 710 951 q 921 874 853 915 m 593 1013 q 413 1175 515 1099 q 485 1236 431 1231 q 663 1151 564 1188 q 853 1236 753 1176 q 887 1213 871 1231 q 913 1175 903 1196 q 679 1025 768 1090 q 615 1011 651 1011 q 593 1013 600 1011 z "},"Ç":{"ha":867,"x_min":69,"x_max":921,"o":"m 622 951 q 781 933 710 951 q 921 874 853 915 q 875 661 888 785 q 811 650 846 650 q 769 654 790 650 q 774 719 774 690 q 737 836 774 804 q 628 868 700 868 q 467 815 538 868 q 353 671 397 761 q 294 472 310 581 q 288 382 288 421 q 349 174 288 251 q 535 96 410 96 q 775 163 654 96 q 803 88 800 135 q 501 -12 667 -7 l 450 -69 q 535 -175 535 -92 q 531 -211 535 -193 q 456 -306 518 -274 q 293 -336 393 -339 q 289 -311 289 -326 q 293 -278 289 -293 q 375 -263 340 -279 q 415 -219 410 -247 q 417 -204 417 -214 q 396 -162 417 -176 q 342 -147 375 -147 q 328 -103 328 -126 q 329 -87 328 -93 l 401 -8 q 156 118 243 13 q 69 385 69 224 q 78 483 69 433 q 183 740 100 635 q 381 899 265 846 q 622 951 497 951 z "},"Ḉ":{"ha":867,"x_min":69,"x_max":921,"o":"m 847 1204 q 639 1015 726 1100 q 544 1050 588 1019 q 610 1140 579 1090 q 656 1222 642 1189 q 717 1225 676 1225 q 847 1204 801 1225 m 622 951 q 781 933 710 951 q 921 874 853 915 q 875 661 888 785 q 811 650 846 650 q 769 654 790 650 q 774 719 774 690 q 737 836 774 804 q 628 868 700 868 q 467 815 538 868 q 353 671 397 761 q 294 472 310 581 q 288 382 288 421 q 349 174 288 251 q 535 96 410 96 q 775 163 654 96 q 803 88 800 135 q 501 -12 667 -7 l 450 -69 q 535 -175 535 -92 q 531 -211 535 -193 q 456 -306 518 -274 q 293 -336 393 -339 q 289 -311 289 -326 q 293 -278 289 -293 q 375 -263 340 -279 q 415 -219 410 -247 q 417 -204 417 -214 q 396 -162 417 -176 q 342 -147 375 -147 q 328 -103 328 -126 q 329 -87 328 -93 l 401 -8 q 156 118 243 13 q 69 385 69 224 q 78 483 69 433 q 183 740 100 635 q 381 899 265 846 q 622 951 497 951 z "},"Ĉ":{"ha":867,"x_min":69,"x_max":921,"o":"m 921 874 q 875 661 888 785 q 811 650 846 650 q 769 654 790 650 q 774 719 774 690 q 737 836 774 804 q 628 868 700 868 q 467 815 538 868 q 353 671 397 761 q 294 472 310 581 q 288 382 288 421 q 349 174 288 251 q 535 96 410 96 q 775 163 654 96 q 803 88 800 135 q 475 -12 660 -12 q 260 35 351 -12 q 119 173 169 83 q 69 385 69 263 q 78 483 69 432 q 183 740 100 635 q 381 899 265 846 q 622 951 497 951 q 781 933 710 951 q 921 874 853 915 m 467 1006 q 432 1038 446 1015 q 415 1081 418 1061 q 649 1231 514 1128 q 675 1232 657 1232 q 736 1222 711 1232 q 910 1050 781 1174 q 876 1027 899 1036 q 828 1015 854 1018 q 658 1100 735 1074 q 506 1026 603 1078 q 467 1006 483 1013 z "},"Ċ":{"ha":867,"x_min":69,"x_max":921,"o":"m 921 874 q 875 661 888 785 q 811 650 846 650 q 769 654 790 650 q 774 719 774 690 q 737 836 774 804 q 628 868 700 868 q 467 815 538 868 q 353 671 397 761 q 294 472 310 581 q 288 382 288 421 q 349 174 288 251 q 535 96 410 96 q 775 163 654 96 q 803 88 800 135 q 475 -12 660 -12 q 260 35 351 -12 q 119 173 169 83 q 69 385 69 263 q 78 483 69 432 q 183 740 100 635 q 381 899 265 846 q 622 951 497 951 q 781 933 710 951 q 921 874 853 915 m 640 997 q 569 1021 596 997 q 543 1085 543 1044 q 578 1166 543 1138 q 674 1194 614 1194 q 744 1170 718 1194 q 771 1106 771 1146 q 737 1024 771 1051 q 640 997 703 997 z "},"D":{"ha":1019,"x_min":25,"x_max":1014,"o":"m 565 942 q 891 864 768 942 q 1014 589 1014 786 q 1001 457 1014 531 q 788 102 957 204 q 410 0 618 0 l 406 0 q 25 -4 115 0 q 43 81 28 43 q 107 101 86 85 q 136 145 128 117 q 156 238 144 174 l 240 731 q 246 788 246 763 q 228 839 246 825 q 165 858 210 853 q 161 906 161 882 q 164 943 161 921 q 403 939 256 939 q 479 940 453 939 l 565 942 m 789 468 q 803 601 803 539 q 551 860 803 860 q 465 846 506 860 l 360 221 q 351 150 351 178 q 372 98 351 111 q 447 85 392 85 q 657 170 564 85 q 789 468 750 256 z "},"Ǳ":{"ha":1792,"x_min":25,"x_max":1850,"o":"m 565 942 q 891 864 768 942 q 1014 589 1014 786 q 1001 457 1014 531 q 788 102 957 204 q 410 0 618 0 l 406 0 q 25 -4 115 0 q 43 81 28 43 q 107 101 86 85 q 136 145 128 117 q 156 238 144 174 l 240 731 q 246 788 246 763 q 228 839 246 825 q 165 858 210 853 q 161 906 161 882 q 164 943 161 921 q 403 939 256 939 q 479 940 453 939 l 565 942 m 789 468 q 803 601 803 539 q 551 860 803 860 q 465 846 506 860 l 360 221 q 351 150 351 178 q 372 98 351 111 q 447 85 392 85 q 657 170 564 85 q 789 468 750 256 m 1825 943 q 1847 858 1850 913 q 1267 85 1557 453 l 1385 85 q 1505 100 1461 85 q 1580 156 1549 115 q 1644 275 1611 196 q 1753 229 1706 265 q 1713 115 1732 179 q 1685 -4 1694 50 q 1328 0 1564 0 q 1015 -4 1113 0 q 994 82 993 31 q 1583 856 1322 486 l 1461 856 q 1371 840 1407 856 q 1306 782 1335 824 q 1246 661 1276 740 q 1135 696 1174 665 q 1175 814 1156 744 q 1204 943 1194 883 q 1526 939 1297 939 q 1825 943 1729 939 z "},"Ǆ":{"ha":1792,"x_min":25,"x_max":1850,"o":"m 565 942 q 891 864 768 942 q 1014 589 1014 786 q 1001 457 1014 531 q 788 102 957 204 q 410 0 618 0 l 406 0 q 25 -4 115 0 q 43 81 28 43 q 107 101 86 85 q 136 145 128 117 q 156 238 144 174 l 240 731 q 246 788 246 763 q 228 839 246 825 q 165 858 210 853 q 161 906 161 882 q 164 943 161 921 q 403 939 256 939 q 479 940 453 939 l 565 942 m 789 468 q 803 601 803 539 q 551 860 803 860 q 465 846 506 860 l 360 221 q 351 150 351 178 q 372 98 351 111 q 447 85 392 85 q 657 170 564 85 q 789 468 750 256 m 1825 943 q 1847 858 1850 913 q 1267 85 1557 453 l 1385 85 q 1505 100 1461 85 q 1580 156 1549 115 q 1644 275 1611 196 q 1753 229 1706 265 q 1713 115 1732 179 q 1685 -4 1694 50 q 1328 0 1564 0 q 1015 -4 1113 0 q 994 82 993 31 q 1583 856 1322 486 l 1461 856 q 1371 840 1407 856 q 1306 782 1335 824 q 1246 661 1276 740 q 1135 696 1174 665 q 1175 814 1156 744 q 1204 943 1194 883 q 1526 939 1297 939 q 1825 943 1729 939 m 1472 1013 q 1292 1175 1394 1099 q 1364 1236 1310 1231 q 1542 1151 1443 1188 q 1732 1236 1632 1176 q 1766 1213 1750 1231 q 1792 1175 1782 1196 q 1558 1025 1647 1090 q 1494 1011 1531 1011 q 1472 1013 1479 1011 z "},"Ð":{"ha":1019,"x_min":25,"x_max":1014,"o":"m 565 942 q 891 864 768 942 q 1014 589 1014 786 q 1001 457 1014 531 q 788 102 957 204 q 410 0 618 0 l 406 0 q 25 -4 115 0 q 43 81 28 43 q 106 100 86 85 q 135 144 126 115 q 156 238 144 172 l 188 426 q 88 424 121 424 q 101 524 88 486 l 204 524 l 240 731 q 247 789 247 769 q 229 838 247 824 q 165 858 211 853 q 161 906 161 882 q 164 943 161 921 q 403 939 256 939 q 479 940 453 939 l 565 942 m 789 468 q 803 601 803 539 q 551 860 803 860 q 465 846 506 860 l 411 524 l 586 524 q 571 426 586 463 q 394 428 513 428 l 360 221 q 353 150 353 172 q 373 98 353 111 q 447 85 393 85 q 657 170 564 85 q 789 468 750 256 z "},"Ď":{"ha":1019,"x_min":25,"x_max":1014,"o":"m 565 942 q 891 864 768 942 q 1014 589 1014 786 q 1001 457 1014 531 q 788 102 957 204 q 410 0 618 0 l 406 0 q 25 -4 115 0 q 43 81 28 43 q 107 101 86 85 q 136 145 128 117 q 156 238 144 174 l 240 731 q 246 788 246 763 q 228 839 246 825 q 165 858 210 853 q 161 906 161 882 q 164 943 161 921 q 403 939 256 939 q 479 940 453 939 l 565 942 m 789 468 q 803 601 803 539 q 551 860 803 860 q 465 846 506 860 l 360 221 q 351 150 351 178 q 372 98 351 111 q 447 85 392 85 q 657 170 564 85 q 789 468 750 256 m 542 1013 q 361 1175 464 1099 q 433 1236 379 1231 q 611 1151 513 1188 q 801 1236 701 1176 q 835 1213 819 1231 q 861 1175 851 1196 q 628 1025 717 1090 q 564 1011 600 1011 q 542 1013 549 1011 z "},"Ḑ":{"ha":1019,"x_min":25,"x_max":1014,"o":"m 565 942 q 891 864 768 942 q 1014 589 1014 786 q 1001 457 1014 531 q 788 102 957 204 q 410 0 618 0 l 406 0 q 25 -4 115 0 q 43 81 28 43 q 107 101 86 85 q 136 145 128 117 q 156 238 144 174 l 240 731 q 246 788 246 763 q 228 839 246 825 q 165 858 210 853 q 161 906 161 882 q 164 943 161 921 q 403 939 256 939 q 479 940 453 939 l 565 942 m 789 468 q 803 601 803 539 q 551 860 803 860 q 465 846 506 860 l 360 221 q 351 150 351 178 q 372 98 351 111 q 447 85 392 85 q 657 170 564 85 q 789 468 750 256 m 333 -415 q 276 -375 292 -407 q 334 -318 311 -349 q 361 -262 357 -287 q 297 -207 367 -215 q 331 -97 297 -146 q 482 -56 424 -90 q 519 -81 507 -64 q 531 -128 531 -99 q 528 -161 531 -136 q 333 -415 504 -306 z "},"Đ":{"ha":1019,"x_min":25,"x_max":1014,"o":"m 565 942 q 891 864 768 942 q 1014 589 1014 786 q 1001 457 1014 531 q 788 102 957 204 q 410 0 618 0 l 406 0 q 25 -4 115 0 q 43 81 28 43 q 106 100 86 85 q 135 144 126 115 q 156 238 144 172 l 188 426 q 88 424 121 424 q 101 524 88 486 l 204 524 l 240 731 q 247 789 247 769 q 229 838 247 824 q 165 858 211 853 q 161 906 161 882 q 164 943 161 921 q 403 939 256 939 q 479 940 453 939 l 565 942 m 789 468 q 803 601 803 539 q 551 860 803 860 q 465 846 506 860 l 411 524 l 586 524 q 571 426 586 463 q 394 428 513 428 l 360 221 q 353 150 353 172 q 373 98 353 111 q 447 85 393 85 q 657 170 564 85 q 789 468 750 256 z "},"Ḍ":{"ha":1019,"x_min":25,"x_max":1014,"o":"m 565 942 q 891 864 768 942 q 1014 589 1014 786 q 1001 457 1014 531 q 788 102 957 204 q 410 0 618 0 l 406 0 q 25 -4 115 0 q 43 81 28 43 q 107 101 86 85 q 136 145 128 117 q 156 238 144 174 l 240 731 q 246 788 246 763 q 228 839 246 825 q 165 858 210 853 q 161 906 161 882 q 164 943 161 921 q 403 939 256 939 q 479 940 453 939 l 565 942 m 789 468 q 803 601 803 539 q 551 860 803 860 q 465 846 506 860 l 360 221 q 351 150 351 178 q 372 98 351 111 q 447 85 392 85 q 657 170 564 85 q 789 468 750 256 m 392 -321 q 317 -297 343 -321 q 292 -233 292 -274 q 328 -143 292 -176 q 419 -110 364 -110 q 493 -133 467 -110 q 519 -199 519 -157 q 484 -288 519 -256 q 392 -321 449 -321 z "},"Ḏ":{"ha":1019,"x_min":25,"x_max":1014,"o":"m 565 942 q 891 864 768 942 q 1014 589 1014 786 q 1001 457 1014 531 q 788 102 957 204 q 410 0 618 0 l 406 0 q 25 -4 115 0 q 43 81 28 43 q 107 101 86 85 q 136 145 128 117 q 156 238 144 174 l 240 731 q 246 788 246 763 q 228 839 246 825 q 165 858 210 853 q 161 906 161 882 q 164 943 161 921 q 403 939 256 939 q 479 940 453 939 l 565 942 m 789 468 q 803 601 803 539 q 551 860 803 860 q 465 846 506 860 l 360 221 q 351 150 351 178 q 372 98 351 111 q 447 85 392 85 q 657 170 564 85 q 789 468 750 256 m 154 -249 q 167 -171 154 -197 l 660 -171 q 647 -242 660 -204 q 154 -249 360 -242 z "},"ǲ":{"ha":1617,"x_min":25,"x_max":1610,"o":"m 565 942 q 891 864 768 942 q 1014 589 1014 786 q 1001 457 1014 531 q 788 102 957 204 q 410 0 618 0 l 406 0 q 25 -4 115 0 q 43 81 28 43 q 107 101 86 85 q 136 145 128 117 q 156 238 144 174 l 240 731 q 246 788 246 763 q 228 839 246 825 q 165 858 210 853 q 161 906 161 882 q 164 943 161 921 q 403 939 256 939 q 479 940 453 939 l 565 942 m 789 468 q 803 601 803 539 q 551 860 803 860 q 465 846 506 860 l 360 221 q 351 150 351 178 q 372 98 351 111 q 447 85 392 85 q 657 170 564 85 q 789 468 750 256 m 1476 235 q 1530 230 1503 236 q 1575 213 1557 224 q 1549 125 1558 176 q 1536 26 1539 74 q 1497 -3 1525 6 q 1410 -12 1469 -12 q 1289 -7 1364 -12 q 1165 0 1224 0 q 1024 -12 1094 0 q 1004 57 1004 18 q 1006 74 1004 68 q 1419 472 1275 289 q 1324 479 1378 479 q 1235 462 1263 479 q 1178 389 1207 444 q 1123 397 1150 389 q 1081 421 1096 406 q 1153 636 1138 531 q 1372 643 1222 643 q 1585 636 1514 643 q 1610 560 1607 601 q 1446 354 1540 460 q 1240 151 1351 249 q 1308 163 1275 163 q 1347 160 1322 163 l 1383 158 q 1439 174 1422 158 q 1476 235 1456 190 z "},"ǅ":{"ha":1617,"x_min":25,"x_max":1679,"o":"m 565 942 q 891 864 768 942 q 1014 589 1014 786 q 1001 457 1014 531 q 788 102 957 204 q 410 0 618 0 l 406 0 q 25 -4 115 0 q 43 81 28 43 q 107 101 86 85 q 136 145 128 117 q 156 238 144 174 l 240 731 q 246 788 246 763 q 228 839 246 825 q 165 858 210 853 q 161 906 161 882 q 164 943 161 921 q 403 939 256 939 q 479 940 453 939 l 565 942 m 789 468 q 803 601 803 539 q 551 860 803 860 q 465 846 506 860 l 360 221 q 351 150 351 178 q 372 98 351 111 q 447 85 392 85 q 657 170 564 85 q 789 468 750 256 m 1476 235 q 1530 230 1503 236 q 1575 213 1557 224 q 1549 125 1558 176 q 1536 26 1539 74 q 1497 -3 1525 6 q 1410 -12 1469 -12 q 1289 -7 1364 -12 q 1165 0 1224 0 q 1024 -12 1094 0 q 1004 57 1004 18 q 1006 74 1004 68 q 1419 472 1275 289 q 1324 479 1378 479 q 1235 462 1263 479 q 1178 389 1207 444 q 1123 397 1150 389 q 1081 421 1096 406 q 1153 636 1138 531 q 1372 643 1222 643 q 1585 636 1514 643 q 1610 560 1607 601 q 1446 354 1540 460 q 1240 151 1351 249 q 1308 163 1275 163 q 1347 160 1322 163 l 1383 158 q 1439 174 1422 158 q 1476 235 1456 190 m 1351 717 q 1181 929 1269 838 q 1256 989 1200 981 q 1429 871 1350 913 q 1624 983 1544 922 q 1658 962 1643 978 q 1679 926 1672 946 q 1439 728 1531 819 q 1376 715 1410 715 q 1351 717 1360 715 z "},"E":{"ha":850,"x_min":26,"x_max":864,"o":"m 468 854 l 411 518 l 453 518 q 558 539 528 518 q 597 622 588 560 q 663 628 625 628 q 696 626 685 628 q 664 458 676 553 q 649 303 653 383 q 556 322 594 306 q 535 408 558 381 q 443 435 513 435 l 397 435 l 361 226 q 354 156 354 190 q 376 99 354 113 q 453 85 397 85 l 476 85 q 583 103 542 85 q 652 163 624 122 q 708 272 681 203 q 764 257 740 267 q 808 231 788 247 q 740 -4 760 115 q 411 0 658 0 q 26 -4 125 0 q 44 82 29 43 q 106 101 86 86 q 136 145 126 117 q 157 238 146 174 l 240 722 q 247 783 247 761 q 229 834 247 817 q 164 858 211 851 q 160 901 160 879 q 164 943 160 921 q 476 939 258 939 q 864 943 700 939 q 850 767 850 853 q 853 703 850 742 q 749 689 801 689 q 733 784 746 750 q 681 836 719 818 q 567 854 643 854 l 468 854 z "},"É":{"ha":850,"x_min":26,"x_max":864,"o":"m 468 854 l 411 518 l 453 518 q 558 539 528 518 q 597 622 588 560 q 663 628 625 628 q 696 626 685 628 q 664 458 676 553 q 649 303 653 383 q 556 322 594 306 q 535 408 558 381 q 443 435 513 435 l 397 435 l 361 226 q 354 156 354 190 q 376 99 354 113 q 453 85 397 85 l 476 85 q 583 103 542 85 q 652 163 624 122 q 708 272 681 203 q 764 257 740 267 q 808 231 788 247 q 740 -4 760 115 q 411 0 658 0 q 26 -4 125 0 q 44 82 29 43 q 106 101 86 86 q 136 145 126 117 q 157 238 146 174 l 240 722 q 247 783 247 761 q 229 834 247 817 q 164 858 211 851 q 160 901 160 879 q 164 943 160 921 q 476 939 258 939 q 864 943 700 939 q 850 767 850 853 q 853 703 850 742 q 749 689 801 689 q 733 784 746 750 q 681 836 719 818 q 567 854 643 854 l 468 854 m 532 1015 q 438 1050 479 1019 q 503 1140 472 1090 q 547 1222 533 1189 q 610 1225 568 1225 q 739 1204 693 1225 q 532 1015 613 1094 z "},"Ĕ":{"ha":850,"x_min":26,"x_max":864,"o":"m 468 854 l 411 518 l 453 518 q 558 539 528 518 q 597 622 588 560 q 663 628 625 628 q 696 626 685 628 q 664 458 676 553 q 649 303 653 383 q 556 322 594 306 q 535 408 558 381 q 443 435 513 435 l 397 435 l 361 226 q 354 156 354 190 q 376 99 354 113 q 453 85 397 85 l 476 85 q 583 103 542 85 q 652 163 624 122 q 708 272 681 203 q 764 257 740 267 q 808 231 788 247 q 740 -4 760 115 q 411 0 658 0 q 26 -4 125 0 q 44 82 29 43 q 106 101 86 86 q 136 145 126 117 q 157 238 146 174 l 240 722 q 247 783 247 761 q 229 834 247 817 q 164 858 211 851 q 160 901 160 879 q 164 943 160 921 q 476 939 258 939 q 864 943 700 939 q 850 767 850 853 q 853 703 850 742 q 749 689 801 689 q 733 784 746 750 q 681 836 719 818 q 567 854 643 854 l 468 854 m 517 1007 q 351 1047 407 1007 q 294 1163 294 1086 q 299 1207 294 1185 q 382 1221 338 1221 q 406 1219 397 1221 q 443 1149 404 1174 q 551 1124 482 1124 q 666 1149 621 1124 q 725 1219 711 1174 q 756 1222 747 1222 q 813 1211 790 1222 q 719 1059 794 1111 q 517 1007 643 1007 z "},"Ě":{"ha":850,"x_min":26,"x_max":864,"o":"m 468 854 l 411 518 l 453 518 q 558 539 528 518 q 597 622 588 560 q 663 628 625 628 q 696 626 685 628 q 664 458 676 553 q 649 303 653 383 q 556 322 594 306 q 535 408 558 381 q 443 435 513 435 l 397 435 l 361 226 q 354 156 354 190 q 376 99 354 113 q 453 85 397 85 l 476 85 q 583 103 542 85 q 652 163 624 122 q 708 272 681 203 q 764 257 740 267 q 808 231 788 247 q 740 -4 760 115 q 411 0 658 0 q 26 -4 125 0 q 44 82 29 43 q 106 101 86 86 q 136 145 126 117 q 157 238 146 174 l 240 722 q 247 783 247 761 q 229 834 247 817 q 164 858 211 851 q 160 901 160 879 q 164 943 160 921 q 476 939 258 939 q 864 943 700 939 q 850 767 850 853 q 853 703 850 742 q 749 689 801 689 q 733 784 746 750 q 681 836 719 818 q 567 854 643 854 l 468 854 m 486 1013 q 306 1175 408 1099 q 378 1236 324 1231 q 556 1151 457 1188 q 746 1236 646 1176 q 780 1213 764 1231 q 806 1175 796 1196 q 572 1025 661 1090 q 508 1011 544 1011 q 486 1013 493 1011 z "},"Ȩ":{"ha":850,"x_min":26,"x_max":864,"o":"m 468 854 l 411 518 l 453 518 q 558 539 528 518 q 597 622 588 560 q 663 628 625 628 q 696 626 685 628 q 664 458 676 553 q 649 303 653 383 q 556 322 594 306 q 535 408 558 381 q 443 435 513 435 l 397 435 l 361 226 q 354 156 354 190 q 376 99 354 113 q 453 85 397 85 l 476 85 q 583 103 542 85 q 652 163 624 122 q 708 272 681 203 q 764 257 740 267 q 808 231 788 247 q 740 -4 760 115 q 454 0 668 0 l 392 -69 q 476 -175 476 -93 q 472 -212 476 -192 q 397 -306 460 -274 q 235 -336 335 -339 q 231 -310 231 -324 q 235 -278 231 -293 q 317 -263 282 -279 q 357 -219 351 -247 q 358 -204 358 -214 q 338 -162 358 -176 q 283 -147 317 -147 q 269 -103 269 -126 q 271 -87 269 -93 l 351 0 q 26 -4 110 0 q 44 82 29 43 q 106 101 86 86 q 136 145 126 117 q 157 238 146 174 l 240 722 q 247 783 247 761 q 229 834 247 817 q 164 858 211 851 q 160 901 160 879 q 164 943 160 921 q 476 939 258 939 q 864 943 700 939 q 850 767 850 853 q 853 703 850 742 q 749 689 801 689 q 733 784 746 750 q 681 836 719 818 q 567 854 643 854 l 468 854 z "},"Ḝ":{"ha":850,"x_min":26,"x_max":864,"o":"m 517 1007 q 352 1047 408 1007 q 296 1163 296 1086 q 300 1207 296 1185 q 383 1221 339 1221 q 407 1219 399 1221 q 444 1149 406 1174 q 553 1124 483 1124 q 667 1149 622 1124 q 726 1219 713 1174 q 757 1222 749 1222 q 814 1211 792 1222 q 719 1059 794 1111 q 517 1007 643 1007 m 468 854 l 411 518 l 453 518 q 558 539 528 518 q 597 622 588 560 q 663 628 625 628 q 696 626 685 628 q 664 458 676 553 q 649 303 653 383 q 556 322 594 306 q 535 408 558 381 q 443 435 513 435 l 397 435 l 361 226 q 354 156 354 190 q 376 99 354 113 q 453 85 397 85 l 476 85 q 583 103 542 85 q 652 163 624 122 q 708 272 681 203 q 764 257 740 267 q 808 231 788 247 q 740 -4 760 115 q 454 0 668 0 l 392 -69 q 476 -175 476 -93 q 472 -212 476 -192 q 397 -306 460 -274 q 235 -336 335 -339 q 231 -310 231 -324 q 235 -278 231 -293 q 317 -263 282 -279 q 357 -219 351 -247 q 358 -204 358 -214 q 338 -162 358 -176 q 283 -147 317 -147 q 269 -103 269 -126 q 271 -87 269 -93 l 351 0 q 26 -4 110 0 q 44 82 29 43 q 106 101 86 86 q 136 145 126 117 q 157 238 146 174 l 240 722 q 247 783 247 761 q 229 834 247 817 q 164 858 211 851 q 160 901 160 879 q 164 943 160 921 q 476 939 258 939 q 864 943 700 939 q 850 767 850 853 q 853 703 850 742 q 749 689 801 689 q 733 784 746 750 q 681 836 719 818 q 567 854 643 854 l 468 854 z "},"Ê":{"ha":850,"x_min":26,"x_max":864,"o":"m 468 854 l 411 518 l 453 518 q 558 539 528 518 q 597 622 588 560 q 663 628 625 628 q 696 626 685 628 q 664 458 676 553 q 649 303 653 383 q 556 322 594 306 q 535 408 558 381 q 443 435 513 435 l 397 435 l 361 226 q 354 156 354 190 q 376 99 354 113 q 453 85 397 85 l 476 85 q 583 103 542 85 q 652 163 624 122 q 708 272 681 203 q 764 257 740 267 q 808 231 788 247 q 740 -4 760 115 q 411 0 658 0 q 26 -4 125 0 q 44 82 29 43 q 106 101 86 86 q 136 145 126 117 q 157 238 146 174 l 240 722 q 247 783 247 761 q 229 834 247 817 q 164 858 211 851 q 160 901 160 879 q 164 943 160 921 q 476 939 258 939 q 864 943 700 939 q 850 767 850 853 q 853 703 850 742 q 749 689 801 689 q 733 784 746 750 q 681 836 719 818 q 567 854 643 854 l 468 854 m 360 1006 q 325 1038 339 1015 q 308 1081 311 1061 q 542 1231 407 1128 q 568 1232 550 1232 q 629 1222 604 1232 q 803 1050 674 1174 q 769 1027 792 1036 q 721 1015 747 1018 q 551 1100 628 1074 q 399 1026 496 1078 q 360 1006 376 1013 z "},"Ế":{"ha":850,"x_min":26,"x_max":982,"o":"m 468 854 l 411 518 l 453 518 q 558 539 528 518 q 597 622 588 560 q 663 628 625 628 q 696 626 685 628 q 664 458 676 553 q 649 303 653 383 q 556 322 594 306 q 535 408 558 381 q 443 435 513 435 l 397 435 l 361 226 q 354 156 354 190 q 376 99 354 113 q 453 85 397 85 l 476 85 q 583 103 542 85 q 652 163 624 122 q 708 272 681 203 q 764 257 740 267 q 808 231 788 247 q 740 -4 760 115 q 411 0 658 0 q 26 -4 125 0 q 44 82 29 43 q 106 101 86 86 q 136 145 126 117 q 157 238 146 174 l 240 722 q 247 783 247 761 q 229 834 247 817 q 164 858 211 851 q 160 901 160 879 q 164 943 160 921 q 476 939 258 939 q 864 943 700 939 q 850 767 850 853 q 853 703 850 742 q 749 689 801 689 q 733 784 746 750 q 681 836 719 818 q 567 854 643 854 l 468 854 m 794 1190 q 710 1222 751 1194 q 768 1302 740 1258 q 810 1376 796 1346 q 867 1381 839 1381 q 982 1361 939 1381 q 794 1190 883 1274 m 361 1006 q 326 1038 340 1015 q 310 1081 311 1061 q 543 1231 408 1128 q 569 1232 551 1232 q 631 1222 603 1232 q 804 1050 681 1167 q 721 1015 778 1019 q 551 1100 628 1074 q 403 1028 510 1083 l 361 1006 z "},"Ệ":{"ha":850,"x_min":26,"x_max":864,"o":"m 468 854 l 411 518 l 453 518 q 558 539 528 518 q 597 622 588 560 q 663 628 625 628 q 696 626 685 628 q 664 458 676 553 q 649 303 653 383 q 556 322 594 306 q 535 408 558 381 q 443 435 513 435 l 397 435 l 361 226 q 354 156 354 190 q 376 99 354 113 q 453 85 397 85 l 476 85 q 583 103 542 85 q 652 163 624 122 q 708 272 681 203 q 764 257 740 267 q 808 231 788 247 q 740 -4 760 115 q 411 0 658 0 q 26 -4 125 0 q 44 82 29 43 q 106 101 86 86 q 136 145 126 117 q 157 238 146 174 l 240 722 q 247 783 247 761 q 229 834 247 817 q 164 858 211 851 q 160 901 160 879 q 164 943 160 921 q 476 939 258 939 q 864 943 700 939 q 850 767 850 853 q 853 703 850 742 q 749 689 801 689 q 733 784 746 750 q 681 836 719 818 q 567 854 643 854 l 468 854 m 336 -321 q 262 -297 288 -321 q 236 -233 236 -274 q 272 -143 236 -176 q 364 -110 308 -110 q 438 -133 411 -110 q 464 -199 464 -157 q 428 -288 464 -256 q 336 -321 393 -321 m 360 1006 q 325 1038 339 1015 q 308 1081 311 1061 q 542 1231 407 1128 q 568 1232 550 1232 q 629 1222 604 1232 q 803 1050 674 1174 q 769 1027 792 1036 q 721 1015 747 1018 q 551 1100 628 1074 q 399 1026 496 1078 q 360 1006 376 1013 z "},"Ề":{"ha":850,"x_min":26,"x_max":864,"o":"m 468 854 l 411 518 l 453 518 q 558 539 528 518 q 597 622 588 560 q 663 628 625 628 q 696 626 685 628 q 664 458 676 553 q 649 303 653 383 q 556 322 594 306 q 535 408 558 381 q 443 435 513 435 l 397 435 l 361 226 q 354 156 354 190 q 376 99 354 113 q 453 85 397 85 l 476 85 q 583 103 542 85 q 652 163 624 122 q 708 272 681 203 q 764 257 740 267 q 808 231 788 247 q 740 -4 760 115 q 411 0 658 0 q 26 -4 125 0 q 44 82 29 43 q 106 101 86 86 q 136 145 126 117 q 157 238 146 174 l 240 722 q 247 783 247 761 q 229 834 247 817 q 164 858 211 851 q 160 901 160 879 q 164 943 160 921 q 476 939 258 939 q 864 943 700 939 q 850 767 850 853 q 853 703 850 742 q 749 689 801 689 q 733 784 746 750 q 681 836 719 818 q 567 854 643 854 l 468 854 z "},"Ể":{"ha":850,"x_min":26,"x_max":942,"o":"m 468 854 l 411 518 l 453 518 q 558 539 528 518 q 597 622 588 560 q 663 628 625 628 q 696 626 685 628 q 664 458 676 553 q 649 303 653 383 q 556 322 594 306 q 535 408 558 381 q 443 435 513 435 l 397 435 l 361 226 q 354 156 354 190 q 376 99 354 113 q 453 85 397 85 l 476 85 q 583 103 542 85 q 652 163 624 122 q 708 272 681 203 q 764 257 740 267 q 808 231 788 247 q 740 -4 760 115 q 411 0 658 0 q 26 -4 125 0 q 44 82 29 43 q 106 101 86 86 q 136 145 126 117 q 157 238 146 174 l 240 722 q 247 783 247 761 q 229 834 247 817 q 164 858 211 851 q 160 901 160 879 q 164 943 160 921 q 476 939 258 939 q 864 943 700 939 q 850 767 850 853 q 853 703 850 742 q 749 689 801 689 q 733 784 746 750 q 681 836 719 818 q 567 854 643 854 l 468 854 z "},"Ễ":{"ha":850,"x_min":26,"x_max":874,"o":"m 468 854 l 411 518 l 453 518 q 558 539 528 518 q 597 622 588 560 q 663 628 625 628 q 696 626 685 628 q 664 458 676 553 q 649 303 653 383 q 556 322 594 306 q 535 408 558 381 q 443 435 513 435 l 397 435 l 361 226 q 354 156 354 190 q 376 99 354 113 q 453 85 397 85 l 476 85 q 583 103 542 85 q 652 163 624 122 q 708 272 681 203 q 764 257 740 267 q 808 231 788 247 q 740 -4 760 115 q 411 0 658 0 q 26 -4 125 0 q 44 82 29 43 q 106 101 86 86 q 136 145 126 117 q 157 238 146 174 l 240 722 q 247 783 247 761 q 229 834 247 817 q 164 858 211 851 q 160 901 160 879 q 164 943 160 921 q 476 939 258 939 q 864 943 700 939 q 850 767 850 853 q 853 703 850 742 q 749 689 801 689 q 733 784 746 750 q 681 836 719 818 q 567 854 643 854 l 468 854 m 360 1006 q 325 1038 339 1015 q 308 1081 311 1061 q 542 1231 407 1128 q 568 1232 550 1232 q 629 1222 604 1232 q 803 1050 674 1174 q 769 1027 792 1036 q 721 1015 747 1018 q 551 1100 628 1074 q 399 1026 496 1078 q 360 1006 376 1013 m 671 1294 q 617 1303 639 1294 q 567 1328 594 1311 q 528 1348 544 1342 q 490 1354 511 1354 q 374 1297 439 1354 q 350 1368 350 1332 q 351 1389 350 1382 q 446 1452 396 1433 q 540 1471 496 1471 q 595 1463 572 1471 q 650 1439 618 1456 q 688 1422 672 1428 q 722 1415 704 1415 q 815 1467 767 1415 q 874 1414 858 1446 q 778 1324 829 1354 q 671 1294 726 1294 z "},"Ȅ":{"ha":850,"x_min":26,"x_max":864,"o":"m 468 854 l 411 518 l 453 518 q 558 539 528 518 q 597 622 588 560 q 663 628 625 628 q 696 626 685 628 q 664 458 676 553 q 649 303 653 383 q 556 322 594 306 q 535 408 558 381 q 443 435 513 435 l 397 435 l 361 226 q 354 156 354 190 q 376 99 354 113 q 453 85 397 85 l 476 85 q 583 103 542 85 q 652 163 624 122 q 708 272 681 203 q 764 257 740 267 q 808 231 788 247 q 740 -4 760 115 q 411 0 658 0 q 26 -4 125 0 q 44 82 29 43 q 106 101 86 86 q 136 145 126 117 q 157 238 146 174 l 240 722 q 247 783 247 761 q 229 834 247 817 q 164 858 211 851 q 160 901 160 879 q 164 943 160 921 q 476 939 258 939 q 864 943 700 939 q 850 767 850 853 q 853 703 850 742 q 749 689 801 689 q 733 784 746 750 q 681 836 719 818 q 567 854 643 854 l 468 854 m 653 1006 q 535 1182 582 1119 q 625 1194 572 1194 q 690 1189 649 1194 q 750 1004 722 1067 q 706 1001 722 1001 q 653 1006 682 1001 m 408 1006 q 282 1179 336 1114 q 383 1193 322 1193 q 446 1189 417 1193 q 506 1004 478 1067 q 461 1001 475 1001 q 408 1006 438 1001 z "},"Ë":{"ha":850,"x_min":26,"x_max":864,"o":"m 468 854 l 411 518 l 453 518 q 558 539 528 518 q 597 622 588 560 q 663 628 625 628 q 696 626 685 628 q 664 458 676 553 q 649 303 653 383 q 556 322 594 306 q 535 408 558 381 q 443 435 513 435 l 397 435 l 361 226 q 354 156 354 190 q 376 99 354 113 q 453 85 397 85 l 476 85 q 583 103 542 85 q 652 163 624 122 q 708 272 681 203 q 764 257 740 267 q 808 231 788 247 q 740 -4 760 115 q 411 0 658 0 q 26 -4 125 0 q 44 82 29 43 q 106 101 86 86 q 136 145 126 117 q 157 238 146 174 l 240 722 q 247 783 247 761 q 229 834 247 817 q 164 858 211 851 q 160 901 160 879 q 164 943 160 921 q 476 939 258 939 q 864 943 700 939 q 850 767 850 853 q 853 703 850 742 q 749 689 801 689 q 733 784 746 750 q 681 836 719 818 q 567 854 643 854 l 468 854 m 399 1007 q 328 1033 354 1007 q 303 1103 303 1060 q 401 1203 303 1203 q 472 1179 446 1203 q 499 1114 499 1156 q 497 1092 499 1100 q 399 1007 482 1007 m 700 1007 q 628 1033 654 1007 q 603 1103 603 1058 q 629 1177 603 1151 q 707 1203 656 1203 q 777 1178 751 1203 q 803 1111 803 1154 q 776 1034 803 1061 q 700 1007 749 1007 z "},"Ė":{"ha":850,"x_min":26,"x_max":864,"o":"m 468 854 l 411 518 l 453 518 q 558 539 528 518 q 597 622 588 560 q 663 628 625 628 q 696 626 685 628 q 664 458 676 553 q 649 303 653 383 q 556 322 594 306 q 535 408 558 381 q 443 435 513 435 l 397 435 l 361 226 q 354 156 354 190 q 376 99 354 113 q 453 85 397 85 l 476 85 q 583 103 542 85 q 652 163 624 122 q 708 272 681 203 q 764 257 740 267 q 808 231 788 247 q 740 -4 760 115 q 411 0 658 0 q 26 -4 125 0 q 44 82 29 43 q 106 101 86 86 q 136 145 126 117 q 157 238 146 174 l 240 722 q 247 783 247 761 q 229 834 247 817 q 164 858 211 851 q 160 901 160 879 q 164 943 160 921 q 476 939 258 939 q 864 943 700 939 q 850 767 850 853 q 853 703 850 742 q 749 689 801 689 q 733 784 746 750 q 681 836 719 818 q 567 854 643 854 l 468 854 m 533 997 q 463 1021 489 997 q 436 1085 436 1044 q 472 1166 436 1138 q 567 1194 507 1194 q 638 1170 611 1194 q 664 1106 664 1146 q 630 1024 664 1051 q 533 997 596 997 z "},"Ẹ":{"ha":850,"x_min":26,"x_max":864,"o":"m 468 854 l 411 518 l 453 518 q 558 539 528 518 q 597 622 588 560 q 663 628 625 628 q 696 626 685 628 q 664 458 676 553 q 649 303 653 383 q 556 322 594 306 q 535 408 558 381 q 443 435 513 435 l 397 435 l 361 226 q 354 156 354 190 q 376 99 354 113 q 453 85 397 85 l 476 85 q 583 103 542 85 q 652 163 624 122 q 708 272 681 203 q 764 257 740 267 q 808 231 788 247 q 740 -4 760 115 q 411 0 658 0 q 26 -4 125 0 q 44 82 29 43 q 106 101 86 86 q 136 145 126 117 q 157 238 146 174 l 240 722 q 247 783 247 761 q 229 834 247 817 q 164 858 211 851 q 160 901 160 879 q 164 943 160 921 q 476 939 258 939 q 864 943 700 939 q 850 767 850 853 q 853 703 850 742 q 749 689 801 689 q 733 784 746 750 q 681 836 719 818 q 567 854 643 854 l 468 854 m 336 -321 q 262 -297 288 -321 q 236 -233 236 -274 q 272 -143 236 -176 q 364 -110 308 -110 q 438 -133 411 -110 q 464 -199 464 -157 q 428 -288 464 -256 q 336 -321 393 -321 z "},"È":{"ha":850,"x_min":26,"x_max":864,"o":"m 468 854 l 411 518 l 453 518 q 558 539 528 518 q 597 622 588 560 q 663 628 625 628 q 696 626 685 628 q 664 458 676 553 q 649 303 653 383 q 556 322 594 306 q 535 408 558 381 q 443 435 513 435 l 397 435 l 361 226 q 354 156 354 190 q 376 99 354 113 q 453 85 397 85 l 476 85 q 583 103 542 85 q 652 163 624 122 q 708 272 681 203 q 764 257 740 267 q 808 231 788 247 q 740 -4 760 115 q 411 0 658 0 q 26 -4 125 0 q 44 82 29 43 q 106 101 86 86 q 136 145 126 117 q 157 238 146 174 l 240 722 q 247 783 247 761 q 229 834 247 817 q 164 858 211 851 q 160 901 160 879 q 164 943 160 921 q 476 939 258 939 q 864 943 700 939 q 850 767 850 853 q 853 703 850 742 q 749 689 801 689 q 733 784 746 750 q 681 836 719 818 q 567 854 643 854 l 468 854 m 610 1028 q 556 1021 586 1021 q 496 1029 521 1021 q 438 1111 476 1064 q 361 1197 399 1158 q 476 1213 415 1213 q 540 1207 513 1213 q 610 1028 571 1099 z "},"Ẻ":{"ha":850,"x_min":26,"x_max":864,"o":"m 468 854 l 411 518 l 453 518 q 558 539 528 518 q 597 622 588 560 q 663 628 625 628 q 696 626 685 628 q 664 458 676 553 q 649 303 653 383 q 556 322 594 306 q 535 408 558 381 q 443 435 513 435 l 397 435 l 361 226 q 354 156 354 190 q 376 99 354 113 q 453 85 397 85 l 476 85 q 583 103 542 85 q 652 163 624 122 q 708 272 681 203 q 764 257 740 267 q 808 231 788 247 q 740 -4 760 115 q 411 0 658 0 q 26 -4 125 0 q 44 82 29 43 q 106 101 86 86 q 136 145 126 117 q 157 238 146 174 l 240 722 q 247 783 247 761 q 229 834 247 817 q 164 858 211 851 q 160 901 160 879 q 164 943 160 921 q 476 939 258 939 q 864 943 700 939 q 850 767 850 853 q 853 703 850 742 q 749 689 801 689 q 733 784 746 750 q 681 836 719 818 q 567 854 643 854 l 468 854 m 493 1011 q 488 1042 488 1022 q 502 1085 488 1071 q 546 1115 517 1099 q 577 1135 567 1128 q 592 1154 588 1142 q 594 1167 594 1163 q 585 1182 594 1176 q 563 1188 576 1188 q 485 1107 508 1188 q 404 1125 428 1110 q 422 1211 422 1179 q 583 1247 500 1247 q 678 1227 644 1247 q 711 1174 711 1207 q 707 1149 711 1161 q 676 1099 697 1117 q 622 1064 656 1082 q 591 1046 600 1053 q 579 1029 582 1039 q 576 1006 575 1017 q 547 1003 560 1003 q 493 1011 514 1003 z "},"Ȇ":{"ha":850,"x_min":26,"x_max":864,"o":"m 468 854 l 411 518 l 453 518 q 558 539 528 518 q 597 622 588 560 q 663 628 625 628 q 696 626 685 628 q 664 458 676 553 q 649 303 653 383 q 556 322 594 306 q 535 408 558 381 q 443 435 513 435 l 397 435 l 361 226 q 354 156 354 190 q 376 99 354 113 q 453 85 397 85 l 476 85 q 583 103 542 85 q 652 163 624 122 q 708 272 681 203 q 764 257 740 267 q 808 231 788 247 q 740 -4 760 115 q 411 0 658 0 q 26 -4 125 0 q 44 82 29 43 q 106 101 86 86 q 136 145 126 117 q 157 238 146 174 l 240 722 q 247 783 247 761 q 229 834 247 817 q 164 858 211 851 q 160 901 160 879 q 164 943 160 921 q 476 939 258 939 q 864 943 700 939 q 850 767 850 853 q 853 703 850 742 q 749 689 801 689 q 733 784 746 750 q 681 836 719 818 q 567 854 643 854 l 468 854 m 590 1214 q 755 1174 699 1214 q 811 1058 811 1135 q 807 1014 811 1038 q 724 1000 768 1000 q 700 1001 708 1000 q 663 1072 701 1047 q 554 1097 624 1097 q 440 1072 485 1097 q 381 1001 394 1047 q 350 999 358 999 q 293 1010 315 999 q 388 1162 313 1110 q 590 1214 464 1214 z "},"Ē":{"ha":850,"x_min":26,"x_max":864,"o":"m 468 854 l 411 518 l 453 518 q 558 539 528 518 q 597 622 588 560 q 663 628 625 628 q 696 626 685 628 q 664 458 676 553 q 649 303 653 383 q 556 322 594 306 q 535 408 558 381 q 443 435 513 435 l 397 435 l 361 226 q 354 156 354 190 q 376 99 354 113 q 453 85 397 85 l 476 85 q 583 103 542 85 q 652 163 624 122 q 708 272 681 203 q 764 257 740 267 q 808 231 788 247 q 740 -4 760 115 q 411 0 658 0 q 26 -4 125 0 q 44 82 29 43 q 106 101 86 86 q 136 145 126 117 q 157 238 146 174 l 240 722 q 247 783 247 761 q 229 834 247 817 q 164 858 211 851 q 160 901 160 879 q 164 943 160 921 q 476 939 258 939 q 864 943 700 939 q 850 767 850 853 q 853 703 850 742 q 749 689 801 689 q 733 784 746 750 q 681 836 719 818 q 567 854 643 854 l 468 854 m 299 1063 q 311 1139 299 1113 l 804 1139 q 792 1069 804 1106 q 299 1063 503 1069 z "},"Ḗ":{"ha":850,"x_min":26,"x_max":864,"o":"m 468 854 l 411 518 l 453 518 q 558 539 528 518 q 597 622 588 560 q 663 628 625 628 q 696 626 685 628 q 664 458 676 553 q 649 303 653 383 q 556 322 594 306 q 535 408 558 381 q 443 435 513 435 l 397 435 l 361 226 q 354 156 354 190 q 376 99 354 113 q 453 85 397 85 l 476 85 q 583 103 542 85 q 652 163 624 122 q 708 272 681 203 q 764 257 740 267 q 808 231 788 247 q 740 -4 760 115 q 411 0 658 0 q 26 -4 125 0 q 44 82 29 43 q 106 101 86 86 q 136 145 126 117 q 157 238 146 174 l 240 722 q 247 783 247 761 q 229 834 247 817 q 164 858 211 851 q 160 901 160 879 q 164 943 160 921 q 476 939 258 939 q 864 943 700 939 q 850 767 850 853 q 853 703 850 742 q 749 689 801 689 q 733 784 746 750 q 681 836 719 818 q 567 854 643 854 l 468 854 m 299 1063 q 311 1139 299 1113 l 804 1139 q 792 1069 804 1106 q 299 1063 503 1069 m 571 1215 q 476 1250 518 1219 q 542 1340 511 1290 q 586 1422 572 1389 q 649 1425 607 1425 q 778 1404 732 1425 q 571 1215 651 1294 z "},"Ḕ":{"ha":850,"x_min":26,"x_max":864,"o":"m 468 854 l 411 518 l 453 518 q 558 539 528 518 q 597 622 588 560 q 663 628 625 628 q 696 626 685 628 q 664 458 676 553 q 649 303 653 383 q 556 322 594 306 q 535 408 558 381 q 443 435 513 435 l 397 435 l 361 226 q 354 156 354 190 q 376 99 354 113 q 453 85 397 85 l 476 85 q 583 103 542 85 q 652 163 624 122 q 708 272 681 203 q 764 257 740 267 q 808 231 788 247 q 740 -4 760 115 q 411 0 658 0 q 26 -4 125 0 q 44 82 29 43 q 106 101 86 86 q 136 145 126 117 q 157 238 146 174 l 240 722 q 247 783 247 761 q 229 834 247 817 q 164 858 211 851 q 160 901 160 879 q 164 943 160 921 q 476 939 258 939 q 864 943 700 939 q 850 767 850 853 q 853 703 850 742 q 749 689 801 689 q 733 784 746 750 q 681 836 719 818 q 567 854 643 854 l 468 854 m 299 1063 q 311 1139 299 1113 l 804 1139 q 792 1069 804 1106 q 299 1063 503 1069 m 649 1228 q 594 1221 625 1221 q 535 1229 560 1221 q 476 1311 515 1264 q 400 1397 438 1358 q 515 1413 454 1413 q 579 1407 551 1413 q 649 1228 610 1299 z "},"Ę":{"ha":850,"x_min":26,"x_max":864,"o":"m 468 854 l 411 518 l 453 518 q 558 539 528 518 q 597 622 588 560 q 663 628 625 628 q 696 626 685 628 q 664 458 676 553 q 649 303 653 383 q 556 322 594 306 q 535 408 558 381 q 443 435 513 435 l 397 435 l 361 226 q 354 156 354 190 q 376 99 354 113 q 453 85 397 85 l 476 85 q 583 103 542 85 q 652 163 624 122 q 708 272 681 203 q 764 257 740 267 q 808 231 788 247 q 740 -4 760 115 q 631 -1 679 -1 q 527 -65 563 -31 q 486 -135 492 -99 q 500 -184 483 -164 q 554 -204 517 -204 q 604 -194 583 -204 q 628 -271 628 -224 q 503 -344 560 -294 q 474 -346 492 -346 q 352 -314 399 -346 q 306 -218 306 -282 q 308 -186 306 -208 q 358 -90 318 -135 q 488 0 397 -44 l 411 0 q 26 -4 125 0 q 44 82 29 43 q 106 101 86 86 q 136 145 126 117 q 157 238 146 174 l 240 722 q 247 783 247 761 q 229 834 247 817 q 164 858 211 851 q 160 901 160 879 q 164 943 160 921 q 476 939 258 939 q 864 943 700 939 q 850 767 850 853 q 853 703 850 742 q 749 689 801 689 q 733 784 746 750 q 681 836 719 818 q 567 854 643 854 l 468 854 z "},"Ǝ":{"ha":840,"x_min":7,"x_max":917,"o":"m 608 939 q 917 943 810 939 q 909 897 915 921 q 893 858 903 872 q 828 840 851 854 q 794 799 806 826 q 772 721 783 772 l 675 225 q 665 147 665 181 q 682 98 665 113 q 740 81 699 83 q 733 -4 743 33 q 338 0 533 0 q 7 -3 143 0 q 15 140 15 94 q 8 238 15 186 q 114 260 47 260 q 140 156 122 193 q 195 102 157 119 q 306 85 233 85 l 322 85 q 397 98 369 85 q 442 142 425 111 q 469 233 458 174 l 507 429 l 465 429 q 359 406 392 429 q 308 319 326 383 q 214 311 274 308 q 250 475 232 382 q 276 632 263 542 q 369 615 336 629 q 365 579 365 594 q 391 526 365 540 q 481 511 417 511 l 524 511 l 592 858 l 494 858 q 333 810 388 858 q 254 681 278 763 q 157 721 192 690 q 195 827 175 761 q 226 943 215 893 q 608 939 322 939 z "},"Ẽ":{"ha":850,"x_min":26,"x_max":864,"o":"m 468 854 l 411 518 l 453 518 q 558 539 528 518 q 597 622 588 560 q 663 628 625 628 q 696 626 685 628 q 664 458 676 553 q 649 303 653 383 q 556 322 594 306 q 535 408 558 381 q 443 435 513 435 l 397 435 l 361 226 q 354 156 354 190 q 376 99 354 113 q 453 85 397 85 l 476 85 q 583 103 542 85 q 652 163 624 122 q 708 272 681 203 q 764 257 740 267 q 808 231 788 247 q 740 -4 760 115 q 411 0 658 0 q 26 -4 125 0 q 44 82 29 43 q 106 101 86 86 q 136 145 126 117 q 157 238 146 174 l 240 722 q 247 783 247 761 q 229 834 247 817 q 164 858 211 851 q 160 901 160 879 q 164 943 160 921 q 476 939 258 939 q 864 943 700 939 q 850 767 850 853 q 853 703 850 742 q 749 689 801 689 q 733 784 746 750 q 681 836 719 818 q 567 854 643 854 l 468 854 m 615 1029 q 561 1038 583 1029 q 511 1063 539 1046 q 472 1083 489 1076 q 435 1089 456 1089 q 318 1032 383 1089 q 294 1103 294 1067 q 296 1124 294 1117 q 390 1187 340 1168 q 485 1206 440 1206 q 540 1198 517 1206 q 594 1174 563 1190 q 633 1156 617 1163 q 667 1150 649 1150 q 760 1201 711 1150 q 818 1149 803 1181 q 722 1059 774 1089 q 615 1029 671 1029 z "},"Ʒ":{"ha":814,"x_min":28,"x_max":854,"o":"m 839 942 q 854 883 854 918 q 853 861 854 869 q 547 517 715 686 q 714 453 656 506 q 772 313 772 400 q 767 253 772 281 q 626 57 743 126 q 314 -12 508 -12 q 28 63 132 -12 q 49 174 40 111 q 58 285 57 236 q 128 292 93 292 q 182 288 157 292 q 181 251 181 275 q 214 119 181 158 q 322 81 247 81 q 474 130 411 81 q 551 263 536 179 q 556 303 556 283 q 322 450 556 442 q 308 517 308 475 q 311 544 308 528 q 456 688 379 604 q 603 858 533 771 l 468 858 q 378 842 414 858 q 312 782 342 825 q 251 660 282 739 q 142 697 174 668 q 186 815 165 747 q 217 942 207 883 q 543 939 278 939 q 839 942 747 939 z "},"Ǯ":{"ha":814,"x_min":28,"x_max":854,"o":"m 839 942 q 854 883 854 918 q 853 861 854 869 q 547 517 715 686 q 714 453 656 506 q 772 313 772 400 q 767 253 772 281 q 626 57 743 126 q 314 -12 508 -12 q 28 63 132 -12 q 49 174 40 111 q 58 285 57 236 q 128 292 93 292 q 182 288 157 292 q 181 251 181 275 q 214 119 181 158 q 322 81 247 81 q 474 130 411 81 q 551 263 536 179 q 556 303 556 283 q 322 450 556 442 q 308 517 308 475 q 311 544 308 528 q 456 688 379 604 q 603 858 533 771 l 468 858 q 378 842 414 858 q 312 782 342 825 q 251 660 282 739 q 142 697 174 668 q 186 815 165 747 q 217 942 207 883 q 543 939 278 939 q 839 942 747 939 m 492 1013 q 311 1175 414 1099 q 383 1236 329 1231 q 561 1151 463 1188 q 751 1236 651 1176 q 785 1213 769 1231 q 811 1175 801 1196 q 578 1025 667 1090 q 514 1011 550 1011 q 492 1013 499 1011 z "},"F":{"ha":797,"x_min":24,"x_max":858,"o":"m 858 943 q 846 761 846 843 q 847 703 846 721 q 743 689 799 689 q 727 784 740 750 q 676 836 714 818 q 561 854 638 854 l 467 854 l 401 471 l 460 471 q 565 492 535 471 q 604 575 594 513 q 664 582 636 582 q 703 579 675 582 q 671 413 683 504 q 656 253 661 343 q 563 272 596 257 q 542 361 565 335 q 450 388 519 388 l 388 388 l 361 231 q 353 160 353 188 q 376 106 353 121 q 468 81 399 92 q 472 33 472 60 q 471 -4 472 8 q 249 0 399 0 q 24 -4 93 0 q 42 81 28 47 q 102 99 82 86 q 133 140 122 111 q 154 231 143 168 l 239 721 q 246 785 246 763 q 228 836 246 819 q 165 858 211 853 q 161 906 161 879 q 164 943 161 918 q 475 939 258 939 q 858 943 693 939 z "},"G":{"ha":939,"x_min":69,"x_max":951,"o":"m 635 951 q 951 875 832 951 q 907 664 921 783 q 836 650 875 650 q 797 654 817 650 q 800 707 800 693 q 760 833 800 799 q 638 868 721 868 q 406 757 496 868 q 293 472 317 646 q 285 367 285 418 q 338 157 285 236 q 494 78 390 78 q 551 82 528 78 q 596 96 574 86 q 630 129 619 106 q 651 214 640 153 q 661 296 661 275 q 641 353 661 338 q 568 374 621 368 q 564 422 564 394 q 567 458 564 436 q 757 454 632 454 q 949 458 872 454 q 933 374 949 417 q 888 358 903 369 q 863 314 874 347 q 839 204 851 281 q 831 133 831 158 q 839 83 831 108 q 669 14 767 40 q 468 -12 572 -12 q 253 37 343 -12 q 117 176 164 86 q 69 383 69 265 q 78 482 69 431 q 184 743 101 638 q 385 900 267 849 q 635 951 504 951 z "},"Ğ":{"ha":939,"x_min":69,"x_max":951,"o":"m 635 951 q 951 875 832 951 q 907 664 921 783 q 836 650 875 650 q 797 654 817 650 q 800 707 800 693 q 760 833 800 799 q 638 868 721 868 q 406 757 496 868 q 293 472 317 646 q 285 367 285 418 q 338 157 285 236 q 494 78 390 78 q 551 82 528 78 q 596 96 574 86 q 630 129 619 106 q 651 214 640 153 q 661 296 661 275 q 641 353 661 338 q 568 374 621 368 q 564 422 564 394 q 567 458 564 436 q 757 454 632 454 q 949 458 872 454 q 933 374 949 417 q 888 358 903 369 q 863 314 874 347 q 839 204 851 281 q 831 133 831 158 q 839 83 831 108 q 669 14 767 40 q 468 -12 572 -12 q 253 37 343 -12 q 117 176 164 86 q 69 383 69 265 q 78 482 69 431 q 184 743 101 638 q 385 900 267 849 q 635 951 504 951 m 628 1007 q 462 1047 518 1007 q 406 1163 406 1086 q 410 1207 406 1185 q 493 1221 449 1221 q 517 1219 508 1221 q 554 1149 515 1174 q 663 1124 593 1124 q 777 1149 732 1124 q 836 1219 822 1174 q 867 1222 858 1222 q 924 1211 901 1222 q 830 1059 906 1111 q 628 1007 754 1007 z "},"Ǧ":{"ha":939,"x_min":69,"x_max":951,"o":"m 635 951 q 951 875 832 951 q 907 664 921 783 q 836 650 875 650 q 797 654 817 650 q 800 707 800 693 q 760 833 800 799 q 638 868 721 868 q 406 757 496 868 q 293 472 317 646 q 285 367 285 418 q 338 157 285 236 q 494 78 390 78 q 551 82 528 78 q 596 96 574 86 q 630 129 619 106 q 651 214 640 153 q 661 296 661 275 q 641 353 661 338 q 568 374 621 368 q 564 422 564 394 q 567 458 564 436 q 757 454 632 454 q 949 458 872 454 q 933 374 949 417 q 888 358 903 369 q 863 314 874 347 q 839 204 851 281 q 831 133 831 158 q 839 83 831 108 q 669 14 767 40 q 468 -12 572 -12 q 253 37 343 -12 q 117 176 164 86 q 69 383 69 265 q 78 482 69 431 q 184 743 101 638 q 385 900 267 849 q 635 951 504 951 m 597 1013 q 417 1175 519 1099 q 489 1236 435 1231 q 667 1151 568 1188 q 857 1236 757 1176 q 891 1213 875 1231 q 917 1175 907 1196 q 683 1025 772 1090 q 619 1011 656 1011 q 597 1013 604 1011 z "},"Ĝ":{"ha":939,"x_min":69,"x_max":951,"o":"m 635 951 q 951 875 832 951 q 907 664 921 783 q 836 650 875 650 q 797 654 817 650 q 800 707 800 693 q 760 833 800 799 q 638 868 721 868 q 406 757 496 868 q 293 472 317 646 q 285 367 285 418 q 338 157 285 236 q 494 78 390 78 q 551 82 528 78 q 596 96 574 86 q 630 129 619 106 q 651 214 640 153 q 661 296 661 275 q 641 353 661 338 q 568 374 621 368 q 564 422 564 394 q 567 458 564 436 q 757 454 632 454 q 949 458 872 454 q 933 374 949 417 q 888 358 903 369 q 863 314 874 347 q 839 204 851 281 q 831 133 831 158 q 839 83 831 108 q 669 14 767 40 q 468 -12 572 -12 q 253 37 343 -12 q 117 176 164 86 q 69 383 69 265 q 78 482 69 431 q 184 743 101 638 q 385 900 267 849 q 635 951 504 951 m 471 1006 q 436 1038 450 1015 q 419 1081 422 1061 q 653 1231 518 1128 q 679 1232 661 1232 q 740 1222 715 1232 q 914 1050 785 1174 q 881 1027 903 1036 q 832 1015 858 1018 q 663 1100 739 1074 q 510 1026 607 1078 q 471 1006 488 1013 z "},"Ģ":{"ha":939,"x_min":69,"x_max":951,"o":"m 635 951 q 951 875 832 951 q 907 664 921 783 q 836 650 875 650 q 797 654 817 650 q 800 707 800 693 q 760 833 800 799 q 638 868 721 868 q 406 757 496 868 q 293 472 317 646 q 285 367 285 418 q 338 157 285 236 q 494 78 390 78 q 551 82 528 78 q 596 96 574 86 q 630 129 619 106 q 651 214 640 153 q 661 296 661 275 q 641 353 661 338 q 568 374 621 368 q 564 422 564 394 q 567 458 564 436 q 757 454 632 454 q 949 458 872 454 q 933 374 949 417 q 888 358 903 369 q 863 314 874 347 q 839 204 851 281 q 831 133 831 158 q 839 83 831 108 q 669 14 767 40 q 468 -12 572 -12 q 253 37 343 -12 q 117 176 164 86 q 69 383 69 265 q 78 482 69 431 q 184 743 101 638 q 385 900 267 849 q 635 951 504 951 m 372 -415 q 315 -375 331 -407 q 373 -318 350 -349 q 400 -262 396 -287 q 336 -207 406 -215 q 369 -97 336 -146 q 521 -56 463 -90 q 558 -81 546 -64 q 569 -128 569 -99 q 567 -161 569 -136 q 372 -415 543 -306 z "},"Ġ":{"ha":939,"x_min":69,"x_max":951,"o":"m 635 951 q 951 875 832 951 q 907 664 921 783 q 836 650 875 650 q 797 654 817 650 q 800 707 800 693 q 760 833 800 799 q 638 868 721 868 q 406 757 496 868 q 293 472 317 646 q 285 367 285 418 q 338 157 285 236 q 494 78 390 78 q 551 82 528 78 q 596 96 574 86 q 630 129 619 106 q 651 214 640 153 q 661 296 661 275 q 641 353 661 338 q 568 374 621 368 q 564 422 564 394 q 567 458 564 436 q 757 454 632 454 q 949 458 872 454 q 933 374 949 417 q 888 358 903 369 q 863 314 874 347 q 839 204 851 281 q 831 133 831 158 q 839 83 831 108 q 669 14 767 40 q 468 -12 572 -12 q 253 37 343 -12 q 117 176 164 86 q 69 383 69 265 q 78 482 69 431 q 184 743 101 638 q 385 900 267 849 q 635 951 504 951 m 644 997 q 574 1021 600 997 q 547 1085 547 1044 q 583 1166 547 1138 q 678 1194 618 1194 q 749 1170 722 1194 q 775 1106 775 1146 q 741 1024 775 1051 q 644 997 707 997 z "},"Ḡ":{"ha":939,"x_min":69,"x_max":951,"o":"m 635 951 q 951 875 832 951 q 907 664 921 783 q 836 650 875 650 q 797 654 817 650 q 800 707 800 693 q 760 833 800 799 q 638 868 721 868 q 406 757 496 868 q 293 472 317 646 q 285 367 285 418 q 338 157 285 236 q 494 78 390 78 q 551 82 528 78 q 596 96 574 86 q 630 129 619 106 q 651 214 640 153 q 661 296 661 275 q 641 353 661 338 q 568 374 621 368 q 564 422 564 394 q 567 458 564 436 q 757 454 632 454 q 949 458 872 454 q 933 374 949 417 q 888 358 903 369 q 863 314 874 347 q 839 204 851 281 q 831 133 831 158 q 839 83 831 108 q 669 14 767 40 q 468 -12 572 -12 q 253 37 343 -12 q 117 176 164 86 q 69 383 69 265 q 78 482 69 431 q 184 743 101 638 q 385 900 267 849 q 635 951 504 951 m 410 1063 q 422 1139 410 1113 l 915 1139 q 903 1069 915 1106 q 410 1063 614 1069 z "},"Ǥ":{"ha":939,"x_min":69,"x_max":951,"o":"m 933 374 q 895 364 908 371 q 872 338 882 357 q 853 279 863 319 l 940 279 q 926 182 940 215 l 836 183 q 831 132 831 142 q 839 83 831 108 q 669 14 767 40 q 468 -12 572 -12 q 253 37 343 -12 q 117 176 164 86 q 69 383 69 265 q 78 482 69 431 q 184 743 101 638 q 385 900 267 849 q 635 951 504 951 q 951 875 832 951 q 907 664 921 783 q 836 650 875 650 q 797 654 817 650 q 800 707 800 693 q 760 833 800 799 q 638 868 721 868 q 406 757 496 868 q 293 472 317 646 q 285 367 285 418 q 338 157 285 236 q 494 78 390 78 q 551 82 528 78 q 596 96 574 86 q 626 123 617 106 q 646 183 636 140 l 485 179 q 499 279 485 242 l 660 279 q 655 335 663 317 q 628 362 647 354 q 568 374 608 369 q 564 422 564 394 q 567 458 564 436 q 757 454 632 454 q 949 458 872 454 q 933 374 949 417 z "},"Ȝ":{"ha":749,"x_min":-60,"x_max":751,"o":"m 747 715 q 648 549 729 619 q 428 426 567 478 q 618 372 549 425 q 688 214 688 318 q 681 146 688 185 q 585 -53 660 35 q 399 -189 510 -140 q 160 -237 288 -237 q 26 -220 83 -237 q -60 -172 -32 -203 q -14 -100 -50 -128 q 48 -131 4 -118 q 142 -144 92 -144 q 350 -66 261 -144 q 463 139 439 13 q 469 200 469 176 q 428 308 469 272 q 311 344 388 344 q 182 321 244 344 q 174 365 174 342 q 181 414 174 389 q 424 522 342 456 q 526 696 506 589 q 532 749 532 722 q 410 867 532 867 q 304 824 344 867 q 228 678 264 782 q 119 697 164 675 q 160 893 150 790 q 444 951 269 951 q 675 902 599 951 q 751 763 751 853 q 747 715 751 740 z "},"H":{"ha":1089,"x_min":26,"x_max":1122,"o":"m 917 939 q 1122 943 1053 939 q 1107 858 1122 897 q 1048 840 1067 851 q 1019 801 1029 828 q 997 713 1008 774 l 911 215 q 903 149 903 174 q 919 101 903 115 q 982 81 936 88 q 986 28 986 56 q 985 -4 986 7 q 786 0 917 0 q 579 -4 663 0 q 597 81 581 43 q 655 97 636 86 q 684 132 674 107 q 704 213 694 157 l 742 431 q 396 422 521 431 l 360 215 q 351 149 351 174 q 368 102 351 117 q 429 81 385 88 q 435 31 435 47 q 432 -4 435 21 q 233 0 364 0 q 26 -4 110 0 q 46 81 31 44 q 103 97 85 86 q 131 132 121 107 q 151 213 142 157 l 240 728 q 247 788 247 767 q 229 838 247 824 q 165 858 211 851 q 161 906 161 879 q 164 943 161 918 q 365 939 224 939 q 571 943 501 939 q 554 858 568 894 q 494 838 514 853 q 465 797 474 824 q 446 713 456 771 l 413 518 l 756 518 l 792 728 q 799 789 799 769 q 781 837 799 821 q 717 858 763 853 q 713 906 713 879 q 715 943 713 918 q 917 939 775 939 z "},"Ħ":{"ha":1089,"x_min":26,"x_max":1122,"o":"m 1107 858 q 1049 841 1068 853 q 1019 801 1029 829 q 997 713 1008 774 l 996 708 l 1081 708 q 1064 625 1081 665 l 982 625 l 911 215 q 903 150 903 163 q 920 102 903 118 q 982 81 938 86 q 986 28 986 56 q 985 -4 986 7 q 786 0 917 0 q 579 -4 663 0 q 597 81 581 43 q 655 97 636 86 q 684 132 674 107 q 704 213 694 157 l 742 431 q 396 422 521 431 l 360 215 q 351 149 351 174 q 368 102 351 117 q 429 81 385 88 q 435 31 435 47 q 432 -4 435 21 q 233 0 364 0 q 26 -4 110 0 q 46 81 31 44 q 104 99 85 86 q 133 137 124 113 q 151 213 142 161 l 222 621 l 133 619 q 139 666 133 642 q 151 708 144 690 l 238 708 l 240 728 q 246 788 246 775 q 229 836 246 821 q 165 858 213 851 q 161 906 161 879 q 164 943 161 918 q 365 939 224 939 q 571 943 501 939 q 554 858 568 894 q 497 841 515 853 q 467 801 478 829 q 446 713 457 774 l 444 708 l 789 708 l 792 728 q 797 789 797 761 q 781 837 797 822 q 717 858 764 851 q 713 906 713 879 q 715 943 713 918 q 917 939 775 939 q 1122 943 1053 939 q 1107 858 1122 897 m 774 625 l 431 624 l 413 518 l 756 518 l 774 625 z "},"Ḫ":{"ha":1089,"x_min":26,"x_max":1122,"o":"m 917 939 q 1122 943 1053 939 q 1107 858 1122 897 q 1048 840 1067 851 q 1019 801 1029 828 q 997 713 1008 774 l 911 215 q 903 149 903 174 q 919 101 903 115 q 982 81 936 88 q 986 28 986 56 q 985 -4 986 7 q 786 0 917 0 q 579 -4 663 0 q 597 81 581 43 q 655 97 636 86 q 684 132 674 107 q 704 213 694 157 l 742 431 q 396 422 521 431 l 360 215 q 351 149 351 174 q 368 102 351 117 q 429 81 385 88 q 435 31 435 47 q 432 -4 435 21 q 233 0 364 0 q 26 -4 110 0 q 46 81 31 44 q 103 97 85 86 q 131 132 121 107 q 151 213 142 157 l 240 728 q 247 788 247 767 q 229 838 247 824 q 165 858 211 851 q 161 906 161 879 q 164 943 161 918 q 365 939 224 939 q 571 943 501 939 q 554 858 568 894 q 494 838 514 853 q 465 797 474 824 q 446 713 456 771 l 413 518 l 756 518 l 792 728 q 799 789 799 769 q 781 837 799 821 q 717 858 763 853 q 713 906 713 879 q 715 943 713 918 q 917 939 775 939 z "},"Ȟ":{"ha":1089,"x_min":26,"x_max":1122,"o":"m 917 939 q 1122 943 1053 939 q 1107 858 1122 897 q 1048 840 1067 851 q 1019 801 1029 828 q 997 713 1008 774 l 911 215 q 903 149 903 174 q 919 101 903 115 q 982 81 936 88 q 986 28 986 56 q 985 -4 986 7 q 786 0 917 0 q 579 -4 663 0 q 597 81 581 43 q 655 97 636 86 q 684 132 674 107 q 704 213 694 157 l 742 431 q 396 422 521 431 l 360 215 q 351 149 351 174 q 368 102 351 117 q 429 81 385 88 q 435 31 435 47 q 432 -4 435 21 q 233 0 364 0 q 26 -4 110 0 q 46 81 31 44 q 103 97 85 86 q 131 132 121 107 q 151 213 142 157 l 240 728 q 247 788 247 767 q 229 838 247 824 q 165 858 211 851 q 161 906 161 879 q 164 943 161 918 q 365 939 224 939 q 571 943 501 939 q 554 858 568 894 q 494 838 514 853 q 465 797 474 824 q 446 713 456 771 l 413 518 l 756 518 l 792 728 q 799 789 799 769 q 781 837 799 821 q 717 858 763 853 q 713 906 713 879 q 715 943 713 918 q 917 939 775 939 m 607 1013 q 426 1175 529 1099 q 499 1236 444 1231 q 676 1151 578 1188 q 867 1236 767 1176 q 901 1213 885 1231 q 926 1175 917 1196 q 693 1025 782 1090 q 629 1011 665 1011 q 607 1013 614 1011 z "},"Ĥ":{"ha":1089,"x_min":26,"x_max":1122,"o":"m 917 939 q 1122 943 1053 939 q 1107 858 1122 897 q 1048 840 1067 851 q 1019 801 1029 828 q 997 713 1008 774 l 911 215 q 903 149 903 174 q 919 101 903 115 q 982 81 936 88 q 986 28 986 56 q 985 -4 986 7 q 786 0 917 0 q 579 -4 663 0 q 597 81 581 43 q 655 97 636 86 q 684 132 674 107 q 704 213 694 157 l 742 431 q 396 422 521 431 l 360 215 q 351 149 351 174 q 368 102 351 117 q 429 81 385 88 q 435 31 435 47 q 432 -4 435 21 q 233 0 364 0 q 26 -4 110 0 q 46 81 31 44 q 103 97 85 86 q 131 132 121 107 q 151 213 142 157 l 240 728 q 247 788 247 767 q 229 838 247 824 q 165 858 211 851 q 161 906 161 879 q 164 943 161 918 q 365 939 224 939 q 571 943 501 939 q 554 858 568 894 q 494 838 514 853 q 465 797 474 824 q 446 713 456 771 l 413 518 l 756 518 l 792 728 q 799 789 799 769 q 781 837 799 821 q 717 858 763 853 q 713 906 713 879 q 715 943 713 918 q 917 939 775 939 m 481 1006 q 446 1038 460 1015 q 429 1081 432 1061 q 663 1231 528 1128 q 689 1232 671 1232 q 750 1222 725 1232 q 924 1050 794 1174 q 890 1027 913 1036 q 842 1015 868 1018 q 672 1100 749 1074 q 519 1026 617 1078 q 481 1006 497 1013 z "},"Ḥ":{"ha":1089,"x_min":26,"x_max":1122,"o":"m 917 939 q 1122 943 1053 939 q 1107 858 1122 897 q 1048 840 1067 851 q 1019 801 1029 828 q 997 713 1008 774 l 911 215 q 903 149 903 174 q 919 101 903 115 q 982 81 936 88 q 986 28 986 56 q 985 -4 986 7 q 786 0 917 0 q 579 -4 663 0 q 597 81 581 43 q 655 97 636 86 q 684 132 674 107 q 704 213 694 157 l 742 431 q 396 422 521 431 l 360 215 q 351 149 351 174 q 368 102 351 117 q 429 81 385 88 q 435 31 435 47 q 432 -4 435 21 q 233 0 364 0 q 26 -4 110 0 q 46 81 31 44 q 103 97 85 86 q 131 132 121 107 q 151 213 142 157 l 240 728 q 247 788 247 767 q 229 838 247 824 q 165 858 211 851 q 161 906 161 879 q 164 943 161 918 q 365 939 224 939 q 571 943 501 939 q 554 858 568 894 q 494 838 514 853 q 465 797 474 824 q 446 713 456 771 l 413 518 l 756 518 l 792 728 q 799 789 799 769 q 781 837 799 821 q 717 858 763 853 q 713 906 713 879 q 715 943 713 918 q 917 939 775 939 m 443 -321 q 369 -297 394 -321 q 343 -233 343 -274 q 379 -143 343 -176 q 471 -110 415 -110 q 544 -133 518 -110 q 571 -199 571 -157 q 535 -288 571 -256 q 443 -321 500 -321 z "},"I":{"ha":538,"x_min":26,"x_max":571,"o":"m 240 728 q 247 789 247 769 q 229 837 247 821 q 165 858 211 853 q 161 906 161 879 q 164 943 161 918 q 365 939 224 939 q 571 943 501 939 q 554 858 568 894 q 497 841 515 853 q 467 801 478 829 q 446 713 457 774 l 360 215 q 351 146 351 160 q 368 103 351 118 q 429 81 385 88 q 435 31 435 47 q 432 -4 435 21 q 233 0 364 0 q 26 -4 110 0 q 46 81 31 44 q 103 97 85 86 q 131 132 121 107 q 151 213 142 157 l 240 728 z "},"Ĳ":{"ha":982,"x_min":101,"x_max":1057,"o":"m 343 -343 q 103 -250 214 -343 q 101 -222 101 -240 q 124 -118 101 -161 q 276 -162 196 -146 q 432 -178 357 -178 q 521 -158 490 -178 q 571 -79 551 -137 q 613 106 590 -21 q 637 234 629 201 q 664 311 644 267 l 660 311 q 567 164 625 239 q 438 39 510 89 q 294 -11 365 -11 q 163 192 163 -11 q 190 435 163 276 l 242 724 q 249 785 249 765 q 230 836 249 821 q 161 858 211 851 q 156 907 156 886 q 158 943 156 918 q 364 939 219 939 q 574 943 503 939 q 558 858 574 897 q 499 841 518 853 q 469 802 481 829 q 446 713 458 775 l 388 425 q 361 231 361 290 q 413 138 361 138 q 524 210 460 138 q 644 418 589 283 q 725 728 700 553 q 731 789 731 761 q 713 838 731 824 q 644 858 694 851 q 639 910 639 881 q 640 943 639 932 q 846 939 694 939 q 1057 943 957 939 q 1043 858 1054 892 q 982 841 1001 853 q 951 801 963 829 q 926 708 939 772 l 831 203 q 733 -76 801 47 q 563 -272 664 -200 q 343 -343 463 -343 z "},"Í":{"ha":538,"x_min":26,"x_max":585,"o":"m 240 728 q 247 789 247 769 q 229 837 247 821 q 165 858 211 853 q 161 906 161 879 q 164 943 161 918 q 365 939 224 939 q 571 943 501 939 q 554 858 568 894 q 497 841 515 853 q 467 801 478 829 q 446 713 457 774 l 360 215 q 351 146 351 160 q 368 103 351 118 q 429 81 385 88 q 435 31 435 47 q 432 -4 435 21 q 233 0 364 0 q 26 -4 110 0 q 46 81 31 44 q 103 97 85 86 q 131 132 121 107 q 151 213 142 157 l 240 728 m 378 1015 q 283 1050 325 1019 q 349 1140 318 1090 q 393 1222 379 1189 q 456 1225 414 1225 q 585 1204 539 1225 q 378 1015 458 1094 z "},"Ĭ":{"ha":538,"x_min":26,"x_max":613,"o":"m 367 990 q 228 1031 275 990 q 182 1150 182 1072 q 188 1206 182 1167 q 218 1208 207 1208 q 274 1197 250 1208 q 390 1107 281 1107 q 492 1138 450 1107 q 544 1217 533 1168 q 613 1188 592 1213 q 367 990 579 990 m 240 728 q 247 789 247 769 q 229 837 247 821 q 165 858 211 853 q 161 906 161 879 q 164 943 161 918 q 365 939 224 939 q 571 943 501 939 q 554 858 568 894 q 497 841 515 853 q 467 801 478 829 q 446 713 457 774 l 360 215 q 351 146 351 160 q 368 103 351 118 q 429 81 385 88 q 435 31 435 47 q 432 -4 435 21 q 233 0 364 0 q 26 -4 110 0 q 46 81 31 44 q 103 97 85 86 q 131 132 121 107 q 151 213 142 157 l 240 728 z "},"Ǐ":{"ha":538,"x_min":26,"x_max":607,"o":"m 188 1181 q 234 1203 206 1194 q 288 1214 263 1213 q 407 1124 351 1157 q 544 1222 483 1171 q 607 1147 593 1199 q 511 1076 565 1119 q 408 990 457 1032 q 367 989 394 989 q 321 993 338 989 l 188 1181 m 240 728 q 247 789 247 769 q 229 837 247 821 q 165 858 211 853 q 161 906 161 879 q 164 943 161 918 q 365 939 224 939 q 571 943 501 939 q 554 858 568 894 q 497 841 515 853 q 467 801 478 829 q 446 713 457 774 l 360 215 q 351 146 351 160 q 368 103 351 118 q 429 81 385 88 q 435 31 435 47 q 432 -4 435 21 q 233 0 364 0 q 26 -4 110 0 q 46 81 31 44 q 103 97 85 86 q 131 132 121 107 q 151 213 142 157 l 240 728 z "},"Î":{"ha":538,"x_min":26,"x_max":607,"o":"m 249 981 q 186 1057 197 1008 q 275 1121 229 1083 q 385 1214 321 1158 q 431 1217 415 1217 q 474 1211 458 1217 q 607 1024 517 1147 q 560 999 589 1008 q 506 990 531 990 q 388 1079 454 1038 q 249 981 310 1033 m 240 728 q 247 789 247 769 q 229 837 247 821 q 165 858 211 853 q 161 906 161 879 q 164 943 161 918 q 365 939 224 939 q 571 943 501 939 q 554 858 568 894 q 497 841 515 853 q 467 801 478 829 q 446 713 457 774 l 360 215 q 351 146 351 160 q 368 103 351 118 q 429 81 385 88 q 435 31 435 47 q 432 -4 435 21 q 233 0 364 0 q 26 -4 110 0 q 46 81 31 44 q 103 97 85 86 q 131 132 121 107 q 151 213 142 157 l 240 728 z "},"Ȉ":{"ha":538,"x_min":26,"x_max":574,"o":"m 240 728 q 247 789 247 769 q 229 837 247 821 q 165 858 211 853 q 161 906 161 879 q 164 943 161 918 q 365 939 224 939 q 571 943 501 939 q 554 858 568 894 q 497 841 515 853 q 467 801 478 829 q 446 713 457 774 l 360 215 q 351 146 351 160 q 368 103 351 118 q 429 81 385 88 q 435 31 435 47 q 432 -4 435 21 q 233 0 364 0 q 26 -4 110 0 q 46 81 31 44 q 103 97 85 86 q 131 132 121 107 q 151 213 142 157 l 240 728 m 476 1006 q 439 1074 471 1017 q 372 1182 407 1132 q 458 1194 407 1194 q 521 1189 482 1194 q 574 1004 544 1078 q 529 1001 546 1001 q 476 1006 506 1001 m 246 1006 q 188 1097 218 1051 q 129 1179 158 1142 q 229 1193 169 1193 q 289 1189 260 1193 q 343 1004 317 1069 q 297 1001 313 1001 q 246 1006 272 1001 z "},"Ï":{"ha":538,"x_min":26,"x_max":633,"o":"m 254 1004 q 185 1028 211 1004 q 160 1089 160 1053 q 189 1159 160 1129 q 274 1189 218 1189 q 345 1166 321 1189 q 369 1106 369 1143 q 367 1078 369 1097 q 328 1025 360 1046 q 254 1004 297 1004 m 521 1004 q 449 1027 474 1004 q 424 1089 424 1050 q 426 1117 424 1107 q 463 1170 432 1151 q 538 1189 493 1189 q 607 1165 581 1189 q 633 1104 633 1142 q 606 1034 633 1064 q 521 1004 578 1004 m 240 728 q 247 789 247 769 q 229 837 247 821 q 165 858 211 853 q 161 906 161 879 q 164 943 161 918 q 365 939 224 939 q 571 943 501 939 q 554 858 568 894 q 497 841 515 853 q 467 801 478 829 q 446 713 457 774 l 360 215 q 351 146 351 160 q 368 103 351 118 q 429 81 385 88 q 435 31 435 47 q 432 -4 435 21 q 233 0 364 0 q 26 -4 110 0 q 46 81 31 44 q 103 97 85 86 q 131 132 121 107 q 151 213 142 157 l 240 728 z "},"Ḯ":{"ha":538,"x_min":26,"x_max":633,"o":"m 413 1215 q 318 1251 360 1222 q 383 1339 353 1290 q 429 1422 414 1388 q 492 1426 461 1426 q 621 1404 572 1426 q 413 1215 500 1300 m 254 1004 q 185 1028 211 1004 q 160 1089 160 1053 q 189 1159 160 1129 q 274 1189 218 1189 q 345 1166 321 1189 q 369 1106 369 1143 q 367 1078 369 1097 q 328 1025 360 1046 q 254 1004 297 1004 m 521 1004 q 449 1027 474 1004 q 424 1089 424 1050 q 426 1117 424 1107 q 463 1170 432 1151 q 538 1189 493 1189 q 607 1165 581 1189 q 633 1104 633 1142 q 606 1034 633 1064 q 521 1004 578 1004 m 240 728 q 247 789 247 769 q 229 837 247 821 q 165 858 211 853 q 161 906 161 879 q 164 943 161 918 q 365 939 224 939 q 571 943 501 939 q 554 858 568 894 q 497 841 515 853 q 467 801 478 829 q 446 713 457 774 l 360 215 q 351 146 351 160 q 368 103 351 118 q 429 81 385 88 q 435 31 435 47 q 432 -4 435 21 q 233 0 364 0 q 26 -4 110 0 q 46 81 31 44 q 103 97 85 86 q 131 132 121 107 q 151 213 142 157 l 240 728 z "},"İ":{"ha":538,"x_min":26,"x_max":571,"o":"m 240 728 q 247 789 247 769 q 229 837 247 821 q 165 858 211 853 q 161 906 161 879 q 164 943 161 918 q 365 939 224 939 q 571 943 501 939 q 554 858 568 894 q 497 841 515 853 q 467 801 478 829 q 446 713 457 774 l 360 215 q 351 146 351 160 q 368 103 351 118 q 429 81 385 88 q 435 31 435 47 q 432 -4 435 21 q 233 0 364 0 q 26 -4 110 0 q 46 81 31 44 q 103 97 85 86 q 131 132 121 107 q 151 213 142 157 l 240 728 m 379 997 q 308 1021 335 997 q 282 1085 282 1044 q 317 1166 282 1138 q 413 1194 353 1194 q 483 1170 457 1194 q 510 1106 510 1146 q 476 1024 510 1051 q 379 997 442 997 z "},"Ị":{"ha":538,"x_min":26,"x_max":571,"o":"m 240 728 q 247 789 247 769 q 229 837 247 821 q 165 858 211 853 q 161 906 161 879 q 164 943 161 918 q 365 939 224 939 q 571 943 501 939 q 554 858 568 894 q 497 841 515 853 q 467 801 478 829 q 446 713 457 774 l 360 215 q 351 146 351 160 q 368 103 351 118 q 429 81 385 88 q 435 31 435 47 q 432 -4 435 21 q 233 0 364 0 q 26 -4 110 0 q 46 81 31 44 q 103 97 85 86 q 131 132 121 107 q 151 213 142 157 l 240 728 m 167 -321 q 92 -297 118 -321 q 67 -233 67 -274 q 103 -143 67 -176 q 194 -110 139 -110 q 268 -133 242 -110 q 294 -199 294 -157 q 259 -288 294 -256 q 167 -321 224 -321 z "},"Ì":{"ha":538,"x_min":26,"x_max":571,"o":"m 240 728 q 247 789 247 769 q 229 837 247 821 q 165 858 211 853 q 161 906 161 879 q 164 943 161 918 q 365 939 224 939 q 571 943 501 939 q 554 858 568 894 q 497 841 515 853 q 467 801 478 829 q 446 713 457 774 l 360 215 q 351 146 351 160 q 368 103 351 118 q 429 81 385 88 q 435 31 435 47 q 432 -4 435 21 q 233 0 364 0 q 26 -4 110 0 q 46 81 31 44 q 103 97 85 86 q 131 132 121 107 q 151 213 142 157 l 240 728 m 454 1028 q 400 1021 431 1021 q 340 1029 365 1021 q 282 1111 321 1064 q 206 1197 243 1158 q 321 1213 260 1213 q 385 1207 357 1213 q 454 1028 415 1099 z "},"Ỉ":{"ha":538,"x_min":26,"x_max":571,"o":"m 240 728 q 247 789 247 769 q 229 837 247 821 q 165 858 211 853 q 161 906 161 879 q 164 943 161 918 q 365 939 224 939 q 571 943 501 939 q 554 858 568 894 q 497 841 515 853 q 467 801 478 829 q 446 713 457 774 l 360 215 q 351 146 351 160 q 368 103 351 118 q 429 81 385 88 q 435 31 435 47 q 432 -4 435 21 q 233 0 364 0 q 26 -4 110 0 q 46 81 31 44 q 103 97 85 86 q 131 132 121 107 q 151 213 142 157 l 240 728 m 338 1011 q 332 1042 332 1022 q 347 1085 332 1071 q 390 1115 361 1099 q 422 1135 411 1128 q 436 1154 432 1142 q 439 1167 439 1163 q 430 1182 439 1176 q 407 1188 421 1188 q 329 1107 353 1188 q 249 1125 272 1110 q 267 1211 267 1179 q 428 1247 344 1247 q 522 1227 489 1247 q 556 1174 556 1207 q 551 1149 556 1161 q 521 1099 542 1117 q 467 1064 500 1082 q 435 1046 444 1053 q 424 1029 426 1039 q 421 1006 419 1017 q 392 1003 404 1003 q 338 1011 358 1003 z "},"Ȋ":{"ha":538,"x_min":26,"x_max":611,"o":"m 240 728 q 247 789 247 769 q 229 837 247 821 q 165 858 211 853 q 161 906 161 879 q 164 943 161 918 q 365 939 224 939 q 571 943 501 939 q 554 858 568 894 q 497 841 515 853 q 467 801 478 829 q 446 713 457 774 l 360 215 q 351 146 351 160 q 368 103 351 118 q 429 81 385 88 q 435 31 435 47 q 432 -4 435 21 q 233 0 364 0 q 26 -4 110 0 q 46 81 31 44 q 103 97 85 86 q 131 132 121 107 q 151 213 142 157 l 240 728 m 426 1210 q 565 1169 518 1210 q 611 1051 611 1128 q 606 994 611 1022 q 576 992 589 992 q 521 1003 543 992 q 488 1071 517 1049 q 403 1093 460 1093 q 302 1063 343 1093 q 250 983 261 1032 q 181 1013 201 989 q 426 1210 217 1210 z "},"Ī":{"ha":538,"x_min":26,"x_max":614,"o":"m 178 1049 q 185 1099 179 1075 q 203 1136 192 1124 l 614 1136 q 593 1056 611 1088 q 178 1049 331 1056 m 240 728 q 247 789 247 769 q 229 837 247 821 q 165 858 211 853 q 161 906 161 879 q 164 943 161 918 q 365 939 224 939 q 571 943 501 939 q 554 858 568 894 q 497 841 515 853 q 467 801 478 829 q 446 713 457 774 l 360 215 q 351 146 351 160 q 368 103 351 118 q 429 81 385 88 q 435 31 435 47 q 432 -4 435 21 q 233 0 364 0 q 26 -4 110 0 q 46 81 31 44 q 103 97 85 86 q 131 132 121 107 q 151 213 142 157 l 240 728 z "},"Į":{"ha":538,"x_min":21,"x_max":571,"o":"m 365 939 q 571 943 501 939 q 554 858 568 894 q 497 841 515 853 q 467 801 478 829 q 446 713 457 774 l 360 215 q 351 146 351 160 q 368 103 351 118 q 429 81 385 88 q 435 31 435 47 q 432 -4 435 21 q 347 -1 374 -1 q 243 -64 279 -29 q 201 -135 207 -99 q 215 -184 199 -164 q 269 -204 232 -204 q 319 -194 296 -204 q 343 -271 343 -224 q 218 -344 275 -294 q 189 -346 207 -346 q 67 -314 114 -346 q 21 -218 21 -282 q 24 -186 21 -208 q 73 -90 33 -135 q 201 0 113 -44 q 26 -4 100 0 q 46 81 31 44 q 103 97 85 86 q 131 132 121 107 q 151 213 142 157 l 240 728 q 247 788 247 767 q 229 838 247 824 q 165 858 211 851 q 161 906 161 879 q 164 943 161 918 q 365 939 224 939 z "},"Ĩ":{"ha":538,"x_min":26,"x_max":632,"o":"m 458 1013 q 406 1020 425 1013 q 367 1043 388 1028 q 340 1060 351 1054 q 310 1065 328 1065 q 256 1053 283 1065 q 193 1017 228 1040 q 171 1051 178 1035 q 165 1090 164 1068 q 259 1174 215 1150 q 346 1197 303 1197 q 393 1190 375 1197 q 431 1168 411 1182 q 459 1151 449 1156 q 486 1146 469 1146 q 537 1159 510 1146 q 582 1194 564 1172 q 632 1126 622 1168 q 553 1040 594 1067 q 458 1013 511 1013 m 240 728 q 247 789 247 769 q 229 837 247 821 q 165 858 211 853 q 161 906 161 879 q 164 943 161 918 q 365 939 224 939 q 571 943 501 939 q 554 858 568 894 q 497 841 515 853 q 467 801 478 829 q 446 713 457 774 l 360 215 q 351 146 351 160 q 368 103 351 118 q 429 81 385 88 q 435 31 435 47 q 432 -4 435 21 q 233 0 364 0 q 26 -4 110 0 q 46 81 31 44 q 103 97 85 86 q 131 132 121 107 q 151 213 142 157 l 240 728 z "},"J":{"ha":483,"x_min":-100,"x_max":558,"o":"m 150 943 q 351 939 203 939 q 558 943 463 939 q 544 858 557 899 q 485 841 504 853 q 453 801 465 829 q 431 708 442 772 l 336 171 q 273 -60 311 29 q 156 -217 235 -149 q -67 -343 76 -286 q -100 -258 -97 -319 q 42 -126 -7 -203 q 114 78 92 -49 l 226 729 q 233 792 233 774 q 216 839 233 825 q 153 858 199 853 q 147 906 147 879 q 150 943 147 918 z "},"Ĵ":{"ha":483,"x_min":-100,"x_max":586,"o":"m 228 981 q 167 1057 178 1008 q 364 1214 229 1097 q 411 1217 397 1217 q 453 1211 438 1217 l 528 1106 l 586 1024 q 540 999 568 1008 q 486 990 511 990 q 368 1079 435 1038 q 228 981 290 1035 m 150 943 q 351 939 203 939 q 558 943 463 939 q 544 858 557 899 q 485 841 504 853 q 453 801 465 829 q 431 708 442 772 l 336 171 q 273 -60 311 29 q 156 -217 235 -149 q -67 -343 76 -286 q -100 -258 -97 -319 q 42 -126 -7 -203 q 114 78 92 -49 l 226 729 q 233 792 233 774 q 216 839 233 825 q 153 858 199 853 q 147 906 147 879 q 150 943 147 918 z "},"K":{"ha":993,"x_min":26,"x_max":1031,"o":"m 1017 857 q 914 828 956 850 q 797 739 872 806 l 561 531 q 669 397 619 472 q 763 221 718 322 q 802 154 783 171 q 844 138 821 138 q 901 157 876 138 q 927 126 915 146 q 944 88 939 107 q 738 -12 856 -12 q 628 21 669 -12 q 561 133 588 54 q 488 307 526 233 q 399 446 450 381 l 358 213 q 351 144 351 178 q 365 99 351 111 q 415 81 379 86 q 421 31 421 47 q 418 -4 421 21 q 233 0 350 0 q 26 -4 110 0 q 46 81 31 44 q 104 98 85 85 q 133 139 124 111 q 154 228 143 167 l 240 728 q 247 789 247 769 q 230 836 247 821 q 165 858 213 851 q 161 906 161 879 q 164 943 161 918 q 365 939 224 939 q 571 943 501 939 q 554 858 568 894 q 497 840 515 851 q 467 801 478 828 q 446 713 457 774 l 411 514 l 657 736 q 719 797 700 774 q 738 833 738 819 q 706 858 738 850 q 700 914 700 881 q 701 943 700 933 q 865 939 757 939 q 1031 943 967 939 q 1017 857 1031 893 z "},"Ǩ":{"ha":993,"x_min":26,"x_max":1031,"o":"m 1017 857 q 914 828 956 850 q 797 739 872 806 l 561 531 q 669 397 619 472 q 763 221 718 322 q 802 154 783 171 q 844 138 821 138 q 901 157 876 138 q 927 126 915 146 q 944 88 939 107 q 738 -12 856 -12 q 628 21 669 -12 q 561 133 588 54 q 488 307 526 233 q 399 446 450 381 l 358 213 q 351 144 351 178 q 365 99 351 111 q 415 81 379 86 q 421 31 421 47 q 418 -4 421 21 q 233 0 350 0 q 26 -4 110 0 q 46 81 31 44 q 104 98 85 85 q 133 139 124 111 q 154 228 143 167 l 240 728 q 247 789 247 769 q 230 836 247 821 q 165 858 213 851 q 161 906 161 879 q 164 943 161 918 q 365 939 224 939 q 571 943 501 939 q 554 858 568 894 q 497 840 515 851 q 467 801 478 828 q 446 713 457 774 l 411 514 l 657 736 q 719 797 700 774 q 738 833 738 819 q 706 858 738 850 q 700 914 700 881 q 701 943 700 933 q 865 939 757 939 q 1031 943 967 939 q 1017 857 1031 893 m 594 1013 q 414 1175 517 1099 q 486 1236 432 1231 q 664 1151 565 1188 q 854 1236 754 1176 q 888 1213 872 1231 q 914 1175 904 1196 q 681 1025 769 1090 q 617 1011 653 1011 q 594 1013 601 1011 z "},"Ķ":{"ha":993,"x_min":26,"x_max":1031,"o":"m 1017 857 q 914 828 956 850 q 797 739 872 806 l 561 531 q 669 397 619 472 q 763 221 718 322 q 802 154 783 171 q 844 138 821 138 q 901 157 876 138 q 927 126 915 146 q 944 88 939 107 q 738 -12 856 -12 q 628 21 669 -12 q 561 133 588 54 q 488 307 526 233 q 399 446 450 381 l 358 213 q 351 144 351 178 q 365 99 351 111 q 415 81 379 86 q 421 31 421 47 q 418 -4 421 21 q 233 0 350 0 q 26 -4 110 0 q 46 81 31 44 q 104 98 85 85 q 133 139 124 111 q 154 228 143 167 l 240 728 q 247 789 247 769 q 230 836 247 821 q 165 858 213 851 q 161 906 161 879 q 164 943 161 918 q 365 939 224 939 q 571 943 501 939 q 554 858 568 894 q 497 840 515 851 q 467 801 478 828 q 446 713 457 774 l 411 514 l 657 736 q 719 797 700 774 q 738 833 738 819 q 706 858 738 850 q 700 914 700 881 q 701 943 700 933 q 865 939 757 939 q 1031 943 967 939 q 1017 857 1031 893 m 410 -415 q 353 -375 368 -407 q 410 -318 388 -349 q 438 -262 433 -287 q 374 -207 443 -215 q 407 -97 374 -146 q 558 -56 500 -90 q 595 -81 583 -64 q 607 -128 607 -99 q 604 -161 607 -136 q 410 -415 581 -306 z "},"L":{"ha":826,"x_min":24,"x_max":797,"o":"m 24 -4 q 42 81 28 44 q 103 97 83 85 q 132 140 122 110 q 154 238 142 169 l 240 731 q 247 788 247 768 q 229 836 247 819 q 165 858 211 853 q 161 903 161 879 q 164 943 161 915 q 367 939 224 939 q 589 943 519 939 q 572 858 589 899 q 501 839 524 851 q 466 799 478 826 q 443 708 454 771 l 358 221 q 350 151 350 178 q 372 98 350 111 q 447 85 393 85 l 463 85 q 601 129 551 85 q 694 278 651 174 q 797 229 757 265 q 758 123 776 186 q 729 -4 739 60 q 413 0 654 0 q 24 -4 151 0 z "},"Ǉ":{"ha":1308,"x_min":24,"x_max":1385,"o":"m 24 -4 q 42 81 28 44 q 103 97 83 85 q 132 140 122 110 q 154 238 142 169 l 240 731 q 247 788 247 768 q 229 836 247 819 q 165 858 211 853 q 161 903 161 879 q 164 943 161 915 q 367 939 224 939 q 589 943 519 939 q 572 858 589 899 q 501 839 524 851 q 466 799 478 826 q 443 708 454 771 l 358 221 q 350 151 350 178 q 372 98 350 111 q 447 85 393 85 l 463 85 q 601 129 551 85 q 694 278 651 174 q 797 229 757 265 q 758 123 776 186 q 729 -4 739 60 q 413 0 654 0 q 24 -4 151 0 m 976 943 q 1178 939 1029 939 q 1385 943 1289 939 q 1371 858 1383 899 q 1311 841 1331 853 q 1280 801 1292 829 q 1257 708 1268 772 l 1163 171 q 1099 -60 1138 29 q 982 -217 1061 -149 q 760 -343 903 -286 q 726 -258 729 -319 q 869 -126 819 -203 q 940 78 918 -49 l 1053 729 q 1060 792 1060 774 q 1042 839 1060 825 q 979 858 1025 853 q 974 906 974 879 q 976 943 974 918 z "},"Ĺ":{"ha":826,"x_min":24,"x_max":797,"o":"m 24 -4 q 42 81 28 44 q 103 97 83 85 q 132 140 122 110 q 154 238 142 169 l 240 731 q 247 788 247 768 q 229 836 247 819 q 165 858 211 853 q 161 903 161 879 q 164 943 161 915 q 367 939 224 939 q 589 943 519 939 q 572 858 589 899 q 501 839 524 851 q 466 799 478 826 q 443 708 454 771 l 358 221 q 350 151 350 178 q 372 98 350 111 q 447 85 393 85 l 463 85 q 601 129 551 85 q 694 278 651 174 q 797 229 757 265 q 758 123 776 186 q 729 -4 739 60 q 413 0 654 0 q 24 -4 151 0 m 393 1015 q 299 1050 340 1019 q 364 1140 333 1090 q 408 1222 394 1189 q 471 1225 429 1225 q 600 1204 554 1225 q 393 1015 474 1094 z "},"Ľ":{"ha":847,"x_min":24,"x_max":919,"o":"m 24 -4 q 42 81 28 44 q 103 97 83 85 q 132 140 122 110 q 154 238 142 169 l 240 731 q 247 788 247 768 q 229 836 247 819 q 165 858 211 853 q 161 903 161 879 q 164 943 161 915 q 367 939 224 939 q 589 943 519 939 q 572 858 589 899 q 501 839 524 851 q 466 799 478 826 q 443 708 454 771 l 358 221 q 350 151 350 178 q 372 98 350 111 q 447 85 393 85 l 463 85 q 601 129 551 85 q 694 278 651 174 q 797 229 757 265 q 758 123 776 186 q 729 -4 739 60 q 413 0 654 0 q 24 -4 151 0 m 749 599 q 681 639 701 603 q 764 776 764 721 q 690 842 764 828 q 722 963 690 911 q 806 977 764 964 q 878 1008 849 990 q 919 919 919 989 q 913 857 919 896 q 858 720 899 788 q 749 599 818 653 z "},"Ļ":{"ha":826,"x_min":24,"x_max":797,"o":"m 24 -4 q 42 81 28 44 q 103 97 83 85 q 132 140 122 110 q 154 238 142 169 l 240 731 q 247 788 247 768 q 229 836 247 819 q 165 858 211 853 q 161 903 161 879 q 164 943 161 915 q 367 939 224 939 q 589 943 519 939 q 572 858 589 899 q 501 839 524 851 q 466 799 478 826 q 443 708 454 771 l 358 221 q 350 151 350 178 q 372 98 350 111 q 447 85 393 85 l 463 85 q 601 129 551 85 q 694 278 651 174 q 797 229 757 265 q 758 123 776 186 q 729 -4 739 60 q 413 0 654 0 q 24 -4 151 0 m 267 -415 q 210 -375 225 -407 q 267 -318 244 -349 q 294 -262 290 -287 q 231 -207 300 -215 q 264 -97 231 -146 q 415 -56 357 -90 q 452 -81 440 -64 q 464 -128 464 -99 q 461 -161 464 -136 q 267 -415 438 -306 z "},"Ŀ":{"ha":826,"x_min":24,"x_max":804,"o":"m 24 -4 q 42 81 28 44 q 103 97 83 85 q 132 140 122 110 q 154 238 142 169 l 240 731 q 247 788 247 768 q 229 836 247 819 q 165 858 211 853 q 161 903 161 879 q 164 943 161 915 q 367 939 224 939 q 589 943 519 939 q 572 858 589 899 q 501 839 524 851 q 466 799 478 826 q 443 708 454 771 l 358 221 q 350 151 350 178 q 372 98 350 111 q 447 85 393 85 l 463 85 q 601 129 551 85 q 694 278 651 174 q 797 229 757 265 q 758 123 776 186 q 729 -4 739 60 q 413 0 654 0 q 24 -4 151 0 m 714 413 q 651 433 675 413 q 628 490 628 454 q 653 560 628 535 q 724 586 679 586 q 781 564 757 586 q 804 507 804 542 q 781 438 804 463 q 714 413 757 413 z "},"Ḷ":{"ha":826,"x_min":24,"x_max":797,"o":"m 24 -4 q 42 81 28 44 q 103 97 83 85 q 132 140 122 110 q 154 238 142 169 l 240 731 q 247 788 247 768 q 229 836 247 819 q 165 858 211 853 q 161 903 161 879 q 164 943 161 915 q 367 939 224 939 q 589 943 519 939 q 572 858 589 899 q 501 839 524 851 q 466 799 478 826 q 443 708 454 771 l 358 221 q 350 151 350 178 q 372 98 350 111 q 447 85 393 85 l 463 85 q 601 129 551 85 q 694 278 651 174 q 797 229 757 265 q 758 123 776 186 q 729 -4 739 60 q 413 0 654 0 q 24 -4 151 0 m 325 -321 q 251 -297 276 -321 q 225 -233 225 -274 q 261 -143 225 -176 q 353 -110 297 -110 q 426 -133 400 -110 q 453 -199 453 -157 q 417 -288 453 -256 q 325 -321 382 -321 z "},"ǈ":{"ha":1204,"x_min":24,"x_max":1229,"o":"m 24 -4 q 42 81 28 44 q 103 97 83 85 q 132 140 122 110 q 154 238 142 169 l 240 731 q 247 788 247 768 q 229 836 247 819 q 165 858 211 853 q 161 903 161 879 q 164 943 161 915 q 367 939 224 939 q 589 943 519 939 q 572 858 589 899 q 501 839 524 851 q 466 799 478 826 q 443 708 454 771 l 358 221 q 350 151 350 178 q 372 98 350 111 q 447 85 393 85 l 463 85 q 601 129 551 85 q 694 278 651 174 q 797 229 757 265 q 758 123 776 186 q 729 -4 739 60 q 413 0 654 0 q 24 -4 151 0 m 1092 753 q 1024 776 1049 753 q 1000 839 1000 799 q 1037 930 1000 897 q 1135 963 1074 963 q 1203 939 1176 963 q 1229 875 1229 915 q 1192 785 1229 818 q 1092 753 1156 753 m 708 -343 q 676 -264 676 -315 q 817 -130 764 -210 q 890 72 869 -50 l 949 399 q 957 463 957 451 q 940 502 957 492 q 875 513 922 513 q 888 592 872 554 q 1015 610 946 593 q 1132 649 1083 626 q 1165 615 1156 633 q 1175 569 1175 597 q 1165 486 1175 535 l 1103 140 q 1031 -87 1078 3 q 906 -238 983 -178 q 708 -343 829 -299 z "},"Ḻ":{"ha":826,"x_min":24,"x_max":797,"o":"m 24 -4 q 42 81 28 44 q 103 97 83 85 q 132 140 122 110 q 154 238 142 169 l 240 731 q 247 788 247 768 q 229 836 247 819 q 165 858 211 853 q 161 903 161 879 q 164 943 161 915 q 367 939 224 939 q 589 943 519 939 q 572 858 589 899 q 501 839 524 851 q 466 799 478 826 q 443 708 454 771 l 358 221 q 350 151 350 178 q 372 98 350 111 q 447 85 393 85 l 463 85 q 601 129 551 85 q 694 278 651 174 q 797 229 757 265 q 758 123 776 186 q 729 -4 739 60 q 413 0 654 0 q 24 -4 151 0 m 86 -249 q 99 -171 86 -197 l 592 -171 q 579 -242 592 -204 q 86 -249 292 -242 z "},"Ł":{"ha":826,"x_min":24,"x_max":797,"o":"m 694 278 q 797 229 757 265 q 758 123 776 186 q 729 -4 739 60 q 413 0 654 0 q 24 -4 151 0 q 42 81 28 44 q 103 100 83 85 q 133 144 124 115 q 154 238 143 172 l 171 335 l 100 276 q 72 315 82 290 q 61 363 61 339 l 194 472 l 240 731 q 247 786 247 768 q 229 837 247 822 q 165 858 211 851 q 161 903 161 879 q 164 943 161 915 q 367 939 224 939 q 589 943 519 939 q 572 858 589 899 q 497 838 521 853 q 464 795 474 822 q 443 708 454 768 l 429 625 l 518 697 q 544 662 533 685 q 554 615 554 639 l 406 494 l 358 221 q 350 151 350 179 q 371 99 350 114 q 447 85 392 85 l 463 85 q 601 129 551 85 q 694 278 651 174 z "},"M":{"ha":1293,"x_min":-44,"x_max":1290,"o":"m 1174 638 q 1147 254 1156 346 q 1142 178 1142 193 q 1158 108 1142 126 q 1214 81 1174 89 q 1218 36 1218 60 q 1215 -4 1218 24 q 1010 0 1160 0 q 801 -4 865 0 q 817 81 801 43 q 887 103 864 88 q 920 152 910 118 q 938 258 931 186 q 969 682 956 426 q 579 -4 772 310 q 497 -12 549 -12 q 304 694 419 319 q 201 289 260 506 q 176 158 176 193 q 194 106 176 122 q 256 81 213 89 q 258 35 258 67 q 257 -4 258 8 q 114 0 211 0 q -44 -4 7 0 q -28 81 -44 43 q 28 110 7 90 q 65 168 49 129 q 106 283 82 207 q 226 735 178 518 q 236 800 236 774 q 219 842 236 831 q 161 858 203 854 q 157 903 157 879 q 160 943 157 915 q 308 939 206 939 q 457 943 406 939 q 639 268 556 625 q 1011 943 838 607 q 1156 939 1071 939 q 1290 943 1238 939 q 1276 858 1290 900 q 1219 837 1239 853 q 1191 789 1200 821 q 1178 696 1182 757 l 1174 638 z "},"Ṃ":{"ha":1293,"x_min":-44,"x_max":1290,"o":"m 1174 638 q 1147 254 1156 346 q 1142 178 1142 193 q 1158 108 1142 126 q 1214 81 1174 89 q 1218 36 1218 60 q 1215 -4 1218 24 q 1010 0 1160 0 q 801 -4 865 0 q 817 81 801 43 q 887 103 864 88 q 920 152 910 118 q 938 258 931 186 q 969 682 956 426 q 579 -4 772 310 q 497 -12 549 -12 q 304 694 419 319 q 201 289 260 506 q 176 158 176 193 q 194 106 176 122 q 256 81 213 89 q 258 35 258 67 q 257 -4 258 8 q 114 0 211 0 q -44 -4 7 0 q -28 81 -44 43 q 28 110 7 90 q 65 168 49 129 q 106 283 82 207 q 226 735 178 518 q 236 800 236 774 q 219 842 236 831 q 161 858 203 854 q 157 903 157 879 q 160 943 157 915 q 308 939 206 939 q 457 943 406 939 q 639 268 556 625 q 1011 943 838 607 q 1156 939 1071 939 q 1290 943 1238 939 q 1276 858 1290 900 q 1219 837 1239 853 q 1191 789 1200 821 q 1178 696 1182 757 l 1174 638 m 474 -321 q 399 -297 425 -321 q 374 -233 374 -274 q 410 -143 374 -176 q 501 -110 446 -110 q 575 -133 549 -110 q 601 -199 601 -157 q 566 -288 601 -256 q 474 -321 531 -321 z "},"N":{"ha":964,"x_min":21,"x_max":1040,"o":"m 883 939 q 1040 943 992 939 q 1024 858 1038 890 q 966 827 986 847 q 935 770 946 807 q 910 657 924 733 l 794 -1 q 701 -12 760 -12 q 326 685 510 365 l 256 279 q 243 175 243 201 q 263 112 243 133 q 332 81 282 90 q 336 33 336 58 q 335 -4 336 8 q 175 0 275 0 q 21 -4 81 0 q 36 81 24 43 q 99 108 76 90 q 138 164 122 126 q 165 272 153 201 l 258 803 l 251 815 q 222 847 238 839 q 165 858 206 856 q 161 901 161 879 q 164 943 161 913 q 296 939 207 939 q 425 943 389 939 q 763 321 592 664 l 819 664 q 831 760 831 726 q 810 825 831 803 q 738 858 790 847 q 735 904 735 872 q 736 943 735 931 q 883 939 789 939 z "},"Ǌ":{"ha":1393,"x_min":21,"x_max":1468,"o":"m 883 939 q 1040 943 992 939 q 1024 858 1038 890 q 966 827 986 847 q 935 770 946 807 q 910 657 924 733 l 794 -1 q 701 -12 760 -12 q 326 685 510 365 l 256 279 q 243 175 243 201 q 263 112 243 133 q 332 81 282 90 q 336 33 336 58 q 335 -4 336 8 q 175 0 275 0 q 21 -4 81 0 q 36 81 24 43 q 99 108 76 90 q 138 164 122 126 q 165 272 153 201 l 258 803 l 251 815 q 222 847 238 839 q 165 858 206 856 q 161 901 161 879 q 164 943 161 913 q 296 939 207 939 q 425 943 389 939 q 763 321 592 664 l 819 664 q 831 760 831 726 q 810 825 831 803 q 738 858 790 847 q 735 904 735 872 q 736 943 735 931 q 883 939 789 939 m 1060 943 q 1261 939 1113 939 q 1468 943 1372 939 q 1454 858 1467 899 q 1394 841 1414 853 q 1363 801 1375 829 q 1340 708 1351 772 l 1246 171 q 1183 -60 1221 29 q 1065 -217 1144 -149 q 843 -343 986 -286 q 810 -258 813 -319 q 952 -126 903 -203 q 1024 78 1001 -49 l 1136 729 q 1143 792 1143 774 q 1126 839 1143 825 q 1063 858 1108 853 q 1057 906 1057 879 q 1060 943 1057 918 z "},"Ń":{"ha":964,"x_min":21,"x_max":1040,"o":"m 883 939 q 1040 943 992 939 q 1024 858 1038 890 q 966 827 986 847 q 935 770 946 807 q 910 657 924 733 l 794 -1 q 701 -12 760 -12 q 326 685 510 365 l 256 279 q 243 175 243 201 q 263 112 243 133 q 332 81 282 90 q 336 33 336 58 q 335 -4 336 8 q 175 0 275 0 q 21 -4 81 0 q 36 81 24 43 q 99 108 76 90 q 138 164 122 126 q 165 272 153 201 l 258 803 l 251 815 q 222 847 238 839 q 165 858 206 856 q 161 901 161 879 q 164 943 161 913 q 296 939 207 939 q 425 943 389 939 q 763 321 592 664 l 819 664 q 831 760 831 726 q 810 825 831 803 q 738 858 790 847 q 735 904 735 872 q 736 943 735 931 q 883 939 789 939 m 625 1015 q 531 1050 572 1019 q 596 1140 565 1090 q 640 1222 626 1189 q 703 1225 661 1225 q 832 1204 786 1225 q 625 1015 706 1094 z "},"Ň":{"ha":964,"x_min":21,"x_max":1040,"o":"m 883 939 q 1040 943 992 939 q 1024 858 1038 890 q 966 827 986 847 q 935 770 946 807 q 910 657 924 733 l 794 -1 q 701 -12 760 -12 q 326 685 510 365 l 256 279 q 243 175 243 201 q 263 112 243 133 q 332 81 282 90 q 336 33 336 58 q 335 -4 336 8 q 175 0 275 0 q 21 -4 81 0 q 36 81 24 43 q 99 108 76 90 q 138 164 122 126 q 165 272 153 201 l 258 803 l 251 815 q 222 847 238 839 q 165 858 206 856 q 161 901 161 879 q 164 943 161 913 q 296 939 207 939 q 425 943 389 939 q 763 321 592 664 l 819 664 q 831 760 831 726 q 810 825 831 803 q 738 858 790 847 q 735 904 735 872 q 736 943 735 931 q 883 939 789 939 m 579 1013 q 399 1175 501 1099 q 471 1236 417 1231 q 649 1151 550 1188 q 839 1236 739 1176 q 873 1213 857 1231 q 899 1175 889 1196 q 665 1025 754 1090 q 601 1011 638 1011 q 579 1013 586 1011 z "},"Ņ":{"ha":964,"x_min":21,"x_max":1040,"o":"m 883 939 q 1040 943 992 939 q 1024 858 1038 890 q 966 827 986 847 q 935 770 946 807 q 910 657 924 733 l 794 -1 q 701 -12 760 -12 q 326 685 510 365 l 256 279 q 243 175 243 201 q 263 112 243 133 q 332 81 282 90 q 336 33 336 58 q 335 -4 336 8 q 175 0 275 0 q 21 -4 81 0 q 36 81 24 43 q 99 108 76 90 q 138 164 122 126 q 165 272 153 201 l 258 803 l 251 815 q 222 847 238 839 q 165 858 206 856 q 161 901 161 879 q 164 943 161 913 q 296 939 207 939 q 425 943 389 939 q 763 321 592 664 l 819 664 q 831 760 831 726 q 810 825 831 803 q 738 858 790 847 q 735 904 735 872 q 736 943 735 931 q 883 939 789 939 m 369 -415 q 313 -375 328 -407 q 370 -318 347 -349 q 397 -262 393 -287 q 333 -207 403 -215 q 367 -97 333 -146 q 518 -56 460 -90 q 555 -81 543 -64 q 567 -128 567 -99 q 564 -161 567 -136 q 369 -415 540 -306 z "},"Ṅ":{"ha":964,"x_min":21,"x_max":1040,"o":"m 883 939 q 1040 943 992 939 q 1024 858 1038 890 q 966 827 986 847 q 935 770 946 807 q 910 657 924 733 l 794 -1 q 701 -12 760 -12 q 326 685 510 365 l 256 279 q 243 175 243 201 q 263 112 243 133 q 332 81 282 90 q 336 33 336 58 q 335 -4 336 8 q 175 0 275 0 q 21 -4 81 0 q 36 81 24 43 q 99 108 76 90 q 138 164 122 126 q 165 272 153 201 l 258 803 l 251 815 q 222 847 238 839 q 165 858 206 856 q 161 901 161 879 q 164 943 161 913 q 296 939 207 939 q 425 943 389 939 q 763 321 592 664 l 819 664 q 831 760 831 726 q 810 825 831 803 q 738 858 790 847 q 735 904 735 872 q 736 943 735 931 q 883 939 789 939 m 626 997 q 556 1021 582 997 q 529 1085 529 1044 q 565 1166 529 1138 q 660 1194 600 1194 q 731 1170 704 1194 q 757 1106 757 1146 q 723 1024 757 1051 q 626 997 689 997 z "},"Ṇ":{"ha":964,"x_min":21,"x_max":1040,"o":"m 883 939 q 1040 943 992 939 q 1024 858 1038 890 q 966 827 986 847 q 935 770 946 807 q 910 657 924 733 l 794 -1 q 701 -12 760 -12 q 326 685 510 365 l 256 279 q 243 175 243 201 q 263 112 243 133 q 332 81 282 90 q 336 33 336 58 q 335 -4 336 8 q 175 0 275 0 q 21 -4 81 0 q 36 81 24 43 q 99 108 76 90 q 138 164 122 126 q 165 272 153 201 l 258 803 l 251 815 q 222 847 238 839 q 165 858 206 856 q 161 901 161 879 q 164 943 161 913 q 296 939 207 939 q 425 943 389 939 q 763 321 592 664 l 819 664 q 831 760 831 726 q 810 825 831 803 q 738 858 790 847 q 735 904 735 872 q 736 943 735 931 q 883 939 789 939 m 426 -321 q 352 -297 378 -321 q 326 -233 326 -274 q 363 -143 326 -176 q 454 -110 399 -110 q 528 -133 501 -110 q 554 -199 554 -157 q 519 -288 554 -256 q 426 -321 483 -321 z "},"Ŋ":{"ha":947,"x_min":104,"x_max":972,"o":"m 807 947 q 924 896 875 947 q 972 725 972 844 q 951 557 972 656 l 858 124 q 769 -107 832 1 q 622 -281 706 -215 q 456 -346 539 -346 q 377 -327 411 -346 q 324 -278 343 -308 q 357 -160 324 -222 q 408 -177 376 -172 q 465 -182 439 -182 q 550 -158 519 -182 q 597 -89 581 -135 q 632 50 613 -43 l 733 542 q 751 686 751 626 q 693 782 751 782 q 571 713 639 782 q 444 522 503 644 q 357 244 385 399 l 313 0 l 104 0 l 221 631 q 235 738 235 711 q 215 785 235 775 q 140 796 196 796 q 156 878 143 853 q 294 903 214 882 q 431 949 375 925 q 463 922 453 939 q 472 875 472 904 q 468 829 472 854 q 435 684 458 760 q 392 564 413 608 l 392 561 l 424 631 q 519 774 456 700 q 659 898 582 849 q 807 947 736 947 z "},"Ɲ":{"ha":1001,"x_min":-282,"x_max":1081,"o":"m 940 939 q 1081 943 1026 939 q 1056 858 1069 890 q 999 838 1019 854 q 963 781 978 822 q 932 660 947 740 l 803 -3 q 708 -12 771 -12 l 321 683 l 207 94 q 126 -140 181 -40 q -1 -292 72 -239 q -157 -346 -75 -346 q -235 -330 -203 -346 q -281 -292 -267 -314 q -272 -228 -282 -267 q -246 -165 -261 -190 q -129 -182 -187 -182 q 29 -119 -31 -182 q 115 79 89 -56 l 256 800 l 246 817 q 219 847 235 839 q 163 858 203 854 q 169 943 161 896 q 314 939 217 939 q 440 943 410 939 l 779 326 l 844 660 q 860 775 860 739 q 840 838 860 819 q 775 858 821 856 q 782 943 775 901 q 940 939 842 939 z "},"ǋ":{"ha":1343,"x_min":21,"x_max":1367,"o":"m 883 939 q 1040 943 992 939 q 1024 858 1038 890 q 966 827 986 847 q 935 770 946 807 q 910 657 924 733 l 794 -1 q 701 -12 760 -12 q 326 685 510 365 l 256 279 q 243 175 243 201 q 263 112 243 133 q 332 81 282 90 q 336 33 336 58 q 335 -4 336 8 q 175 0 275 0 q 21 -4 81 0 q 36 81 24 43 q 99 108 76 90 q 138 164 122 126 q 165 272 153 201 l 258 803 l 251 815 q 222 847 238 839 q 165 858 206 856 q 161 901 161 879 q 164 943 161 913 q 296 939 207 939 q 425 943 389 939 q 763 321 592 664 l 819 664 q 831 760 831 726 q 810 825 831 803 q 738 858 790 847 q 735 904 735 872 q 736 943 735 931 q 883 939 789 939 m 1229 753 q 1162 776 1186 753 q 1138 839 1138 799 q 1174 930 1138 897 q 1272 963 1211 963 q 1340 939 1314 963 q 1367 875 1367 915 q 1330 785 1367 818 q 1229 753 1293 753 m 846 -343 q 814 -264 814 -315 q 954 -130 901 -210 q 1028 72 1007 -50 l 1086 399 q 1094 463 1094 451 q 1077 502 1094 492 q 1013 513 1060 513 q 1025 592 1010 554 q 1152 610 1083 593 q 1269 649 1221 626 q 1303 615 1293 633 q 1313 569 1313 597 q 1303 486 1313 535 l 1240 140 q 1168 -87 1215 3 q 1044 -238 1121 -178 q 846 -343 967 -299 z "},"Ṉ":{"ha":964,"x_min":21,"x_max":1040,"o":"m 883 939 q 1040 943 992 939 q 1024 858 1038 890 q 966 827 986 847 q 935 770 946 807 q 910 657 924 733 l 794 -1 q 701 -12 760 -12 q 326 685 510 365 l 256 279 q 243 175 243 201 q 263 112 243 133 q 332 81 282 90 q 336 33 336 58 q 335 -4 336 8 q 175 0 275 0 q 21 -4 81 0 q 36 81 24 43 q 99 108 76 90 q 138 164 122 126 q 165 272 153 201 l 258 803 l 251 815 q 222 847 238 839 q 165 858 206 856 q 161 901 161 879 q 164 943 161 913 q 296 939 207 939 q 425 943 389 939 q 763 321 592 664 l 819 664 q 831 760 831 726 q 810 825 831 803 q 738 858 790 847 q 735 904 735 872 q 736 943 735 931 q 883 939 789 939 m 189 -249 q 201 -171 189 -197 l 694 -171 q 682 -242 694 -204 q 189 -249 394 -242 z "},"Ñ":{"ha":964,"x_min":21,"x_max":1040,"o":"m 883 939 q 1040 943 992 939 q 1024 858 1038 890 q 966 827 986 847 q 935 770 946 807 q 910 657 924 733 l 794 -1 q 701 -12 760 -12 q 326 685 510 365 l 256 279 q 243 175 243 201 q 263 112 243 133 q 332 81 282 90 q 336 33 336 58 q 335 -4 336 8 q 175 0 275 0 q 21 -4 81 0 q 36 81 24 43 q 99 108 76 90 q 138 164 122 126 q 165 272 153 201 l 258 803 l 251 815 q 222 847 238 839 q 165 858 206 856 q 161 901 161 879 q 164 943 161 913 q 296 939 207 939 q 425 943 389 939 q 763 321 592 664 l 819 664 q 831 760 831 726 q 810 825 831 803 q 738 858 790 847 q 735 904 735 872 q 736 943 735 931 q 883 939 789 939 m 708 1029 q 654 1038 676 1029 q 604 1063 632 1046 q 565 1083 582 1076 q 528 1089 549 1089 q 411 1032 476 1089 q 388 1103 388 1067 q 389 1124 388 1117 q 483 1187 433 1168 q 578 1206 533 1206 q 633 1198 610 1206 q 688 1174 656 1190 q 726 1156 710 1163 q 760 1150 742 1150 q 853 1201 804 1150 q 911 1149 896 1181 q 815 1059 867 1089 q 708 1029 764 1029 z "},"O":{"ha":1031,"x_min":69,"x_max":1021,"o":"m 476 -12 q 260 37 351 -12 q 119 176 168 86 q 69 383 69 265 q 82 503 69 440 q 182 738 107 636 q 368 896 257 840 q 611 951 479 951 q 826 905 733 951 q 970 770 919 858 q 1021 561 1021 682 q 1008 439 1021 504 q 910 206 983 308 q 724 46 836 104 q 476 -12 613 -12 m 494 74 q 685 177 606 74 q 794 451 764 281 q 806 569 806 518 q 748 785 806 703 q 592 868 690 868 q 408 769 488 868 q 299 511 329 671 q 285 368 285 440 q 338 154 285 235 q 494 74 392 74 z "},"Ó":{"ha":1031,"x_min":69,"x_max":1021,"o":"m 476 -12 q 260 37 351 -12 q 119 176 168 86 q 69 383 69 265 q 82 503 69 440 q 182 738 107 636 q 368 896 257 840 q 611 951 479 951 q 826 905 733 951 q 970 770 919 858 q 1021 561 1021 682 q 1008 439 1021 504 q 910 206 983 308 q 724 46 836 104 q 476 -12 613 -12 m 494 74 q 685 177 606 74 q 794 451 764 281 q 806 569 806 518 q 748 785 806 703 q 592 868 690 868 q 408 769 488 868 q 299 511 329 671 q 285 368 285 440 q 338 154 285 235 q 494 74 392 74 m 635 1015 q 540 1050 582 1019 q 606 1140 575 1090 q 650 1222 636 1189 q 713 1225 671 1225 q 842 1204 796 1225 q 635 1015 715 1094 z "},"Ŏ":{"ha":1031,"x_min":69,"x_max":1021,"o":"m 476 -12 q 260 37 351 -12 q 119 176 168 86 q 69 383 69 265 q 82 503 69 440 q 182 738 107 636 q 368 896 257 840 q 611 951 479 951 q 826 905 733 951 q 970 770 919 858 q 1021 561 1021 682 q 1008 439 1021 504 q 910 206 983 308 q 724 46 836 104 q 476 -12 613 -12 m 494 74 q 685 177 606 74 q 794 451 764 281 q 806 569 806 518 q 748 785 806 703 q 592 868 690 868 q 408 769 488 868 q 299 511 329 671 q 285 368 285 440 q 338 154 285 235 q 494 74 392 74 m 619 1007 q 453 1047 510 1007 q 397 1163 397 1086 q 401 1207 397 1185 q 485 1221 440 1221 q 508 1219 500 1221 q 546 1149 507 1174 q 654 1124 585 1124 q 769 1149 724 1124 q 828 1219 814 1174 q 858 1222 850 1222 q 915 1211 893 1222 q 822 1059 897 1111 q 619 1007 746 1007 z "},"Ǒ":{"ha":1031,"x_min":69,"x_max":1021,"o":"m 476 -12 q 260 37 351 -12 q 119 176 168 86 q 69 383 69 265 q 82 503 69 440 q 182 738 107 636 q 368 896 257 840 q 611 951 479 951 q 826 905 733 951 q 970 770 919 858 q 1021 561 1021 682 q 1008 439 1021 504 q 910 206 983 308 q 724 46 836 104 q 476 -12 613 -12 m 494 74 q 685 177 606 74 q 794 451 764 281 q 806 569 806 518 q 748 785 806 703 q 592 868 690 868 q 408 769 488 868 q 299 511 329 671 q 285 368 285 440 q 338 154 285 235 q 494 74 392 74 m 589 1013 q 408 1175 511 1099 q 481 1236 426 1231 q 658 1151 560 1188 q 849 1236 749 1176 q 883 1213 867 1231 q 908 1175 899 1196 q 675 1025 764 1090 q 611 1011 647 1011 q 589 1013 596 1011 z "},"Ô":{"ha":1031,"x_min":69,"x_max":1021,"o":"m 476 -12 q 260 37 351 -12 q 119 176 168 86 q 69 383 69 265 q 82 503 69 440 q 182 738 107 636 q 368 896 257 840 q 611 951 479 951 q 826 905 733 951 q 970 770 919 858 q 1021 561 1021 682 q 1008 439 1021 504 q 910 206 983 308 q 724 46 836 104 q 476 -12 613 -12 m 494 74 q 685 177 606 74 q 794 451 764 281 q 806 569 806 518 q 748 785 806 703 q 592 868 690 868 q 408 769 488 868 q 299 511 329 671 q 285 368 285 440 q 338 154 285 235 q 494 74 392 74 m 463 1006 q 428 1038 442 1015 q 411 1081 414 1061 q 644 1231 510 1128 q 671 1232 653 1232 q 732 1222 707 1232 q 906 1050 776 1174 q 872 1027 894 1036 q 824 1015 850 1018 q 654 1100 731 1074 q 501 1026 599 1078 q 463 1006 479 1013 z "},"Ố":{"ha":1031,"x_min":69,"x_max":1083,"o":"m 476 -12 q 260 37 351 -12 q 119 176 168 86 q 69 383 69 265 q 82 503 69 440 q 182 738 107 636 q 368 896 257 840 q 611 951 479 951 q 826 905 733 951 q 970 770 919 858 q 1021 561 1021 682 q 1008 439 1021 504 q 910 206 983 308 q 724 46 836 104 q 476 -12 613 -12 m 494 74 q 685 177 606 74 q 794 451 764 281 q 806 569 806 518 q 748 785 806 703 q 592 868 690 868 q 408 769 488 868 q 299 511 329 671 q 285 368 285 440 q 338 154 285 235 q 494 74 392 74 m 896 1190 q 811 1222 853 1194 q 869 1302 842 1258 q 911 1376 897 1346 q 968 1381 940 1381 q 1083 1361 1040 1381 q 896 1190 985 1274 m 463 1006 q 427 1038 442 1015 q 411 1081 413 1061 q 644 1231 510 1128 q 671 1232 653 1232 q 732 1222 704 1232 q 906 1050 782 1167 q 822 1015 879 1019 q 653 1100 729 1074 q 504 1028 611 1083 l 463 1006 z "},"Ộ":{"ha":1031,"x_min":69,"x_max":1021,"o":"m 476 -12 q 260 37 351 -12 q 119 176 168 86 q 69 383 69 265 q 82 503 69 440 q 182 738 107 636 q 368 896 257 840 q 611 951 479 951 q 826 905 733 951 q 970 770 919 858 q 1021 561 1021 682 q 1008 439 1021 504 q 910 206 983 308 q 724 46 836 104 q 476 -12 613 -12 m 494 74 q 685 177 606 74 q 794 451 764 281 q 806 569 806 518 q 748 785 806 703 q 592 868 690 868 q 408 769 488 868 q 299 511 329 671 q 285 368 285 440 q 338 154 285 235 q 494 74 392 74 m 425 -321 q 351 -297 376 -321 q 325 -233 325 -274 q 361 -143 325 -176 q 453 -110 397 -110 q 526 -133 500 -110 q 553 -199 553 -157 q 517 -288 553 -256 q 425 -321 482 -321 m 463 1006 q 428 1038 442 1015 q 411 1081 414 1061 q 644 1231 510 1128 q 671 1232 653 1232 q 732 1222 707 1232 q 906 1050 776 1174 q 872 1027 894 1036 q 824 1015 850 1018 q 654 1100 731 1074 q 501 1026 599 1078 q 463 1006 479 1013 z "},"Ồ":{"ha":1031,"x_min":69,"x_max":1021,"o":"m 476 -12 q 260 37 351 -12 q 119 176 168 86 q 69 383 69 265 q 82 503 69 440 q 182 738 107 636 q 368 896 257 840 q 611 951 479 951 q 826 905 733 951 q 970 770 919 858 q 1021 561 1021 682 q 1008 439 1021 504 q 910 206 983 308 q 724 46 836 104 q 476 -12 613 -12 m 494 74 q 685 177 606 74 q 794 451 764 281 q 806 569 806 518 q 748 785 806 703 q 592 868 690 868 q 408 769 488 868 q 299 511 329 671 q 285 368 285 440 q 338 154 285 235 q 494 74 392 74 z "},"Ổ":{"ha":1031,"x_min":69,"x_max":1043,"o":"m 476 -12 q 260 37 351 -12 q 119 176 168 86 q 69 383 69 265 q 82 503 69 440 q 182 738 107 636 q 368 896 257 840 q 611 951 479 951 q 826 905 733 951 q 970 770 919 858 q 1021 561 1021 682 q 1008 439 1021 504 q 910 206 983 308 q 724 46 836 104 q 476 -12 613 -12 m 494 74 q 685 177 606 74 q 794 451 764 281 q 806 569 806 518 q 748 785 806 703 q 592 868 690 868 q 408 769 488 868 q 299 511 329 671 q 285 368 285 440 q 338 154 285 235 q 494 74 392 74 z "},"Ỗ":{"ha":1031,"x_min":69,"x_max":1021,"o":"m 476 -12 q 260 37 351 -12 q 119 176 168 86 q 69 383 69 265 q 82 503 69 440 q 182 738 107 636 q 368 896 257 840 q 611 951 479 951 q 826 905 733 951 q 970 770 919 858 q 1021 561 1021 682 q 1008 439 1021 504 q 910 206 983 308 q 724 46 836 104 q 476 -12 613 -12 m 494 74 q 685 177 606 74 q 794 451 764 281 q 806 569 806 518 q 748 785 806 703 q 592 868 690 868 q 408 769 488 868 q 299 511 329 671 q 285 368 285 440 q 338 154 285 235 q 494 74 392 74 m 463 1006 q 428 1038 442 1015 q 411 1081 414 1061 q 644 1231 510 1128 q 671 1232 653 1232 q 732 1222 707 1232 q 906 1050 776 1174 q 872 1027 894 1036 q 824 1015 850 1018 q 654 1100 731 1074 q 501 1026 599 1078 q 463 1006 479 1013 m 774 1294 q 719 1303 742 1294 q 669 1328 697 1311 q 631 1348 647 1342 q 593 1354 614 1354 q 476 1297 542 1354 q 453 1368 453 1332 q 454 1389 453 1382 q 549 1452 499 1433 q 643 1471 599 1471 q 698 1463 675 1471 q 753 1439 721 1456 q 791 1422 775 1428 q 825 1415 807 1415 q 918 1467 869 1415 q 976 1414 961 1446 q 881 1324 932 1354 q 774 1294 829 1294 z "},"Ȍ":{"ha":1031,"x_min":69,"x_max":1021,"o":"m 476 -12 q 260 37 351 -12 q 119 176 168 86 q 69 383 69 265 q 82 503 69 440 q 182 738 107 636 q 368 896 257 840 q 611 951 479 951 q 826 905 733 951 q 970 770 919 858 q 1021 561 1021 682 q 1008 439 1021 504 q 910 206 983 308 q 724 46 836 104 q 476 -12 613 -12 m 494 74 q 685 177 606 74 q 794 451 764 281 q 806 569 806 518 q 748 785 806 703 q 592 868 690 868 q 408 769 488 868 q 299 511 329 671 q 285 368 285 440 q 338 154 285 235 q 494 74 392 74 m 754 1006 q 636 1182 683 1119 q 726 1194 674 1194 q 792 1189 750 1194 q 851 1004 824 1067 q 807 1001 824 1001 q 754 1006 783 1001 m 510 1006 q 383 1179 438 1114 q 485 1193 424 1193 q 547 1189 518 1193 q 607 1004 579 1067 q 563 1001 576 1001 q 510 1006 539 1001 z "},"Ö":{"ha":1031,"x_min":69,"x_max":1021,"o":"m 476 -12 q 260 37 351 -12 q 119 176 168 86 q 69 383 69 265 q 82 503 69 440 q 182 738 107 636 q 368 896 257 840 q 611 951 479 951 q 826 905 733 951 q 970 770 919 858 q 1021 561 1021 682 q 1008 439 1021 504 q 910 206 983 308 q 724 46 836 104 q 476 -12 613 -12 m 494 74 q 685 177 606 74 q 794 451 764 281 q 806 569 806 518 q 748 785 806 703 q 592 868 690 868 q 408 769 488 868 q 299 511 329 671 q 285 368 285 440 q 338 154 285 235 q 494 74 392 74 m 500 1007 q 430 1033 456 1007 q 404 1103 404 1060 q 503 1203 404 1203 q 574 1179 547 1203 q 600 1114 600 1156 q 599 1092 600 1100 q 500 1007 583 1007 m 801 1007 q 730 1033 756 1007 q 704 1103 704 1058 q 731 1177 704 1151 q 808 1203 757 1203 q 878 1178 853 1203 q 904 1111 904 1154 q 877 1034 904 1061 q 801 1007 850 1007 z "},"Ȫ":{"ha":1031,"x_min":69,"x_max":1021,"o":"m 476 -12 q 260 37 351 -12 q 119 176 168 86 q 69 383 69 265 q 82 503 69 440 q 182 738 107 636 q 368 896 257 840 q 611 951 479 951 q 826 905 733 951 q 970 770 919 858 q 1021 561 1021 682 q 1008 439 1021 504 q 910 206 983 308 q 724 46 836 104 q 476 -12 613 -12 m 494 74 q 685 177 606 74 q 794 451 764 281 q 806 569 806 518 q 748 785 806 703 q 592 868 690 868 q 408 769 488 868 q 299 511 329 671 q 285 368 285 440 q 338 154 285 235 q 494 74 392 74 m 500 1007 q 430 1033 456 1007 q 404 1103 404 1060 q 503 1203 404 1203 q 574 1179 547 1203 q 600 1114 600 1156 q 599 1092 600 1100 q 500 1007 583 1007 m 801 1007 q 730 1033 756 1007 q 704 1103 704 1058 q 731 1177 704 1151 q 808 1203 757 1203 q 878 1178 853 1203 q 904 1111 904 1154 q 877 1034 904 1061 q 801 1007 850 1007 m 439 1293 q 451 1369 439 1343 l 944 1369 q 932 1300 944 1336 q 439 1293 643 1300 z "},"Ȱ":{"ha":1031,"x_min":69,"x_max":1021,"o":"m 476 -12 q 260 37 351 -12 q 119 176 168 86 q 69 383 69 265 q 82 503 69 440 q 182 738 107 636 q 368 896 257 840 q 611 951 479 951 q 826 905 733 951 q 970 770 919 858 q 1021 561 1021 682 q 1008 439 1021 504 q 910 206 983 308 q 724 46 836 104 q 476 -12 613 -12 m 494 74 q 685 177 606 74 q 794 451 764 281 q 806 569 806 518 q 748 785 806 703 q 592 868 690 868 q 408 769 488 868 q 299 511 329 671 q 285 368 285 440 q 338 154 285 235 q 494 74 392 74 m 635 997 q 564 1021 590 997 q 538 1085 538 1044 q 573 1166 538 1138 q 668 1194 608 1194 q 739 1170 713 1194 q 765 1106 765 1146 q 731 1024 765 1051 q 635 997 697 997 m 443 1263 q 456 1339 443 1313 l 949 1339 q 936 1269 949 1306 q 443 1263 647 1269 z "},"Ọ":{"ha":1031,"x_min":69,"x_max":1021,"o":"m 476 -12 q 260 37 351 -12 q 119 176 168 86 q 69 383 69 265 q 82 503 69 440 q 182 738 107 636 q 368 896 257 840 q 611 951 479 951 q 826 905 733 951 q 970 770 919 858 q 1021 561 1021 682 q 1008 439 1021 504 q 910 206 983 308 q 724 46 836 104 q 476 -12 613 -12 m 494 74 q 685 177 606 74 q 794 451 764 281 q 806 569 806 518 q 748 785 806 703 q 592 868 690 868 q 408 769 488 868 q 299 511 329 671 q 285 368 285 440 q 338 154 285 235 q 494 74 392 74 m 425 -321 q 351 -297 376 -321 q 325 -233 325 -274 q 361 -143 325 -176 q 453 -110 397 -110 q 526 -133 500 -110 q 553 -199 553 -157 q 517 -288 553 -256 q 425 -321 482 -321 z "},"Ò":{"ha":1031,"x_min":69,"x_max":1021,"o":"m 476 -12 q 260 37 351 -12 q 119 176 168 86 q 69 383 69 265 q 82 503 69 440 q 182 738 107 636 q 368 896 257 840 q 611 951 479 951 q 826 905 733 951 q 970 770 919 858 q 1021 561 1021 682 q 1008 439 1021 504 q 910 206 983 308 q 724 46 836 104 q 476 -12 613 -12 m 494 74 q 685 177 606 74 q 794 451 764 281 q 806 569 806 518 q 748 785 806 703 q 592 868 690 868 q 408 769 488 868 q 299 511 329 671 q 285 368 285 440 q 338 154 285 235 q 494 74 392 74 m 711 1028 q 657 1021 688 1021 q 597 1029 622 1021 q 539 1111 578 1064 q 463 1197 500 1158 q 578 1213 517 1213 q 642 1207 614 1213 q 711 1028 672 1099 z "},"Ỏ":{"ha":1031,"x_min":69,"x_max":1021,"o":"m 476 -12 q 260 37 351 -12 q 119 176 168 86 q 69 383 69 265 q 82 503 69 440 q 182 738 107 636 q 368 896 257 840 q 611 951 479 951 q 826 905 733 951 q 970 770 919 858 q 1021 561 1021 682 q 1008 439 1021 504 q 910 206 983 308 q 724 46 836 104 q 476 -12 613 -12 m 494 74 q 685 177 606 74 q 794 451 764 281 q 806 569 806 518 q 748 785 806 703 q 592 868 690 868 q 408 769 488 868 q 299 511 329 671 q 285 368 285 440 q 338 154 285 235 q 494 74 392 74 m 594 1011 q 589 1042 589 1022 q 603 1085 589 1071 q 647 1115 618 1099 q 678 1135 668 1128 q 693 1154 689 1142 q 696 1167 696 1163 q 687 1182 696 1176 q 664 1188 678 1188 q 586 1107 610 1188 q 506 1125 529 1110 q 524 1211 524 1179 q 685 1247 601 1247 q 779 1227 746 1247 q 813 1174 813 1207 q 808 1149 813 1161 q 778 1099 799 1117 q 724 1064 757 1082 q 692 1046 701 1053 q 681 1029 683 1039 q 678 1006 676 1017 q 649 1003 661 1003 q 594 1011 615 1003 z "},"Ơ":{"ha":1031,"x_min":69,"x_max":1068,"o":"m 1044 1103 q 1068 1025 1068 1069 q 1019 914 1068 958 q 894 861 971 869 q 988 733 956 808 q 1021 560 1021 657 q 1008 439 1021 504 q 910 206 983 308 q 724 46 836 104 q 476 -12 613 -12 q 260 37 351 -12 q 119 176 168 86 q 69 383 69 265 q 82 503 69 440 q 182 738 107 636 q 368 896 257 840 q 611 951 479 951 l 658 951 l 658 951 q 819 933 761 933 q 895 951 871 933 q 926 1008 919 969 q 931 1047 931 1029 q 926 1088 931 1067 q 1021 1104 974 1104 q 1044 1103 1038 1104 m 794 451 q 806 569 806 518 q 748 785 806 703 q 592 868 690 868 q 408 769 488 868 q 299 511 329 671 q 285 368 285 440 q 338 154 285 235 q 494 74 392 74 q 685 177 606 74 q 794 451 764 281 z "},"Ớ":{"ha":1031,"x_min":69,"x_max":1068,"o":"m 1044 1103 q 1068 1025 1068 1069 q 1019 914 1068 958 q 894 861 971 869 q 988 733 956 808 q 1021 560 1021 657 q 1008 439 1021 504 q 910 206 983 308 q 724 46 836 104 q 476 -12 613 -12 q 260 37 351 -12 q 119 176 168 86 q 69 383 69 265 q 82 503 69 440 q 182 738 107 636 q 368 896 257 840 q 611 951 479 951 l 658 951 l 658 951 q 819 933 761 933 q 895 951 871 933 q 926 1008 919 969 q 931 1047 931 1029 q 926 1088 931 1067 q 1021 1104 974 1104 q 1044 1103 1038 1104 m 794 451 q 806 569 806 518 q 748 785 806 703 q 592 868 690 868 q 408 769 488 868 q 299 511 329 671 q 285 368 285 440 q 338 154 285 235 q 494 74 392 74 q 685 177 606 74 q 794 451 764 281 m 635 1015 q 540 1050 582 1019 q 606 1140 575 1090 q 650 1222 636 1189 q 713 1225 671 1225 q 842 1204 796 1225 q 635 1015 715 1094 z "},"Ợ":{"ha":1031,"x_min":69,"x_max":1068,"o":"m 1044 1103 q 1068 1025 1068 1069 q 1019 914 1068 958 q 894 861 971 869 q 988 733 956 808 q 1021 560 1021 657 q 1008 439 1021 504 q 910 206 983 308 q 724 46 836 104 q 476 -12 613 -12 q 260 37 351 -12 q 119 176 168 86 q 69 383 69 265 q 82 503 69 440 q 182 738 107 636 q 368 896 257 840 q 611 951 479 951 l 658 951 l 658 951 q 819 933 761 933 q 895 951 871 933 q 926 1008 919 969 q 931 1047 931 1029 q 926 1088 931 1067 q 1021 1104 974 1104 q 1044 1103 1038 1104 m 794 451 q 806 569 806 518 q 748 785 806 703 q 592 868 690 868 q 408 769 488 868 q 299 511 329 671 q 285 368 285 440 q 338 154 285 235 q 494 74 392 74 q 685 177 606 74 q 794 451 764 281 m 425 -321 q 351 -297 376 -321 q 325 -233 325 -274 q 361 -143 325 -176 q 453 -110 397 -110 q 526 -133 500 -110 q 553 -199 553 -157 q 517 -288 553 -256 q 425 -321 482 -321 z "},"Ờ":{"ha":1031,"x_min":69,"x_max":1068,"o":"m 1044 1103 q 1068 1025 1068 1069 q 1019 914 1068 958 q 894 861 971 869 q 988 733 956 808 q 1021 560 1021 657 q 1008 439 1021 504 q 910 206 983 308 q 724 46 836 104 q 476 -12 613 -12 q 260 37 351 -12 q 119 176 168 86 q 69 383 69 265 q 82 503 69 440 q 182 738 107 636 q 368 896 257 840 q 611 951 479 951 l 658 951 l 658 951 q 819 933 761 933 q 895 951 871 933 q 926 1008 919 969 q 931 1047 931 1029 q 926 1088 931 1067 q 1021 1104 974 1104 q 1044 1103 1038 1104 m 794 451 q 806 569 806 518 q 748 785 806 703 q 592 868 690 868 q 408 769 488 868 q 299 511 329 671 q 285 368 285 440 q 338 154 285 235 q 494 74 392 74 q 685 177 606 74 q 794 451 764 281 m 711 1028 q 657 1021 688 1021 q 597 1029 622 1021 q 539 1111 578 1064 q 463 1197 500 1158 q 578 1213 517 1213 q 642 1207 614 1213 q 711 1028 672 1099 z "},"Ở":{"ha":1031,"x_min":69,"x_max":1068,"o":"m 1044 1103 q 1068 1025 1068 1069 q 1019 914 1068 958 q 894 861 971 869 q 988 733 956 808 q 1021 560 1021 657 q 1008 439 1021 504 q 910 206 983 308 q 724 46 836 104 q 476 -12 613 -12 q 260 37 351 -12 q 119 176 168 86 q 69 383 69 265 q 82 503 69 440 q 182 738 107 636 q 368 896 257 840 q 611 951 479 951 l 658 951 l 658 951 q 819 933 761 933 q 895 951 871 933 q 926 1008 919 969 q 931 1047 931 1029 q 926 1088 931 1067 q 1021 1104 974 1104 q 1044 1103 1038 1104 m 794 451 q 806 569 806 518 q 748 785 806 703 q 592 868 690 868 q 408 769 488 868 q 299 511 329 671 q 285 368 285 440 q 338 154 285 235 q 494 74 392 74 q 685 177 606 74 q 794 451 764 281 m 594 1011 q 589 1042 589 1022 q 603 1085 589 1071 q 647 1115 618 1099 q 678 1135 668 1128 q 693 1154 689 1142 q 696 1167 696 1163 q 687 1182 696 1176 q 664 1188 678 1188 q 586 1107 610 1188 q 506 1125 529 1110 q 524 1211 524 1179 q 685 1247 601 1247 q 779 1227 746 1247 q 813 1174 813 1207 q 808 1149 813 1161 q 778 1099 799 1117 q 724 1064 757 1082 q 692 1046 701 1053 q 681 1029 683 1039 q 678 1006 676 1017 q 649 1003 661 1003 q 594 1011 615 1003 z "},"Ỡ":{"ha":1031,"x_min":69,"x_max":1068,"o":"m 1044 1103 q 1068 1025 1068 1069 q 1019 914 1068 958 q 894 861 971 869 q 988 733 956 808 q 1021 560 1021 657 q 1008 439 1021 504 q 910 206 983 308 q 724 46 836 104 q 476 -12 613 -12 q 260 37 351 -12 q 119 176 168 86 q 69 383 69 265 q 82 503 69 440 q 182 738 107 636 q 368 896 257 840 q 611 951 479 951 l 658 951 l 658 951 q 819 933 761 933 q 895 951 871 933 q 926 1008 919 969 q 931 1047 931 1029 q 926 1088 931 1067 q 1021 1104 974 1104 q 1044 1103 1038 1104 m 794 451 q 806 569 806 518 q 748 785 806 703 q 592 868 690 868 q 408 769 488 868 q 299 511 329 671 q 285 368 285 440 q 338 154 285 235 q 494 74 392 74 q 685 177 606 74 q 794 451 764 281 m 717 1029 q 663 1038 685 1029 q 613 1063 640 1046 q 574 1083 590 1076 q 536 1089 557 1089 q 419 1032 485 1089 q 396 1103 396 1067 q 397 1124 396 1117 q 492 1187 442 1168 q 586 1206 542 1206 q 641 1198 618 1206 q 696 1174 664 1190 q 734 1156 718 1163 q 768 1150 750 1150 q 861 1201 813 1150 q 919 1149 904 1181 q 824 1059 875 1089 q 717 1029 772 1029 z "},"Ő":{"ha":1031,"x_min":69,"x_max":1021,"o":"m 476 -12 q 260 37 351 -12 q 119 176 168 86 q 69 383 69 265 q 82 503 69 440 q 182 738 107 636 q 368 896 257 840 q 611 951 479 951 q 826 905 733 951 q 970 770 919 858 q 1021 561 1021 682 q 1008 439 1021 504 q 910 206 983 308 q 724 46 836 104 q 476 -12 613 -12 m 494 74 q 685 177 606 74 q 794 451 764 281 q 806 569 806 518 q 748 785 806 703 q 592 868 690 868 q 408 769 488 868 q 299 511 329 671 q 285 368 285 440 q 338 154 285 235 q 494 74 392 74 m 553 1021 q 458 1057 501 1025 q 522 1142 492 1094 q 567 1222 551 1190 q 628 1225 588 1225 q 758 1204 713 1225 q 553 1021 633 1096 m 804 1021 q 708 1057 754 1025 q 772 1142 742 1094 q 818 1222 803 1189 q 879 1225 839 1225 q 1010 1204 964 1225 q 804 1021 913 1122 z "},"Ȏ":{"ha":1031,"x_min":69,"x_max":1021,"o":"m 476 -12 q 260 37 351 -12 q 119 176 168 86 q 69 383 69 265 q 82 503 69 440 q 182 738 107 636 q 368 896 257 840 q 611 951 479 951 q 826 905 733 951 q 970 770 919 858 q 1021 561 1021 682 q 1008 439 1021 504 q 910 206 983 308 q 724 46 836 104 q 476 -12 613 -12 m 494 74 q 685 177 606 74 q 794 451 764 281 q 806 569 806 518 q 748 785 806 703 q 592 868 690 868 q 408 769 488 868 q 299 511 329 671 q 285 368 285 440 q 338 154 285 235 q 494 74 392 74 m 692 1214 q 856 1174 800 1214 q 913 1058 913 1135 q 908 1014 913 1038 q 825 1000 869 1000 q 801 1001 810 1000 q 764 1072 803 1047 q 656 1097 725 1097 q 541 1072 586 1097 q 482 1001 496 1047 q 451 999 460 999 q 394 1010 417 999 q 490 1162 414 1110 q 692 1214 565 1214 z "},"Ō":{"ha":1031,"x_min":69,"x_max":1021,"o":"m 476 -12 q 260 37 351 -12 q 119 176 168 86 q 69 383 69 265 q 82 503 69 440 q 182 738 107 636 q 368 896 257 840 q 611 951 479 951 q 826 905 733 951 q 970 770 919 858 q 1021 561 1021 682 q 1008 439 1021 504 q 910 206 983 308 q 724 46 836 104 q 476 -12 613 -12 m 494 74 q 685 177 606 74 q 794 451 764 281 q 806 569 806 518 q 748 785 806 703 q 592 868 690 868 q 408 769 488 868 q 299 511 329 671 q 285 368 285 440 q 338 154 285 235 q 494 74 392 74 m 400 1063 q 413 1139 400 1113 l 906 1139 q 893 1069 906 1106 q 400 1063 604 1069 z "},"Ṓ":{"ha":1031,"x_min":69,"x_max":1021,"o":"m 476 -12 q 260 37 351 -12 q 119 176 168 86 q 69 383 69 265 q 82 503 69 440 q 182 738 107 636 q 368 896 257 840 q 611 951 479 951 q 826 905 733 951 q 970 770 919 858 q 1021 561 1021 682 q 1008 439 1021 504 q 910 206 983 308 q 724 46 836 104 q 476 -12 613 -12 m 494 74 q 685 177 606 74 q 794 451 764 281 q 806 569 806 518 q 748 785 806 703 q 592 868 690 868 q 408 769 488 868 q 299 511 329 671 q 285 368 285 440 q 338 154 285 235 q 494 74 392 74 m 400 1063 q 413 1139 400 1113 l 906 1139 q 893 1069 906 1106 q 400 1063 604 1069 m 674 1215 q 579 1250 621 1219 q 644 1340 614 1290 q 689 1422 675 1389 q 751 1425 710 1425 q 881 1404 835 1425 q 674 1215 754 1294 z "},"Ṑ":{"ha":1031,"x_min":69,"x_max":1021,"o":"m 476 -12 q 260 37 351 -12 q 119 176 168 86 q 69 383 69 265 q 82 503 69 440 q 182 738 107 636 q 368 896 257 840 q 611 951 479 951 q 826 905 733 951 q 970 770 919 858 q 1021 561 1021 682 q 1008 439 1021 504 q 910 206 983 308 q 724 46 836 104 q 476 -12 613 -12 m 494 74 q 685 177 606 74 q 794 451 764 281 q 806 569 806 518 q 748 785 806 703 q 592 868 690 868 q 408 769 488 868 q 299 511 329 671 q 285 368 285 440 q 338 154 285 235 q 494 74 392 74 m 400 1063 q 413 1139 400 1113 l 906 1139 q 893 1069 906 1106 q 400 1063 604 1069 m 750 1228 q 696 1221 726 1221 q 636 1229 661 1221 q 578 1311 617 1264 q 501 1397 539 1358 q 617 1413 556 1413 q 681 1407 653 1413 q 750 1228 711 1299 z "},"Ǫ":{"ha":1031,"x_min":69,"x_max":1021,"o":"m 611 951 q 826 905 733 951 q 970 770 919 858 q 1021 561 1021 682 q 1008 439 1021 504 q 888 177 979 289 q 660 18 796 65 q 567 -53 600 -10 q 533 -139 533 -96 q 552 -187 533 -169 q 604 -206 571 -206 q 647 -194 632 -206 q 682 -268 674 -221 q 561 -344 607 -301 q 531 -347 550 -347 q 400 -315 449 -347 q 351 -218 351 -283 q 469 -12 351 -104 q 257 39 347 -11 q 118 178 167 89 q 69 383 69 267 q 82 504 69 442 q 182 739 107 638 q 369 896 257 840 q 611 951 481 951 m 794 451 q 806 569 806 518 q 748 785 806 703 q 592 868 690 868 q 408 769 488 868 q 299 511 329 671 q 285 368 285 440 q 338 154 285 235 q 494 74 392 74 q 685 177 606 74 q 794 451 764 281 z "},"Ø":{"ha":1031,"x_min":69,"x_max":1021,"o":"m 932 824 q 1021 561 1021 722 q 1008 439 1021 504 q 910 206 983 308 q 724 46 836 104 q 476 -12 613 -12 q 222 60 325 -12 l 178 10 l 158 -12 q 103 1 128 -12 q 69 35 78 14 l 153 124 q 69 383 69 226 q 82 504 69 442 q 181 738 107 636 q 367 895 256 839 q 611 951 478 951 q 864 883 761 951 l 928 951 q 1019 911 993 951 l 932 824 m 299 511 q 283 365 283 431 q 292 272 283 317 l 758 769 q 687 842 729 817 q 592 868 644 868 q 408 769 488 868 q 299 511 329 671 m 794 451 q 806 569 806 518 q 793 681 806 631 q 325 176 556 435 q 494 74 381 74 q 685 177 606 74 q 794 451 764 281 z "},"Ǿ":{"ha":1031,"x_min":69,"x_max":1021,"o":"m 932 824 q 1021 561 1021 722 q 1008 439 1021 504 q 910 206 983 308 q 724 46 836 104 q 476 -12 613 -12 q 222 60 325 -12 l 178 10 l 158 -12 q 103 1 128 -12 q 69 35 78 14 l 153 124 q 69 383 69 226 q 82 504 69 442 q 181 738 107 636 q 367 895 256 839 q 611 951 478 951 q 864 883 761 951 l 928 951 q 1019 911 993 951 l 932 824 m 299 511 q 283 365 283 431 q 292 272 283 317 l 758 769 q 687 842 729 817 q 592 868 644 868 q 408 769 488 868 q 299 511 329 671 m 794 451 q 806 569 806 518 q 793 681 806 631 q 325 176 556 435 q 494 74 381 74 q 685 177 606 74 q 794 451 764 281 m 625 1015 q 531 1050 572 1019 q 596 1140 565 1090 q 640 1222 626 1189 q 703 1225 661 1225 q 832 1204 786 1225 q 625 1015 706 1094 z "},"Õ":{"ha":1031,"x_min":69,"x_max":1021,"o":"m 476 -12 q 260 37 351 -12 q 119 176 168 86 q 69 383 69 265 q 82 503 69 440 q 182 738 107 636 q 368 896 257 840 q 611 951 479 951 q 826 905 733 951 q 970 770 919 858 q 1021 561 1021 682 q 1008 439 1021 504 q 910 206 983 308 q 724 46 836 104 q 476 -12 613 -12 m 494 74 q 685 177 606 74 q 794 451 764 281 q 806 569 806 518 q 748 785 806 703 q 592 868 690 868 q 408 769 488 868 q 299 511 329 671 q 285 368 285 440 q 338 154 285 235 q 494 74 392 74 m 717 1029 q 663 1038 685 1029 q 613 1063 640 1046 q 574 1083 590 1076 q 536 1089 557 1089 q 419 1032 485 1089 q 396 1103 396 1067 q 397 1124 396 1117 q 492 1187 442 1168 q 586 1206 542 1206 q 641 1198 618 1206 q 696 1174 664 1190 q 734 1156 718 1163 q 768 1150 750 1150 q 861 1201 813 1150 q 919 1149 904 1181 q 824 1059 875 1089 q 717 1029 772 1029 z "},"Ṍ":{"ha":1031,"x_min":69,"x_max":1021,"o":"m 476 -12 q 260 37 351 -12 q 119 176 168 86 q 69 383 69 265 q 82 503 69 440 q 182 738 107 636 q 368 896 257 840 q 611 951 479 951 q 826 905 733 951 q 970 770 919 858 q 1021 561 1021 682 q 1008 439 1021 504 q 910 206 983 308 q 724 46 836 104 q 476 -12 613 -12 m 494 74 q 685 177 606 74 q 794 451 764 281 q 806 569 806 518 q 748 785 806 703 q 592 868 690 868 q 408 769 488 868 q 299 511 329 671 q 285 368 285 440 q 338 154 285 235 q 494 74 392 74 m 717 1029 q 663 1038 685 1029 q 613 1063 640 1046 q 574 1083 590 1076 q 536 1089 557 1089 q 419 1032 485 1089 q 396 1103 396 1067 q 397 1124 396 1117 q 492 1187 442 1168 q 586 1206 542 1206 q 641 1198 618 1206 q 696 1174 664 1190 q 734 1156 718 1163 q 768 1150 750 1150 q 861 1201 813 1150 q 919 1149 904 1181 q 824 1059 875 1089 q 717 1029 772 1029 m 682 1268 q 588 1303 629 1272 q 653 1392 622 1343 q 697 1475 683 1442 q 760 1478 718 1478 q 889 1457 843 1478 q 682 1268 763 1347 z "},"Ṏ":{"ha":1031,"x_min":69,"x_max":1021,"o":"m 476 -12 q 260 37 351 -12 q 119 176 168 86 q 69 383 69 265 q 82 503 69 440 q 182 738 107 636 q 368 896 257 840 q 611 951 479 951 q 826 905 733 951 q 970 770 919 858 q 1021 561 1021 682 q 1008 439 1021 504 q 910 206 983 308 q 724 46 836 104 q 476 -12 613 -12 m 494 74 q 685 177 606 74 q 794 451 764 281 q 806 569 806 518 q 748 785 806 703 q 592 868 690 868 q 408 769 488 868 q 299 511 329 671 q 285 368 285 440 q 338 154 285 235 q 494 74 392 74 m 717 1029 q 663 1038 685 1029 q 613 1063 640 1046 q 574 1083 590 1076 q 536 1089 557 1089 q 419 1032 485 1089 q 396 1103 396 1067 q 397 1124 396 1117 q 492 1187 442 1168 q 586 1206 542 1206 q 641 1198 618 1206 q 696 1174 664 1190 q 734 1156 718 1163 q 768 1150 750 1150 q 861 1201 813 1150 q 919 1149 904 1181 q 824 1059 875 1089 q 717 1029 772 1029 m 549 1260 q 478 1286 504 1260 q 453 1356 453 1313 q 551 1456 453 1456 q 622 1432 596 1456 q 649 1367 649 1408 q 647 1344 649 1353 q 549 1260 632 1260 m 850 1260 q 778 1285 804 1260 q 753 1356 753 1311 q 779 1430 753 1404 q 857 1456 806 1456 q 927 1431 901 1456 q 953 1364 953 1407 q 926 1287 953 1314 q 850 1260 899 1260 z "},"Ȭ":{"ha":1031,"x_min":69,"x_max":1021,"o":"m 476 -12 q 260 37 351 -12 q 119 176 168 86 q 69 383 69 265 q 82 503 69 440 q 182 738 107 636 q 368 896 257 840 q 611 951 479 951 q 826 905 733 951 q 970 770 919 858 q 1021 561 1021 682 q 1008 439 1021 504 q 910 206 983 308 q 724 46 836 104 q 476 -12 613 -12 m 494 74 q 685 177 606 74 q 794 451 764 281 q 806 569 806 518 q 748 785 806 703 q 592 868 690 868 q 408 769 488 868 q 299 511 329 671 q 285 368 285 440 q 338 154 285 235 q 494 74 392 74 m 717 1029 q 663 1038 685 1029 q 613 1063 640 1046 q 574 1083 590 1076 q 536 1089 557 1089 q 419 1032 485 1089 q 396 1103 396 1067 q 397 1124 396 1117 q 492 1187 442 1168 q 586 1206 542 1206 q 641 1198 618 1206 q 696 1174 664 1190 q 734 1156 718 1163 q 768 1150 750 1150 q 861 1201 813 1150 q 919 1149 904 1181 q 824 1059 875 1089 q 717 1029 772 1029 m 449 1315 q 461 1392 449 1365 l 954 1392 q 942 1322 954 1358 q 449 1315 653 1322 z "},"Œ":{"ha":1392,"x_min":69,"x_max":1414,"o":"m 1299 689 q 1283 784 1296 750 q 1231 836 1269 818 q 1117 854 1193 854 l 889 854 q 967 733 940 806 q 994 572 994 661 q 992 518 994 554 l 1010 518 q 1115 539 1085 518 q 1156 622 1146 560 q 1219 628 1183 628 q 1253 626 1242 628 q 1222 460 1231 528 q 1207 303 1210 368 q 1114 322 1150 306 q 1093 408 1117 381 q 1000 435 1069 435 l 978 435 q 904 235 956 325 q 776 85 853 144 l 1026 85 q 1133 103 1092 85 q 1203 163 1175 122 q 1258 272 1231 203 q 1350 232 1325 261 l 1340 196 q 1292 -4 1304 78 q 951 0 1210 0 q 740 -6 876 0 q 476 -12 613 -12 l 475 -12 l 474 -12 l 471 -12 l 471 -12 q 253 40 343 -11 q 116 180 163 92 q 69 382 69 268 q 82 503 69 440 q 184 742 110 640 q 368 897 258 843 q 607 951 478 951 l 610 951 l 611 951 l 615 951 q 701 950 656 951 q 769 947 746 949 q 1069 939 908 939 q 1414 943 1271 939 q 1401 761 1401 843 q 1403 703 1401 721 q 1299 689 1354 689 m 778 451 q 789 582 789 514 q 738 792 789 715 q 592 868 686 868 q 408 770 485 868 q 299 511 331 672 q 283 367 283 432 q 337 154 283 235 q 490 74 390 74 q 674 176 600 74 q 778 451 749 278 z "},"P":{"ha":857,"x_min":28,"x_max":897,"o":"m 632 943 q 829 879 761 943 q 897 699 897 815 q 889 613 897 658 q 763 401 865 481 q 507 322 661 322 q 428 338 454 322 q 432 378 426 353 q 444 417 438 403 q 490 410 461 410 q 616 463 563 410 q 688 614 669 517 q 696 690 696 656 q 657 814 696 771 q 539 857 618 857 q 468 847 497 857 l 363 231 q 354 160 354 172 q 378 108 354 125 q 468 81 401 90 q 474 31 474 58 q 472 -4 474 8 q 257 0 399 0 q 28 -4 97 0 q 46 82 31 44 q 105 100 86 88 q 134 140 124 113 q 156 231 144 167 l 242 731 q 249 788 249 768 q 231 836 249 821 q 167 858 213 851 q 161 907 161 886 q 164 943 161 918 q 382 939 232 939 l 482 940 q 632 943 571 943 z "},"Þ":{"ha":876,"x_min":26,"x_max":869,"o":"m 585 754 q 801 695 733 754 q 869 539 869 636 q 864 482 869 521 q 801 342 850 404 q 675 244 753 279 q 500 208 597 208 q 407 226 436 208 q 424 303 407 272 q 471 297 442 297 q 592 343 540 297 q 663 479 644 389 q 668 532 668 503 q 629 635 668 599 q 514 671 590 671 q 436 660 476 671 l 360 215 q 354 161 354 188 q 378 106 354 124 q 468 81 403 88 q 472 28 472 56 q 471 -4 472 7 q 247 0 394 0 q 26 -4 117 0 q 46 81 31 44 q 103 97 85 86 q 131 132 121 107 q 151 213 142 157 l 240 728 q 247 788 247 767 q 229 838 247 824 q 165 858 211 851 q 161 906 161 879 q 164 943 161 918 q 365 939 224 939 q 571 943 501 939 q 554 858 568 894 q 485 831 504 851 q 453 753 465 811 l 585 754 z "},"Q":{"ha":1031,"x_min":71,"x_max":1039,"o":"m 997 -137 q 1024 -168 1013 -149 q 1039 -207 1036 -187 q 951 -277 1004 -250 q 836 -304 897 -304 q 720 -273 767 -304 q 640 -168 674 -242 q 567 -60 608 -97 q 461 -12 526 -22 q 252 40 340 -10 q 117 178 164 90 q 71 383 71 267 q 82 503 71 447 q 182 738 107 636 q 368 896 257 840 q 611 951 479 951 q 826 905 733 951 q 970 770 919 858 q 1021 561 1021 682 q 1008 439 1021 504 q 883 173 979 286 q 647 14 788 60 q 742 -30 696 0 q 849 -114 788 -60 q 901 -153 882 -144 q 943 -161 919 -162 q 997 -137 971 -161 m 299 511 q 285 368 285 440 q 338 154 285 235 q 494 74 392 74 q 685 177 606 74 q 794 451 764 281 q 806 569 806 518 q 748 785 806 703 q 592 868 690 868 q 408 769 488 868 q 299 511 329 671 z "},"R":{"ha":974,"x_min":26,"x_max":917,"o":"m 874 154 q 901 124 889 143 q 917 86 913 104 q 706 -12 831 -12 q 600 31 638 -12 q 529 179 563 74 q 482 301 504 254 q 429 390 460 349 l 389 390 l 358 210 q 350 140 350 167 q 363 99 350 111 q 413 81 376 88 q 417 26 417 54 q 415 -4 417 6 q 229 0 340 0 q 26 -4 117 0 q 46 81 31 47 q 103 97 83 85 q 133 139 122 110 q 154 231 143 168 l 240 731 q 247 790 247 769 q 230 837 247 821 q 165 858 213 853 q 161 903 161 879 q 164 943 161 915 q 375 939 232 939 q 481 942 400 939 q 617 944 572 944 q 833 884 756 944 q 910 722 910 824 q 906 671 910 699 q 813 506 888 572 q 621 415 739 439 q 683 339 656 383 q 740 221 710 294 q 778 154 760 174 q 819 135 797 135 q 874 154 847 135 m 406 486 q 449 485 422 485 q 606 536 542 485 q 686 678 669 588 q 692 729 692 701 q 656 826 692 793 q 556 860 619 860 q 467 844 507 860 l 406 486 z "},"Ŕ":{"ha":974,"x_min":26,"x_max":917,"o":"m 874 154 q 901 124 889 143 q 917 86 913 104 q 706 -12 831 -12 q 600 31 638 -12 q 529 179 563 74 q 482 301 504 254 q 429 390 460 349 l 389 390 l 358 210 q 350 140 350 167 q 363 99 350 111 q 413 81 376 88 q 417 26 417 54 q 415 -4 417 6 q 229 0 340 0 q 26 -4 117 0 q 46 81 31 47 q 103 97 83 85 q 133 139 122 110 q 154 231 143 168 l 240 731 q 247 790 247 769 q 230 837 247 821 q 165 858 213 853 q 161 903 161 879 q 164 943 161 915 q 375 939 232 939 q 481 942 400 939 q 617 944 572 944 q 833 884 756 944 q 910 722 910 824 q 906 671 910 699 q 813 506 888 572 q 621 415 739 439 q 683 339 656 383 q 740 221 710 294 q 778 154 760 174 q 819 135 797 135 q 874 154 847 135 m 406 486 q 449 485 422 485 q 606 536 542 485 q 686 678 669 588 q 692 729 692 701 q 656 826 692 793 q 556 860 619 860 q 467 844 507 860 l 406 486 m 565 1015 q 471 1050 513 1019 q 536 1140 506 1090 q 581 1222 567 1189 q 643 1225 601 1225 q 772 1204 726 1225 q 565 1015 646 1094 z "},"Ř":{"ha":974,"x_min":26,"x_max":917,"o":"m 874 154 q 901 124 889 143 q 917 86 913 104 q 706 -12 831 -12 q 600 31 638 -12 q 529 179 563 74 q 482 301 504 254 q 429 390 460 349 l 389 390 l 358 210 q 350 140 350 167 q 363 99 350 111 q 413 81 376 88 q 417 26 417 54 q 415 -4 417 6 q 229 0 340 0 q 26 -4 117 0 q 46 81 31 47 q 103 97 83 85 q 133 139 122 110 q 154 231 143 168 l 240 731 q 247 790 247 769 q 230 837 247 821 q 165 858 213 853 q 161 903 161 879 q 164 943 161 915 q 375 939 232 939 q 481 942 400 939 q 617 944 572 944 q 833 884 756 944 q 910 722 910 824 q 906 671 910 699 q 813 506 888 572 q 621 415 739 439 q 683 339 656 383 q 740 221 710 294 q 778 154 760 174 q 819 135 797 135 q 874 154 847 135 m 406 486 q 449 485 422 485 q 606 536 542 485 q 686 678 669 588 q 692 729 692 701 q 656 826 692 793 q 556 860 619 860 q 467 844 507 860 l 406 486 m 519 1013 q 339 1175 442 1099 q 411 1236 357 1231 q 589 1151 490 1188 q 779 1236 679 1176 q 813 1213 797 1231 q 839 1175 829 1196 q 606 1025 694 1090 q 542 1011 578 1011 q 519 1013 526 1011 z "},"Ŗ":{"ha":974,"x_min":26,"x_max":917,"o":"m 874 154 q 901 124 889 143 q 917 86 913 104 q 706 -12 831 -12 q 600 31 638 -12 q 529 179 563 74 q 482 301 504 254 q 429 390 460 349 l 389 390 l 358 210 q 350 140 350 167 q 363 99 350 111 q 413 81 376 88 q 417 26 417 54 q 415 -4 417 6 q 229 0 340 0 q 26 -4 117 0 q 46 81 31 47 q 103 97 83 85 q 133 139 122 110 q 154 231 143 168 l 240 731 q 247 790 247 769 q 230 837 247 821 q 165 858 213 853 q 161 903 161 879 q 164 943 161 915 q 375 939 232 939 q 481 942 400 939 q 617 944 572 944 q 833 884 756 944 q 910 722 910 824 q 906 671 910 699 q 813 506 888 572 q 621 415 739 439 q 683 339 656 383 q 740 221 710 294 q 778 154 760 174 q 819 135 797 135 q 874 154 847 135 m 406 486 q 449 485 422 485 q 606 536 542 485 q 686 678 669 588 q 692 729 692 701 q 656 826 692 793 q 556 860 619 860 q 467 844 507 860 l 406 486 m 376 -415 q 319 -375 335 -407 q 377 -318 354 -349 q 404 -262 400 -287 q 340 -207 410 -215 q 374 -97 340 -146 q 525 -56 467 -90 q 562 -81 550 -64 q 574 -128 574 -99 q 571 -161 574 -136 q 376 -415 547 -306 z "},"Ȑ":{"ha":974,"x_min":26,"x_max":917,"o":"m 874 154 q 901 124 889 143 q 917 86 913 104 q 706 -12 831 -12 q 600 31 638 -12 q 529 179 563 74 q 482 301 504 254 q 429 390 460 349 l 389 390 l 358 210 q 350 140 350 167 q 363 99 350 111 q 413 81 376 88 q 417 26 417 54 q 415 -4 417 6 q 229 0 340 0 q 26 -4 117 0 q 46 81 31 47 q 103 97 83 85 q 133 139 122 110 q 154 231 143 168 l 240 731 q 247 790 247 769 q 230 837 247 821 q 165 858 213 853 q 161 903 161 879 q 164 943 161 915 q 375 939 232 939 q 481 942 400 939 q 617 944 572 944 q 833 884 756 944 q 910 722 910 824 q 906 671 910 699 q 813 506 888 572 q 621 415 739 439 q 683 339 656 383 q 740 221 710 294 q 778 154 760 174 q 819 135 797 135 q 874 154 847 135 m 406 486 q 449 485 422 485 q 606 536 542 485 q 686 678 669 588 q 692 729 692 701 q 656 826 692 793 q 556 860 619 860 q 467 844 507 860 l 406 486 m 685 1006 q 567 1182 614 1119 q 657 1194 604 1194 q 722 1189 681 1194 q 782 1004 754 1067 q 738 1001 754 1001 q 685 1006 714 1001 m 440 1006 q 314 1179 368 1114 q 415 1193 354 1193 q 478 1189 449 1193 q 538 1004 510 1067 q 493 1001 507 1001 q 440 1006 469 1001 z "},"Ṛ":{"ha":974,"x_min":26,"x_max":917,"o":"m 874 154 q 901 124 889 143 q 917 86 913 104 q 706 -12 831 -12 q 600 31 638 -12 q 529 179 563 74 q 482 301 504 254 q 429 390 460 349 l 389 390 l 358 210 q 350 140 350 167 q 363 99 350 111 q 413 81 376 88 q 417 26 417 54 q 415 -4 417 6 q 229 0 340 0 q 26 -4 117 0 q 46 81 31 47 q 103 97 83 85 q 133 139 122 110 q 154 231 143 168 l 240 731 q 247 790 247 769 q 230 837 247 821 q 165 858 213 853 q 161 903 161 879 q 164 943 161 915 q 375 939 232 939 q 481 942 400 939 q 617 944 572 944 q 833 884 756 944 q 910 722 910 824 q 906 671 910 699 q 813 506 888 572 q 621 415 739 439 q 683 339 656 383 q 740 221 710 294 q 778 154 760 174 q 819 135 797 135 q 874 154 847 135 m 406 486 q 449 485 422 485 q 606 536 542 485 q 686 678 669 588 q 692 729 692 701 q 656 826 692 793 q 556 860 619 860 q 467 844 507 860 l 406 486 m 435 -321 q 360 -297 386 -321 q 335 -233 335 -274 q 371 -143 335 -176 q 463 -110 407 -110 q 536 -133 510 -110 q 563 -199 563 -157 q 527 -288 563 -256 q 435 -321 492 -321 z "},"Ȓ":{"ha":974,"x_min":26,"x_max":917,"o":"m 874 154 q 901 124 889 143 q 917 86 913 104 q 706 -12 831 -12 q 600 31 638 -12 q 529 179 563 74 q 482 301 504 254 q 429 390 460 349 l 389 390 l 358 210 q 350 140 350 167 q 363 99 350 111 q 413 81 376 88 q 417 26 417 54 q 415 -4 417 6 q 229 0 340 0 q 26 -4 117 0 q 46 81 31 47 q 103 97 83 85 q 133 139 122 110 q 154 231 143 168 l 240 731 q 247 790 247 769 q 230 837 247 821 q 165 858 213 853 q 161 903 161 879 q 164 943 161 915 q 375 939 232 939 q 481 942 400 939 q 617 944 572 944 q 833 884 756 944 q 910 722 910 824 q 906 671 910 699 q 813 506 888 572 q 621 415 739 439 q 683 339 656 383 q 740 221 710 294 q 778 154 760 174 q 819 135 797 135 q 874 154 847 135 m 406 486 q 449 485 422 485 q 606 536 542 485 q 686 678 669 588 q 692 729 692 701 q 656 826 692 793 q 556 860 619 860 q 467 844 507 860 l 406 486 m 624 1214 q 788 1174 732 1214 q 844 1058 844 1135 q 840 1014 844 1038 q 757 1000 801 1000 q 733 1001 742 1000 q 696 1072 735 1047 q 588 1097 657 1097 q 473 1072 518 1097 q 414 1001 428 1047 q 383 999 392 999 q 326 1010 349 999 q 422 1162 346 1110 q 624 1214 497 1214 z "},"Ṟ":{"ha":974,"x_min":26,"x_max":917,"o":"m 874 154 q 901 124 889 143 q 917 86 913 104 q 706 -12 831 -12 q 600 31 638 -12 q 529 179 563 74 q 482 301 504 254 q 429 390 460 349 l 389 390 l 358 210 q 350 140 350 167 q 363 99 350 111 q 413 81 376 88 q 417 26 417 54 q 415 -4 417 6 q 229 0 340 0 q 26 -4 117 0 q 46 81 31 47 q 103 97 83 85 q 133 139 122 110 q 154 231 143 168 l 240 731 q 247 790 247 769 q 230 837 247 821 q 165 858 213 853 q 161 903 161 879 q 164 943 161 915 q 375 939 232 939 q 481 942 400 939 q 617 944 572 944 q 833 884 756 944 q 910 722 910 824 q 906 671 910 699 q 813 506 888 572 q 621 415 739 439 q 683 339 656 383 q 740 221 710 294 q 778 154 760 174 q 819 135 797 135 q 874 154 847 135 m 406 486 q 449 485 422 485 q 606 536 542 485 q 686 678 669 588 q 692 729 692 701 q 656 826 692 793 q 556 860 619 860 q 467 844 507 860 l 406 486 m 196 -249 q 208 -171 196 -197 l 701 -171 q 689 -242 701 -204 q 196 -249 401 -242 z "},"S":{"ha":692,"x_min":-4,"x_max":683,"o":"m 293 -12 q 125 10 189 -12 q -4 86 61 33 q 43 292 33 192 q 110 300 74 300 q 164 294 142 300 q 163 251 163 279 q 199 120 163 161 q 314 79 235 79 q 405 109 365 79 q 453 185 444 139 q 456 213 456 204 q 420 301 456 265 q 311 386 385 338 q 208 463 247 429 q 140 547 168 496 q 113 667 113 597 q 118 732 113 700 q 226 894 136 836 q 447 951 315 951 q 585 933 524 951 q 683 885 647 914 q 668 686 667 765 q 588 674 631 674 q 550 676 575 674 q 414 863 546 863 q 285 764 303 863 q 283 743 283 757 q 320 658 283 694 q 435 574 357 622 q 547 496 504 529 q 619 411 589 463 q 650 290 650 360 q 644 235 650 274 q 582 105 632 161 q 457 18 532 49 q 293 -12 382 -12 z "},"Ś":{"ha":692,"x_min":-4,"x_max":683,"o":"m 293 -12 q 125 10 189 -12 q -4 86 61 33 q 43 292 33 192 q 110 300 74 300 q 164 294 142 300 q 163 251 163 279 q 199 120 163 161 q 314 79 235 79 q 405 109 365 79 q 453 185 444 139 q 456 213 456 204 q 420 301 456 265 q 311 386 385 338 q 208 463 247 429 q 140 547 168 496 q 113 667 113 597 q 118 732 113 700 q 226 894 136 836 q 447 951 315 951 q 585 933 524 951 q 683 885 647 914 q 668 686 667 765 q 588 674 631 674 q 550 676 575 674 q 414 863 546 863 q 285 764 303 863 q 283 743 283 757 q 320 658 283 694 q 435 574 357 622 q 547 496 504 529 q 619 411 589 463 q 650 290 650 360 q 644 235 650 274 q 582 105 632 161 q 457 18 532 49 q 293 -12 382 -12 m 451 1015 q 357 1050 399 1019 q 422 1140 392 1090 q 467 1222 453 1189 q 529 1225 488 1225 q 658 1204 613 1225 q 451 1015 532 1094 z "},"Ṥ":{"ha":692,"x_min":-4,"x_max":683,"o":"m 293 -12 q 125 10 189 -12 q -4 86 61 33 q 43 292 33 192 q 110 300 74 300 q 164 294 142 300 q 163 251 163 279 q 199 120 163 161 q 314 79 235 79 q 405 109 365 79 q 453 185 444 139 q 456 213 456 204 q 420 301 456 265 q 311 386 385 338 q 208 463 247 429 q 140 547 168 496 q 113 667 113 597 q 118 732 113 700 q 226 894 136 836 q 447 951 315 951 q 585 933 524 951 q 683 885 647 914 q 668 686 667 765 q 588 674 631 674 q 550 676 575 674 q 414 863 546 863 q 285 764 303 863 q 283 743 283 757 q 320 658 283 694 q 435 574 357 622 q 547 496 504 529 q 619 411 589 463 q 650 290 650 360 q 644 235 650 274 q 582 105 632 161 q 457 18 532 49 q 293 -12 382 -12 m 451 1015 q 357 1050 399 1019 q 422 1140 392 1090 q 467 1222 453 1189 q 529 1225 488 1225 q 658 1204 613 1225 q 451 1015 532 1094 m 508 1285 q 438 1308 464 1285 q 411 1372 411 1332 q 447 1453 411 1425 q 542 1482 482 1482 q 613 1458 586 1482 q 639 1393 639 1433 q 605 1312 639 1339 q 508 1285 571 1285 z "},"Š":{"ha":692,"x_min":-4,"x_max":725,"o":"m 293 -12 q 125 10 189 -12 q -4 86 61 33 q 43 292 33 192 q 110 300 74 300 q 164 294 142 300 q 163 251 163 279 q 199 120 163 161 q 314 79 235 79 q 405 109 365 79 q 453 185 444 139 q 456 213 456 204 q 420 301 456 265 q 311 386 385 338 q 208 463 247 429 q 140 547 168 496 q 113 667 113 597 q 118 732 113 700 q 226 894 136 836 q 447 951 315 951 q 585 933 524 951 q 683 885 647 914 q 668 686 667 765 q 588 674 631 674 q 550 676 575 674 q 414 863 546 863 q 285 764 303 863 q 283 743 283 757 q 320 658 283 694 q 435 574 357 622 q 547 496 504 529 q 619 411 589 463 q 650 290 650 360 q 644 235 650 274 q 582 105 632 161 q 457 18 532 49 q 293 -12 382 -12 m 406 1013 q 225 1175 328 1099 q 297 1236 243 1231 q 475 1151 376 1188 q 665 1236 565 1176 q 699 1213 683 1231 q 725 1175 715 1196 q 492 1025 581 1090 q 428 1011 464 1011 q 406 1013 413 1011 z "},"Ṧ":{"ha":692,"x_min":-4,"x_max":725,"o":"m 293 -12 q 125 10 189 -12 q -4 86 61 33 q 43 292 33 192 q 110 300 74 300 q 164 294 142 300 q 163 251 163 279 q 199 120 163 161 q 314 79 235 79 q 405 109 365 79 q 453 185 444 139 q 456 213 456 204 q 420 301 456 265 q 311 386 385 338 q 208 463 247 429 q 140 547 168 496 q 113 667 113 597 q 118 732 113 700 q 226 894 136 836 q 447 951 315 951 q 585 933 524 951 q 683 885 647 914 q 668 686 667 765 q 588 674 631 674 q 550 676 575 674 q 414 863 546 863 q 285 764 303 863 q 283 743 283 757 q 320 658 283 694 q 435 574 357 622 q 547 496 504 529 q 619 411 589 463 q 650 290 650 360 q 644 235 650 274 q 582 105 632 161 q 457 18 532 49 q 293 -12 382 -12 m 406 1013 q 225 1175 328 1099 q 297 1236 243 1231 q 475 1151 376 1188 q 665 1236 565 1176 q 699 1213 683 1231 q 725 1175 715 1196 q 492 1025 581 1090 q 428 1011 464 1011 q 406 1013 413 1011 m 511 1297 q 440 1321 467 1297 q 414 1385 414 1344 q 449 1466 414 1438 q 544 1494 485 1494 q 615 1470 589 1494 q 642 1406 642 1446 q 608 1324 642 1351 q 511 1297 574 1297 z "},"Ş":{"ha":692,"x_min":-4,"x_max":683,"o":"m 414 863 q 285 764 303 863 q 283 743 283 757 q 320 658 283 694 q 435 574 357 622 q 547 496 504 529 q 619 411 589 463 q 650 290 650 360 q 644 236 650 275 q 548 72 626 138 q 356 -8 469 7 l 301 -69 q 386 -175 386 -92 q 382 -211 386 -193 q 307 -306 369 -274 q 143 -336 244 -339 q 139 -310 139 -324 q 143 -278 139 -293 q 235 -260 201 -279 q 268 -203 268 -240 q 247 -162 268 -176 q 193 -147 226 -147 q 178 -103 178 -128 q 179 -87 178 -93 l 250 -11 q 111 16 167 -7 q -4 86 56 39 q 43 292 33 192 q 110 300 74 300 q 164 294 142 300 q 163 251 163 279 q 199 120 163 161 q 314 79 235 79 q 405 109 365 79 q 453 185 444 139 q 456 213 456 204 q 420 301 456 265 q 311 386 385 338 q 208 463 247 429 q 140 547 168 496 q 113 667 113 597 q 118 732 113 700 q 226 894 136 836 q 447 951 315 951 q 585 933 524 951 q 683 885 647 914 q 668 686 667 765 q 588 674 631 674 q 550 676 575 674 q 414 863 546 863 z "},"Ŝ":{"ha":692,"x_min":-4,"x_max":722,"o":"m 293 -12 q 125 10 189 -12 q -4 86 61 33 q 43 292 33 192 q 110 300 74 300 q 164 294 142 300 q 163 251 163 279 q 199 120 163 161 q 314 79 235 79 q 405 109 365 79 q 453 185 444 139 q 456 213 456 204 q 420 301 456 265 q 311 386 385 338 q 208 463 247 429 q 140 547 168 496 q 113 667 113 597 q 118 732 113 700 q 226 894 136 836 q 447 951 315 951 q 585 933 524 951 q 683 885 647 914 q 668 686 667 765 q 588 674 631 674 q 550 676 575 674 q 414 863 546 863 q 285 764 303 863 q 283 743 283 757 q 320 658 283 694 q 435 574 357 622 q 547 496 504 529 q 619 411 589 463 q 650 290 650 360 q 644 235 650 274 q 582 105 632 161 q 457 18 532 49 q 293 -12 382 -12 m 279 1006 q 244 1038 258 1015 q 228 1081 231 1061 q 461 1231 326 1128 q 488 1232 469 1232 q 549 1222 524 1232 q 722 1050 593 1174 q 689 1027 711 1036 q 640 1015 667 1018 q 471 1100 547 1074 q 318 1026 415 1078 q 279 1006 296 1013 z "},"Ș":{"ha":692,"x_min":-4,"x_max":683,"o":"m 293 -12 q 125 10 189 -12 q -4 86 61 33 q 43 292 33 192 q 110 300 74 300 q 164 294 142 300 q 163 251 163 279 q 199 120 163 161 q 314 79 235 79 q 405 109 365 79 q 453 185 444 139 q 456 213 456 204 q 420 301 456 265 q 311 386 385 338 q 208 463 247 429 q 140 547 168 496 q 113 667 113 597 q 118 732 113 700 q 226 894 136 836 q 447 951 315 951 q 585 933 524 951 q 683 885 647 914 q 668 686 667 765 q 588 674 631 674 q 550 676 575 674 q 414 863 546 863 q 285 764 303 863 q 283 743 283 757 q 320 658 283 694 q 435 574 357 622 q 547 496 504 529 q 619 411 589 463 q 650 290 650 360 q 644 235 650 274 q 582 105 632 161 q 457 18 532 49 q 293 -12 382 -12 m 188 -415 q 131 -375 146 -407 q 188 -318 165 -349 q 215 -262 211 -287 q 151 -207 221 -215 q 185 -97 151 -146 q 336 -56 278 -90 q 373 -81 361 -64 q 385 -128 385 -99 q 382 -161 385 -136 q 188 -415 358 -306 z "},"Ṡ":{"ha":692,"x_min":-4,"x_max":683,"o":"m 293 -12 q 125 10 189 -12 q -4 86 61 33 q 43 292 33 192 q 110 300 74 300 q 164 294 142 300 q 163 251 163 279 q 199 120 163 161 q 314 79 235 79 q 405 109 365 79 q 453 185 444 139 q 456 213 456 204 q 420 301 456 265 q 311 386 385 338 q 208 463 247 429 q 140 547 168 496 q 113 667 113 597 q 118 732 113 700 q 226 894 136 836 q 447 951 315 951 q 585 933 524 951 q 683 885 647 914 q 668 686 667 765 q 588 674 631 674 q 550 676 575 674 q 414 863 546 863 q 285 764 303 863 q 283 743 283 757 q 320 658 283 694 q 435 574 357 622 q 547 496 504 529 q 619 411 589 463 q 650 290 650 360 q 644 235 650 274 q 582 105 632 161 q 457 18 532 49 q 293 -12 382 -12 m 453 997 q 382 1021 408 997 q 356 1085 356 1044 q 391 1166 356 1138 q 486 1194 426 1194 q 557 1170 531 1194 q 583 1106 583 1146 q 549 1024 583 1051 q 453 997 515 997 z "},"Ṣ":{"ha":692,"x_min":-4,"x_max":683,"o":"m 293 -12 q 125 10 189 -12 q -4 86 61 33 q 43 292 33 192 q 110 300 74 300 q 164 294 142 300 q 163 251 163 279 q 199 120 163 161 q 314 79 235 79 q 405 109 365 79 q 453 185 444 139 q 456 213 456 204 q 420 301 456 265 q 311 386 385 338 q 208 463 247 429 q 140 547 168 496 q 113 667 113 597 q 118 732 113 700 q 226 894 136 836 q 447 951 315 951 q 585 933 524 951 q 683 885 647 914 q 668 686 667 765 q 588 674 631 674 q 550 676 575 674 q 414 863 546 863 q 285 764 303 863 q 283 743 283 757 q 320 658 283 694 q 435 574 357 622 q 547 496 504 529 q 619 411 589 463 q 650 290 650 360 q 644 235 650 274 q 582 105 632 161 q 457 18 532 49 q 293 -12 382 -12 m 246 -321 q 172 -297 197 -321 q 146 -233 146 -274 q 182 -143 146 -176 q 274 -110 218 -110 q 347 -133 321 -110 q 374 -199 374 -157 q 338 -288 374 -256 q 246 -321 303 -321 z "},"Ṩ":{"ha":692,"x_min":-4,"x_max":683,"o":"m 293 -12 q 125 10 189 -12 q -4 86 61 33 q 43 292 33 192 q 110 300 74 300 q 164 294 142 300 q 163 251 163 279 q 199 120 163 161 q 314 79 235 79 q 405 109 365 79 q 453 185 444 139 q 456 213 456 204 q 420 301 456 265 q 311 386 385 338 q 208 463 247 429 q 140 547 168 496 q 113 667 113 597 q 118 732 113 700 q 226 894 136 836 q 447 951 315 951 q 585 933 524 951 q 683 885 647 914 q 668 686 667 765 q 588 674 631 674 q 550 676 575 674 q 414 863 546 863 q 285 764 303 863 q 283 743 283 757 q 320 658 283 694 q 435 574 357 622 q 547 496 504 529 q 619 411 589 463 q 650 290 650 360 q 644 235 650 274 q 582 105 632 161 q 457 18 532 49 q 293 -12 382 -12 m 246 -321 q 172 -297 197 -321 q 146 -233 146 -274 q 182 -143 146 -176 q 274 -110 218 -110 q 347 -133 321 -110 q 374 -199 374 -157 q 338 -288 374 -256 q 246 -321 303 -321 m 453 997 q 382 1021 408 997 q 356 1085 356 1044 q 391 1166 356 1138 q 486 1194 426 1194 q 557 1170 531 1194 q 583 1106 583 1146 q 549 1024 583 1051 q 453 997 515 997 z "},"ẞ":{"ha":968,"x_min":-35,"x_max":960,"o":"m 938 943 q 954 901 949 926 q 958 850 960 875 q 721 547 847 688 q 872 465 819 525 q 925 311 925 406 q 919 247 925 276 q 810 56 899 125 q 568 -12 721 -12 q 440 8 492 -12 q 347 67 388 28 q 374 163 363 111 q 388 256 385 215 q 449 267 414 267 q 500 260 472 267 q 496 190 496 221 q 513 105 496 129 q 571 81 531 81 q 653 122 618 81 q 699 224 688 163 q 704 282 704 251 q 500 482 704 451 q 482 568 478 518 q 718 858 594 683 q 581 861 621 861 q 440 797 493 861 q 361 579 386 732 l 264 0 q -35 -4 78 0 q -15 81 -32 44 q 43 99 24 86 q 72 137 63 113 q 90 213 81 161 l 156 589 q 298 862 189 781 q 596 943 407 943 q 701 940 632 943 l 788 939 q 938 943 886 939 z "},"Ə":{"ha":922,"x_min":61,"x_max":922,"o":"m 515 951 q 824 856 725 951 q 922 601 922 760 q 908 475 922 547 q 806 224 879 333 q 622 52 732 114 q 378 -10 511 -10 q 136 81 211 -10 q 61 328 61 172 q 69 442 61 383 q 114 499 85 475 l 696 493 q 707 622 707 564 q 490 867 707 867 q 349 819 397 867 q 269 664 301 771 q 169 701 201 672 q 192 806 185 760 q 201 899 200 851 q 351 938 265 925 q 515 951 436 951 m 399 76 q 562 155 488 76 q 678 408 636 233 q 276 393 453 408 q 260 254 260 317 q 399 76 260 76 z "},"T":{"ha":826,"x_min":86,"x_max":900,"o":"m 900 943 q 888 758 888 849 q 889 696 888 717 q 785 683 849 681 q 752 819 781 781 q 647 858 724 858 l 618 858 l 507 217 q 500 156 500 178 q 523 106 500 122 q 610 81 546 90 q 614 32 614 58 q 613 -4 614 7 q 386 0 553 0 q 138 -4 201 0 q 156 82 139 39 q 241 103 214 89 q 279 144 268 117 q 301 231 290 171 l 410 858 l 381 858 q 264 817 307 858 q 188 681 221 776 q 86 706 122 681 q 119 817 104 750 q 143 943 135 885 q 517 939 238 939 q 900 943 789 939 z "},"Ŧ":{"ha":826,"x_min":86,"x_max":900,"o":"m 900 943 q 888 758 888 849 q 889 696 888 717 q 785 683 849 681 q 752 819 781 781 q 647 858 724 858 l 618 858 l 561 526 l 731 526 q 714 429 731 467 q 544 431 658 431 l 507 217 q 500 156 500 178 q 523 106 500 122 q 610 81 546 90 q 614 32 614 58 q 613 -4 614 7 q 386 0 553 0 q 138 -4 201 0 q 156 82 139 39 q 238 101 213 89 q 277 140 264 113 q 301 231 290 168 l 336 429 q 178 426 289 429 q 183 482 178 454 q 194 526 188 510 l 353 526 l 410 858 l 381 858 q 264 817 307 858 q 188 681 221 776 q 86 706 122 681 q 119 817 104 750 q 143 943 135 885 q 517 939 238 939 q 900 943 789 939 z "},"Ť":{"ha":826,"x_min":86,"x_max":900,"o":"m 900 943 q 888 758 888 849 q 889 696 888 717 q 785 683 849 681 q 752 819 781 781 q 647 858 724 858 l 618 858 l 507 217 q 500 156 500 178 q 523 106 500 122 q 610 81 546 90 q 614 32 614 58 q 613 -4 614 7 q 386 0 553 0 q 138 -4 201 0 q 156 82 139 39 q 241 103 214 89 q 279 144 268 117 q 301 231 290 171 l 410 858 l 381 858 q 264 817 307 858 q 188 681 221 776 q 86 706 122 681 q 119 817 104 750 q 143 943 135 885 q 517 939 238 939 q 900 943 789 939 m 481 1013 q 300 1175 403 1099 q 372 1236 318 1231 q 550 1151 451 1188 q 740 1236 640 1176 q 774 1213 758 1231 q 800 1175 790 1196 q 567 1025 656 1090 q 503 1011 539 1011 q 481 1013 488 1011 z "},"Ţ":{"ha":826,"x_min":86,"x_max":900,"o":"m 900 943 q 888 758 888 849 q 889 696 888 717 q 785 683 849 681 q 752 819 781 781 q 647 858 724 858 l 618 858 l 507 217 q 500 156 500 178 q 523 106 500 122 q 610 81 546 90 q 614 32 614 58 q 613 -4 614 7 q 444 0 544 0 l 383 -69 q 467 -174 467 -93 q 463 -212 467 -192 q 388 -306 450 -274 q 225 -336 325 -339 q 221 -310 221 -324 q 225 -278 221 -293 q 307 -263 272 -279 q 347 -219 342 -247 q 349 -204 349 -214 q 328 -162 349 -176 q 274 -147 307 -147 q 260 -103 260 -126 q 261 -87 260 -93 l 342 0 q 138 -4 192 0 q 156 82 139 39 q 241 103 214 89 q 279 144 268 117 q 301 231 290 171 l 410 858 l 381 858 q 264 817 307 858 q 188 681 221 776 q 86 706 122 681 q 119 817 104 750 q 143 943 135 885 q 517 939 238 939 q 900 943 789 939 z "},"Ț":{"ha":826,"x_min":86,"x_max":900,"o":"m 900 943 q 888 758 888 849 q 889 696 888 717 q 785 683 849 681 q 752 819 781 781 q 647 858 724 858 l 618 858 l 507 217 q 500 156 500 178 q 523 106 500 122 q 610 81 546 90 q 614 32 614 58 q 613 -4 614 7 q 386 0 553 0 q 138 -4 201 0 q 156 82 139 39 q 241 103 214 89 q 279 144 268 117 q 301 231 290 171 l 410 858 l 381 858 q 264 817 307 858 q 188 681 221 776 q 86 706 122 681 q 119 817 104 750 q 143 943 135 885 q 517 939 238 939 q 900 943 789 939 m 269 -415 q 213 -375 228 -407 q 270 -318 247 -349 q 297 -262 293 -287 q 233 -207 303 -215 q 267 -97 233 -146 q 418 -56 360 -90 q 455 -81 443 -64 q 467 -128 467 -99 q 464 -161 467 -136 q 269 -415 440 -306 z "},"Ṭ":{"ha":826,"x_min":86,"x_max":900,"o":"m 900 943 q 888 758 888 849 q 889 696 888 717 q 785 683 849 681 q 752 819 781 781 q 647 858 724 858 l 618 858 l 507 217 q 500 156 500 178 q 523 106 500 122 q 610 81 546 90 q 614 32 614 58 q 613 -4 614 7 q 386 0 553 0 q 138 -4 201 0 q 156 82 139 39 q 241 103 214 89 q 279 144 268 117 q 301 231 290 171 l 410 858 l 381 858 q 264 817 307 858 q 188 681 221 776 q 86 706 122 681 q 119 817 104 750 q 143 943 135 885 q 517 939 238 939 q 900 943 789 939 m 326 -321 q 252 -297 278 -321 q 226 -233 226 -274 q 263 -143 226 -176 q 354 -110 299 -110 q 428 -133 401 -110 q 454 -199 454 -157 q 419 -288 454 -256 q 326 -321 383 -321 z "},"Ṯ":{"ha":826,"x_min":86,"x_max":900,"o":"m 900 943 q 888 758 888 849 q 889 696 888 717 q 785 683 849 681 q 752 819 781 781 q 647 858 724 858 l 618 858 l 507 217 q 500 156 500 178 q 523 106 500 122 q 610 81 546 90 q 614 32 614 58 q 613 -4 614 7 q 386 0 553 0 q 138 -4 201 0 q 156 82 139 39 q 241 103 214 89 q 279 144 268 117 q 301 231 290 171 l 410 858 l 381 858 q 264 817 307 858 q 188 681 221 776 q 86 706 122 681 q 119 817 104 750 q 143 943 135 885 q 517 939 238 939 q 900 943 789 939 m 89 -249 q 101 -171 89 -197 l 594 -171 q 582 -242 594 -204 q 89 -249 294 -242 z "},"U":{"ha":913,"x_min":136,"x_max":1006,"o":"m 444 -12 q 211 54 286 -12 q 136 253 136 121 q 146 358 136 306 l 211 731 q 219 794 219 783 q 203 839 219 825 q 147 858 188 853 q 143 906 143 879 q 146 943 143 918 q 342 939 213 939 q 546 943 471 939 q 531 858 546 899 q 465 840 486 854 q 434 799 443 826 q 414 710 425 772 l 354 365 q 344 263 344 311 q 383 126 344 171 q 492 82 421 82 q 643 153 585 82 q 725 357 701 224 l 783 688 q 796 779 796 760 q 779 829 796 813 q 721 858 763 846 q 717 901 717 879 q 719 943 717 913 q 863 939 778 939 q 1006 943 949 939 q 989 858 1003 896 q 926 832 946 849 q 895 782 906 815 q 872 672 885 749 l 819 369 q 756 160 797 243 q 639 32 714 76 q 444 -12 564 -12 z "},"Ú":{"ha":913,"x_min":136,"x_max":1006,"o":"m 444 -12 q 211 54 286 -12 q 136 253 136 121 q 146 358 136 306 l 211 731 q 219 794 219 783 q 203 839 219 825 q 147 858 188 853 q 143 906 143 879 q 146 943 143 918 q 342 939 213 939 q 546 943 471 939 q 531 858 546 899 q 465 840 486 854 q 434 799 443 826 q 414 710 425 772 l 354 365 q 344 263 344 311 q 383 126 344 171 q 492 82 421 82 q 643 153 585 82 q 725 357 701 224 l 783 688 q 796 779 796 760 q 779 829 796 813 q 721 858 763 846 q 717 901 717 879 q 719 943 717 913 q 863 939 778 939 q 1006 943 949 939 q 989 858 1003 896 q 926 832 946 849 q 895 782 906 815 q 872 672 885 749 l 819 369 q 756 160 797 243 q 639 32 714 76 q 444 -12 564 -12 m 636 1015 q 542 1050 583 1019 q 607 1140 576 1090 q 651 1222 638 1189 q 714 1225 672 1225 q 843 1204 797 1225 q 636 1015 717 1094 z "},"Ŭ":{"ha":913,"x_min":136,"x_max":1006,"o":"m 444 -12 q 211 54 286 -12 q 136 253 136 121 q 146 358 136 306 l 211 731 q 219 794 219 783 q 203 839 219 825 q 147 858 188 853 q 143 906 143 879 q 146 943 143 918 q 342 939 213 939 q 546 943 471 939 q 531 858 546 899 q 465 840 486 854 q 434 799 443 826 q 414 710 425 772 l 354 365 q 344 263 344 311 q 383 126 344 171 q 492 82 421 82 q 643 153 585 82 q 725 357 701 224 l 783 688 q 796 779 796 760 q 779 829 796 813 q 721 858 763 846 q 717 901 717 879 q 719 943 717 913 q 863 939 778 939 q 1006 943 949 939 q 989 858 1003 896 q 926 832 946 849 q 895 782 906 815 q 872 672 885 749 l 819 369 q 756 160 797 243 q 639 32 714 76 q 444 -12 564 -12 m 621 1007 q 455 1047 511 1007 q 399 1163 399 1086 q 403 1207 399 1185 q 486 1221 442 1221 q 510 1219 501 1221 q 547 1149 508 1174 q 656 1124 586 1124 q 770 1149 725 1124 q 829 1219 815 1174 q 860 1222 851 1222 q 917 1211 894 1222 q 823 1059 899 1111 q 621 1007 747 1007 z "},"Ǔ":{"ha":913,"x_min":136,"x_max":1006,"o":"m 444 -12 q 211 54 286 -12 q 136 253 136 121 q 146 358 136 306 l 211 731 q 219 794 219 783 q 203 839 219 825 q 147 858 188 853 q 143 906 143 879 q 146 943 143 918 q 342 939 213 939 q 546 943 471 939 q 531 858 546 899 q 465 840 486 854 q 434 799 443 826 q 414 710 425 772 l 354 365 q 344 263 344 311 q 383 126 344 171 q 492 82 421 82 q 643 153 585 82 q 725 357 701 224 l 783 688 q 796 779 796 760 q 779 829 796 813 q 721 858 763 846 q 717 901 717 879 q 719 943 717 913 q 863 939 778 939 q 1006 943 949 939 q 989 858 1003 896 q 926 832 946 849 q 895 782 906 815 q 872 672 885 749 l 819 369 q 756 160 797 243 q 639 32 714 76 q 444 -12 564 -12 m 590 1013 q 410 1175 513 1099 q 482 1236 428 1231 q 660 1151 561 1188 q 850 1236 750 1176 q 884 1213 868 1231 q 910 1175 900 1196 q 676 1025 765 1090 q 613 1011 649 1011 q 590 1013 597 1011 z "},"Û":{"ha":913,"x_min":136,"x_max":1006,"o":"m 444 -12 q 211 54 286 -12 q 136 253 136 121 q 146 358 136 306 l 211 731 q 219 794 219 783 q 203 839 219 825 q 147 858 188 853 q 143 906 143 879 q 146 943 143 918 q 342 939 213 939 q 546 943 471 939 q 531 858 546 899 q 465 840 486 854 q 434 799 443 826 q 414 710 425 772 l 354 365 q 344 263 344 311 q 383 126 344 171 q 492 82 421 82 q 643 153 585 82 q 725 357 701 224 l 783 688 q 796 779 796 760 q 779 829 796 813 q 721 858 763 846 q 717 901 717 879 q 719 943 717 913 q 863 939 778 939 q 1006 943 949 939 q 989 858 1003 896 q 926 832 946 849 q 895 782 906 815 q 872 672 885 749 l 819 369 q 756 160 797 243 q 639 32 714 76 q 444 -12 564 -12 m 464 1006 q 429 1038 443 1015 q 413 1081 415 1061 q 646 1231 511 1128 q 672 1232 654 1232 q 733 1222 708 1232 q 907 1050 778 1174 q 874 1027 896 1036 q 825 1015 851 1018 q 656 1100 732 1074 q 503 1026 600 1078 q 464 1006 481 1013 z "},"Ȕ":{"ha":913,"x_min":136,"x_max":1006,"o":"m 444 -12 q 211 54 286 -12 q 136 253 136 121 q 146 358 136 306 l 211 731 q 219 794 219 783 q 203 839 219 825 q 147 858 188 853 q 143 906 143 879 q 146 943 143 918 q 342 939 213 939 q 546 943 471 939 q 531 858 546 899 q 465 840 486 854 q 434 799 443 826 q 414 710 425 772 l 354 365 q 344 263 344 311 q 383 126 344 171 q 492 82 421 82 q 643 153 585 82 q 725 357 701 224 l 783 688 q 796 779 796 760 q 779 829 796 813 q 721 858 763 846 q 717 901 717 879 q 719 943 717 913 q 863 939 778 939 q 1006 943 949 939 q 989 858 1003 896 q 926 832 946 849 q 895 782 906 815 q 872 672 885 749 l 819 369 q 756 160 797 243 q 639 32 714 76 q 444 -12 564 -12 m 757 1006 q 639 1182 686 1119 q 729 1194 676 1194 q 794 1189 753 1194 q 854 1004 826 1067 q 810 1001 826 1001 q 757 1006 786 1001 m 513 1006 q 386 1179 440 1114 q 488 1193 426 1193 q 550 1189 521 1193 q 610 1004 582 1067 q 565 1001 579 1001 q 513 1006 542 1001 z "},"Ü":{"ha":913,"x_min":136,"x_max":1006,"o":"m 444 -12 q 211 54 286 -12 q 136 253 136 121 q 146 358 136 306 l 211 731 q 219 794 219 783 q 203 839 219 825 q 147 858 188 853 q 143 906 143 879 q 146 943 143 918 q 342 939 213 939 q 546 943 471 939 q 531 858 546 899 q 465 840 486 854 q 434 799 443 826 q 414 710 425 772 l 354 365 q 344 263 344 311 q 383 126 344 171 q 492 82 421 82 q 643 153 585 82 q 725 357 701 224 l 783 688 q 796 779 796 760 q 779 829 796 813 q 721 858 763 846 q 717 901 717 879 q 719 943 717 913 q 863 939 778 939 q 1006 943 949 939 q 989 858 1003 896 q 926 832 946 849 q 895 782 906 815 q 872 672 885 749 l 819 369 q 756 160 797 243 q 639 32 714 76 q 444 -12 564 -12 m 503 1007 q 433 1033 458 1007 q 407 1103 407 1060 q 506 1203 407 1203 q 576 1179 550 1203 q 603 1114 603 1156 q 601 1092 603 1100 q 503 1007 586 1007 m 804 1007 q 733 1033 758 1007 q 707 1103 707 1058 q 733 1177 707 1151 q 811 1203 760 1203 q 881 1178 856 1203 q 907 1111 907 1154 q 880 1034 907 1061 q 804 1007 853 1007 z "},"Ǘ":{"ha":913,"x_min":136,"x_max":1006,"o":"m 444 -12 q 211 54 286 -12 q 136 253 136 121 q 146 358 136 306 l 211 731 q 219 794 219 783 q 203 839 219 825 q 147 858 188 853 q 143 906 143 879 q 146 943 143 918 q 342 939 213 939 q 546 943 471 939 q 531 858 546 899 q 465 840 486 854 q 434 799 443 826 q 414 710 425 772 l 354 365 q 344 263 344 311 q 383 126 344 171 q 492 82 421 82 q 643 153 585 82 q 725 357 701 224 l 783 688 q 796 779 796 760 q 779 829 796 813 q 721 858 763 846 q 717 901 717 879 q 719 943 717 913 q 863 939 778 939 q 1006 943 949 939 q 989 858 1003 896 q 926 832 946 849 q 895 782 906 815 q 872 672 885 749 l 819 369 q 756 160 797 243 q 639 32 714 76 q 444 -12 564 -12 m 503 1007 q 433 1033 458 1007 q 407 1103 407 1060 q 506 1203 407 1203 q 576 1179 550 1203 q 603 1114 603 1156 q 601 1092 603 1100 q 503 1007 586 1007 m 804 1007 q 733 1033 758 1007 q 707 1103 707 1058 q 733 1177 707 1151 q 811 1203 760 1203 q 881 1178 856 1203 q 907 1111 907 1154 q 880 1034 907 1061 q 804 1007 853 1007 m 674 1246 q 579 1281 621 1250 q 644 1370 614 1321 q 689 1453 675 1419 q 751 1456 710 1456 q 881 1435 835 1456 q 674 1246 754 1325 z "},"Ǚ":{"ha":913,"x_min":136,"x_max":1006,"o":"m 444 -12 q 211 54 286 -12 q 136 253 136 121 q 146 358 136 306 l 211 731 q 219 794 219 783 q 203 839 219 825 q 147 858 188 853 q 143 906 143 879 q 146 943 143 918 q 342 939 213 939 q 546 943 471 939 q 531 858 546 899 q 465 840 486 854 q 434 799 443 826 q 414 710 425 772 l 354 365 q 344 263 344 311 q 383 126 344 171 q 492 82 421 82 q 643 153 585 82 q 725 357 701 224 l 783 688 q 796 779 796 760 q 779 829 796 813 q 721 858 763 846 q 717 901 717 879 q 719 943 717 913 q 863 939 778 939 q 1006 943 949 939 q 989 858 1003 896 q 926 832 946 849 q 895 782 906 815 q 872 672 885 749 l 819 369 q 756 160 797 243 q 639 32 714 76 q 444 -12 564 -12 m 503 1007 q 433 1033 458 1007 q 407 1103 407 1060 q 506 1203 407 1203 q 576 1179 550 1203 q 603 1114 603 1156 q 601 1092 603 1100 q 503 1007 586 1007 m 804 1007 q 733 1033 758 1007 q 707 1103 707 1058 q 733 1177 707 1151 q 811 1203 760 1203 q 881 1178 856 1203 q 907 1111 907 1154 q 880 1034 907 1061 q 804 1007 853 1007 m 628 1243 q 447 1406 550 1329 q 519 1467 465 1461 q 697 1382 599 1418 q 888 1467 788 1407 q 922 1444 906 1461 q 947 1406 938 1426 q 714 1256 803 1321 q 650 1242 686 1242 q 628 1243 635 1242 z "},"Ǜ":{"ha":913,"x_min":136,"x_max":1006,"o":"m 444 -12 q 211 54 286 -12 q 136 253 136 121 q 146 358 136 306 l 211 731 q 219 794 219 783 q 203 839 219 825 q 147 858 188 853 q 143 906 143 879 q 146 943 143 918 q 342 939 213 939 q 546 943 471 939 q 531 858 546 899 q 465 840 486 854 q 434 799 443 826 q 414 710 425 772 l 354 365 q 344 263 344 311 q 383 126 344 171 q 492 82 421 82 q 643 153 585 82 q 725 357 701 224 l 783 688 q 796 779 796 760 q 779 829 796 813 q 721 858 763 846 q 717 901 717 879 q 719 943 717 913 q 863 939 778 939 q 1006 943 949 939 q 989 858 1003 896 q 926 832 946 849 q 895 782 906 815 q 872 672 885 749 l 819 369 q 756 160 797 243 q 639 32 714 76 q 444 -12 564 -12 m 503 1007 q 433 1033 458 1007 q 407 1103 407 1060 q 506 1203 407 1203 q 576 1179 550 1203 q 603 1114 603 1156 q 601 1092 603 1100 q 503 1007 586 1007 m 804 1007 q 733 1033 758 1007 q 707 1103 707 1058 q 733 1177 707 1151 q 811 1203 760 1203 q 881 1178 856 1203 q 907 1111 907 1154 q 880 1034 907 1061 q 804 1007 853 1007 m 751 1258 q 697 1251 728 1251 q 638 1260 663 1251 q 579 1342 618 1294 q 503 1428 540 1389 q 618 1443 557 1443 q 682 1438 654 1443 q 751 1258 713 1329 z "},"Ǖ":{"ha":913,"x_min":136,"x_max":1006,"o":"m 444 -12 q 211 54 286 -12 q 136 253 136 121 q 146 358 136 306 l 211 731 q 219 794 219 783 q 203 839 219 825 q 147 858 188 853 q 143 906 143 879 q 146 943 143 918 q 342 939 213 939 q 546 943 471 939 q 531 858 546 899 q 465 840 486 854 q 434 799 443 826 q 414 710 425 772 l 354 365 q 344 263 344 311 q 383 126 344 171 q 492 82 421 82 q 643 153 585 82 q 725 357 701 224 l 783 688 q 796 779 796 760 q 779 829 796 813 q 721 858 763 846 q 717 901 717 879 q 719 943 717 913 q 863 939 778 939 q 1006 943 949 939 q 989 858 1003 896 q 926 832 946 849 q 895 782 906 815 q 872 672 885 749 l 819 369 q 756 160 797 243 q 639 32 714 76 q 444 -12 564 -12 m 503 1007 q 433 1033 458 1007 q 407 1103 407 1060 q 506 1203 407 1203 q 576 1179 550 1203 q 603 1114 603 1156 q 601 1092 603 1100 q 503 1007 586 1007 m 804 1007 q 733 1033 758 1007 q 707 1103 707 1058 q 733 1177 707 1151 q 811 1203 760 1203 q 881 1178 856 1203 q 907 1111 907 1154 q 880 1034 907 1061 q 804 1007 853 1007 m 440 1293 q 453 1369 440 1343 l 946 1369 q 933 1300 946 1336 q 440 1293 644 1300 z "},"Ụ":{"ha":913,"x_min":136,"x_max":1006,"o":"m 444 -12 q 211 54 286 -12 q 136 253 136 121 q 146 358 136 306 l 211 731 q 219 794 219 783 q 203 839 219 825 q 147 858 188 853 q 143 906 143 879 q 146 943 143 918 q 342 939 213 939 q 546 943 471 939 q 531 858 546 899 q 465 840 486 854 q 434 799 443 826 q 414 710 425 772 l 354 365 q 344 263 344 311 q 383 126 344 171 q 492 82 421 82 q 643 153 585 82 q 725 357 701 224 l 783 688 q 796 779 796 760 q 779 829 796 813 q 721 858 763 846 q 717 901 717 879 q 719 943 717 913 q 863 939 778 939 q 1006 943 949 939 q 989 858 1003 896 q 926 832 946 849 q 895 782 906 815 q 872 672 885 749 l 819 369 q 756 160 797 243 q 639 32 714 76 q 444 -12 564 -12 m 407 -321 q 333 -297 358 -321 q 307 -233 307 -274 q 343 -143 307 -176 q 435 -110 379 -110 q 508 -133 482 -110 q 535 -199 535 -157 q 499 -288 535 -256 q 407 -321 464 -321 z "},"Ù":{"ha":913,"x_min":136,"x_max":1006,"o":"m 444 -12 q 211 54 286 -12 q 136 253 136 121 q 146 358 136 306 l 211 731 q 219 794 219 783 q 203 839 219 825 q 147 858 188 853 q 143 906 143 879 q 146 943 143 918 q 342 939 213 939 q 546 943 471 939 q 531 858 546 899 q 465 840 486 854 q 434 799 443 826 q 414 710 425 772 l 354 365 q 344 263 344 311 q 383 126 344 171 q 492 82 421 82 q 643 153 585 82 q 725 357 701 224 l 783 688 q 796 779 796 760 q 779 829 796 813 q 721 858 763 846 q 717 901 717 879 q 719 943 717 913 q 863 939 778 939 q 1006 943 949 939 q 989 858 1003 896 q 926 832 946 849 q 895 782 906 815 q 872 672 885 749 l 819 369 q 756 160 797 243 q 639 32 714 76 q 444 -12 564 -12 m 713 1028 q 658 1021 689 1021 q 599 1029 624 1021 q 540 1111 579 1064 q 464 1197 501 1158 q 579 1213 518 1213 q 643 1207 615 1213 q 713 1028 674 1099 z "},"Ủ":{"ha":913,"x_min":136,"x_max":1006,"o":"m 444 -12 q 211 54 286 -12 q 136 253 136 121 q 146 358 136 306 l 211 731 q 219 794 219 783 q 203 839 219 825 q 147 858 188 853 q 143 906 143 879 q 146 943 143 918 q 342 939 213 939 q 546 943 471 939 q 531 858 546 899 q 465 840 486 854 q 434 799 443 826 q 414 710 425 772 l 354 365 q 344 263 344 311 q 383 126 344 171 q 492 82 421 82 q 643 153 585 82 q 725 357 701 224 l 783 688 q 796 779 796 760 q 779 829 796 813 q 721 858 763 846 q 717 901 717 879 q 719 943 717 913 q 863 939 778 939 q 1006 943 949 939 q 989 858 1003 896 q 926 832 946 849 q 895 782 906 815 q 872 672 885 749 l 819 369 q 756 160 797 243 q 639 32 714 76 q 444 -12 564 -12 m 596 1011 q 590 1042 590 1022 q 605 1085 590 1071 q 649 1115 619 1099 q 680 1135 669 1128 q 694 1154 690 1142 q 697 1167 697 1163 q 688 1182 697 1176 q 665 1188 679 1188 q 588 1107 611 1188 q 507 1125 531 1110 q 525 1211 525 1179 q 686 1247 603 1247 q 781 1227 747 1247 q 814 1174 814 1207 q 810 1149 814 1161 q 779 1099 800 1117 q 725 1064 758 1082 q 694 1046 703 1053 q 682 1029 685 1039 q 679 1006 678 1017 q 650 1003 663 1003 q 596 1011 617 1003 z "},"Ư":{"ha":996,"x_min":136,"x_max":1163,"o":"m 1139 1107 q 1163 1029 1163 1074 q 1111 913 1163 960 q 981 857 1060 867 q 923 828 942 847 q 894 778 904 810 q 872 672 885 747 l 819 369 q 756 160 797 243 q 639 32 714 76 q 444 -12 564 -12 q 211 54 286 -12 q 136 253 136 121 q 146 358 136 306 l 211 731 q 219 794 219 783 q 203 839 219 825 q 147 858 188 853 q 143 906 143 879 q 146 943 143 918 q 342 939 213 939 q 546 943 471 939 q 531 858 546 899 q 465 840 486 854 q 434 799 443 826 q 414 710 425 772 l 354 365 q 344 263 344 311 q 383 126 344 171 q 492 82 421 82 q 643 153 585 82 q 725 357 701 224 l 783 688 q 796 779 796 760 q 779 829 796 813 q 721 858 763 846 q 717 901 717 879 q 719 943 717 913 q 863 939 778 939 l 921 939 q 991 958 968 940 q 1021 1013 1014 975 q 1025 1050 1025 1025 q 1021 1092 1025 1071 q 1115 1108 1068 1108 q 1139 1107 1132 1108 z "},"Ứ":{"ha":996,"x_min":136,"x_max":1163,"o":"m 1139 1107 q 1163 1029 1163 1074 q 1111 913 1163 960 q 981 857 1060 867 q 923 828 942 847 q 894 778 904 810 q 872 672 885 747 l 819 369 q 756 160 797 243 q 639 32 714 76 q 444 -12 564 -12 q 211 54 286 -12 q 136 253 136 121 q 146 358 136 306 l 211 731 q 219 794 219 783 q 203 839 219 825 q 147 858 188 853 q 143 906 143 879 q 146 943 143 918 q 342 939 213 939 q 546 943 471 939 q 531 858 546 899 q 465 840 486 854 q 434 799 443 826 q 414 710 425 772 l 354 365 q 344 263 344 311 q 383 126 344 171 q 492 82 421 82 q 643 153 585 82 q 725 357 701 224 l 783 688 q 796 779 796 760 q 779 829 796 813 q 721 858 763 846 q 717 901 717 879 q 719 943 717 913 q 863 939 778 939 l 921 939 q 991 958 968 940 q 1021 1013 1014 975 q 1025 1050 1025 1025 q 1021 1092 1025 1071 q 1115 1108 1068 1108 q 1139 1107 1132 1108 m 636 1015 q 542 1050 583 1019 q 607 1140 576 1090 q 651 1222 638 1189 q 714 1225 672 1225 q 843 1204 797 1225 q 636 1015 717 1094 z "},"Ự":{"ha":996,"x_min":136,"x_max":1163,"o":"m 1139 1107 q 1163 1029 1163 1074 q 1111 913 1163 960 q 981 857 1060 867 q 923 828 942 847 q 894 778 904 810 q 872 672 885 747 l 819 369 q 756 160 797 243 q 639 32 714 76 q 444 -12 564 -12 q 211 54 286 -12 q 136 253 136 121 q 146 358 136 306 l 211 731 q 219 794 219 783 q 203 839 219 825 q 147 858 188 853 q 143 906 143 879 q 146 943 143 918 q 342 939 213 939 q 546 943 471 939 q 531 858 546 899 q 465 840 486 854 q 434 799 443 826 q 414 710 425 772 l 354 365 q 344 263 344 311 q 383 126 344 171 q 492 82 421 82 q 643 153 585 82 q 725 357 701 224 l 783 688 q 796 779 796 760 q 779 829 796 813 q 721 858 763 846 q 717 901 717 879 q 719 943 717 913 q 863 939 778 939 l 921 939 q 991 958 968 940 q 1021 1013 1014 975 q 1025 1050 1025 1025 q 1021 1092 1025 1071 q 1115 1108 1068 1108 q 1139 1107 1132 1108 m 407 -321 q 333 -297 358 -321 q 307 -233 307 -274 q 343 -143 307 -176 q 435 -110 379 -110 q 508 -133 482 -110 q 535 -199 535 -157 q 499 -288 535 -256 q 407 -321 464 -321 z "},"Ừ":{"ha":996,"x_min":136,"x_max":1163,"o":"m 1139 1107 q 1163 1029 1163 1074 q 1111 913 1163 960 q 981 857 1060 867 q 923 828 942 847 q 894 778 904 810 q 872 672 885 747 l 819 369 q 756 160 797 243 q 639 32 714 76 q 444 -12 564 -12 q 211 54 286 -12 q 136 253 136 121 q 146 358 136 306 l 211 731 q 219 794 219 783 q 203 839 219 825 q 147 858 188 853 q 143 906 143 879 q 146 943 143 918 q 342 939 213 939 q 546 943 471 939 q 531 858 546 899 q 465 840 486 854 q 434 799 443 826 q 414 710 425 772 l 354 365 q 344 263 344 311 q 383 126 344 171 q 492 82 421 82 q 643 153 585 82 q 725 357 701 224 l 783 688 q 796 779 796 760 q 779 829 796 813 q 721 858 763 846 q 717 901 717 879 q 719 943 717 913 q 863 939 778 939 l 921 939 q 991 958 968 940 q 1021 1013 1014 975 q 1025 1050 1025 1025 q 1021 1092 1025 1071 q 1115 1108 1068 1108 q 1139 1107 1132 1108 m 713 1028 q 658 1021 689 1021 q 599 1029 624 1021 q 540 1111 579 1064 q 464 1197 501 1158 q 579 1213 518 1213 q 643 1207 615 1213 q 713 1028 674 1099 z "},"Ử":{"ha":996,"x_min":136,"x_max":1163,"o":"m 1139 1107 q 1163 1029 1163 1074 q 1111 913 1163 960 q 981 857 1060 867 q 923 828 942 847 q 894 778 904 810 q 872 672 885 747 l 819 369 q 756 160 797 243 q 639 32 714 76 q 444 -12 564 -12 q 211 54 286 -12 q 136 253 136 121 q 146 358 136 306 l 211 731 q 219 794 219 783 q 203 839 219 825 q 147 858 188 853 q 143 906 143 879 q 146 943 143 918 q 342 939 213 939 q 546 943 471 939 q 531 858 546 899 q 465 840 486 854 q 434 799 443 826 q 414 710 425 772 l 354 365 q 344 263 344 311 q 383 126 344 171 q 492 82 421 82 q 643 153 585 82 q 725 357 701 224 l 783 688 q 796 779 796 760 q 779 829 796 813 q 721 858 763 846 q 717 901 717 879 q 719 943 717 913 q 863 939 778 939 l 921 939 q 991 958 968 940 q 1021 1013 1014 975 q 1025 1050 1025 1025 q 1021 1092 1025 1071 q 1115 1108 1068 1108 q 1139 1107 1132 1108 m 596 1011 q 590 1042 590 1022 q 605 1085 590 1071 q 649 1115 619 1099 q 680 1135 669 1128 q 694 1154 690 1142 q 697 1167 697 1163 q 688 1182 697 1176 q 665 1188 679 1188 q 588 1107 611 1188 q 507 1125 531 1110 q 525 1211 525 1179 q 686 1247 603 1247 q 781 1227 747 1247 q 814 1174 814 1207 q 810 1149 814 1161 q 779 1099 800 1117 q 725 1064 758 1082 q 694 1046 703 1053 q 682 1029 685 1039 q 679 1006 678 1017 q 650 1003 663 1003 q 596 1011 617 1003 z "},"Ữ":{"ha":996,"x_min":136,"x_max":1163,"o":"m 1139 1107 q 1163 1029 1163 1074 q 1111 913 1163 960 q 981 857 1060 867 q 923 828 942 847 q 894 778 904 810 q 872 672 885 747 l 819 369 q 756 160 797 243 q 639 32 714 76 q 444 -12 564 -12 q 211 54 286 -12 q 136 253 136 121 q 146 358 136 306 l 211 731 q 219 794 219 783 q 203 839 219 825 q 147 858 188 853 q 143 906 143 879 q 146 943 143 918 q 342 939 213 939 q 546 943 471 939 q 531 858 546 899 q 465 840 486 854 q 434 799 443 826 q 414 710 425 772 l 354 365 q 344 263 344 311 q 383 126 344 171 q 492 82 421 82 q 643 153 585 82 q 725 357 701 224 l 783 688 q 796 779 796 760 q 779 829 796 813 q 721 858 763 846 q 717 901 717 879 q 719 943 717 913 q 863 939 778 939 l 921 939 q 991 958 968 940 q 1021 1013 1014 975 q 1025 1050 1025 1025 q 1021 1092 1025 1071 q 1115 1108 1068 1108 q 1139 1107 1132 1108 m 719 1029 q 665 1038 688 1029 q 615 1063 643 1046 q 576 1083 593 1076 q 539 1089 560 1089 q 422 1032 488 1089 q 399 1103 399 1067 q 400 1124 399 1117 q 494 1187 444 1168 q 589 1206 544 1206 q 644 1198 621 1206 q 699 1174 667 1190 q 737 1156 721 1163 q 771 1150 753 1150 q 864 1201 815 1150 q 922 1149 907 1181 q 826 1059 878 1089 q 719 1029 775 1029 z "},"Ű":{"ha":913,"x_min":136,"x_max":1011,"o":"m 444 -12 q 211 54 286 -12 q 136 253 136 121 q 146 358 136 306 l 211 731 q 219 794 219 783 q 203 839 219 825 q 147 858 188 853 q 143 906 143 879 q 146 943 143 918 q 342 939 213 939 q 546 943 471 939 q 531 858 546 899 q 465 840 486 854 q 434 799 443 826 q 414 710 425 772 l 354 365 q 344 263 344 311 q 383 126 344 171 q 492 82 421 82 q 643 153 585 82 q 725 357 701 224 l 783 688 q 796 779 796 760 q 779 829 796 813 q 721 858 763 846 q 717 901 717 879 q 719 943 717 913 q 863 939 778 939 q 1006 943 949 939 q 989 858 1003 896 q 926 832 946 849 q 895 782 906 815 q 872 672 885 749 l 819 369 q 756 160 797 243 q 639 32 714 76 q 444 -12 564 -12 m 554 1021 q 460 1057 503 1025 q 523 1142 493 1094 q 568 1222 553 1190 q 629 1225 589 1225 q 760 1204 714 1225 q 554 1021 635 1096 m 806 1021 q 710 1057 756 1025 q 774 1142 743 1094 q 819 1222 804 1189 q 881 1225 840 1225 q 1011 1204 965 1225 q 806 1021 914 1122 z "},"Ȗ":{"ha":913,"x_min":136,"x_max":1006,"o":"m 444 -12 q 211 54 286 -12 q 136 253 136 121 q 146 358 136 306 l 211 731 q 219 794 219 783 q 203 839 219 825 q 147 858 188 853 q 143 906 143 879 q 146 943 143 918 q 342 939 213 939 q 546 943 471 939 q 531 858 546 899 q 465 840 486 854 q 434 799 443 826 q 414 710 425 772 l 354 365 q 344 263 344 311 q 383 126 344 171 q 492 82 421 82 q 643 153 585 82 q 725 357 701 224 l 783 688 q 796 779 796 760 q 779 829 796 813 q 721 858 763 846 q 717 901 717 879 q 719 943 717 913 q 863 939 778 939 q 1006 943 949 939 q 989 858 1003 896 q 926 832 946 849 q 895 782 906 815 q 872 672 885 749 l 819 369 q 756 160 797 243 q 639 32 714 76 q 444 -12 564 -12 m 694 1214 q 859 1174 803 1214 q 915 1058 915 1135 q 911 1014 915 1038 q 828 1000 872 1000 q 804 1001 813 1000 q 767 1072 806 1047 q 658 1097 728 1097 q 544 1072 589 1097 q 485 1001 499 1047 q 454 999 463 999 q 397 1010 419 999 q 492 1162 417 1110 q 694 1214 568 1214 z "},"Ū":{"ha":913,"x_min":136,"x_max":1006,"o":"m 444 -12 q 211 54 286 -12 q 136 253 136 121 q 146 358 136 306 l 211 731 q 219 794 219 783 q 203 839 219 825 q 147 858 188 853 q 143 906 143 879 q 146 943 143 918 q 342 939 213 939 q 546 943 471 939 q 531 858 546 899 q 465 840 486 854 q 434 799 443 826 q 414 710 425 772 l 354 365 q 344 263 344 311 q 383 126 344 171 q 492 82 421 82 q 643 153 585 82 q 725 357 701 224 l 783 688 q 796 779 796 760 q 779 829 796 813 q 721 858 763 846 q 717 901 717 879 q 719 943 717 913 q 863 939 778 939 q 1006 943 949 939 q 989 858 1003 896 q 926 832 946 849 q 895 782 906 815 q 872 672 885 749 l 819 369 q 756 160 797 243 q 639 32 714 76 q 444 -12 564 -12 m 403 1063 q 415 1139 403 1113 l 908 1139 q 896 1069 908 1106 q 403 1063 607 1069 z "},"Ṻ":{"ha":913,"x_min":136,"x_max":1006,"o":"m 444 -12 q 211 54 286 -12 q 136 253 136 121 q 146 358 136 306 l 211 731 q 219 794 219 783 q 203 839 219 825 q 147 858 188 853 q 143 906 143 879 q 146 943 143 918 q 342 939 213 939 q 546 943 471 939 q 531 858 546 899 q 465 840 486 854 q 434 799 443 826 q 414 710 425 772 l 354 365 q 344 263 344 311 q 383 126 344 171 q 492 82 421 82 q 643 153 585 82 q 725 357 701 224 l 783 688 q 796 779 796 760 q 779 829 796 813 q 721 858 763 846 q 717 901 717 879 q 719 943 717 913 q 863 939 778 939 q 1006 943 949 939 q 989 858 1003 896 q 926 832 946 849 q 895 782 906 815 q 872 672 885 749 l 819 369 q 756 160 797 243 q 639 32 714 76 q 444 -12 564 -12 m 403 1063 q 415 1139 403 1113 l 908 1139 q 896 1069 908 1106 q 403 1063 607 1069 m 542 1207 q 472 1233 497 1207 q 446 1303 446 1260 q 544 1403 446 1403 q 615 1379 589 1403 q 642 1314 642 1356 q 640 1292 642 1300 q 542 1207 625 1207 m 843 1207 q 772 1233 797 1207 q 746 1303 746 1258 q 772 1377 746 1351 q 850 1403 799 1403 q 920 1378 894 1403 q 946 1311 946 1354 q 919 1234 946 1261 q 843 1207 892 1207 z "},"Ų":{"ha":913,"x_min":136,"x_max":1006,"o":"m 863 939 q 1006 943 949 939 q 989 858 1003 896 q 926 832 946 849 q 895 782 906 815 q 872 672 885 749 l 819 369 q 735 124 792 213 q 578 6 678 36 q 489 -65 521 -22 q 457 -149 457 -107 q 476 -197 457 -179 q 528 -215 494 -215 q 571 -204 556 -215 q 594 -238 585 -218 q 606 -278 603 -258 q 486 -354 533 -310 q 456 -357 475 -357 q 324 -325 372 -357 q 275 -226 275 -293 q 407 -11 275 -108 q 136 251 136 3 q 146 358 136 304 l 211 731 q 219 794 219 783 q 203 839 219 825 q 147 858 188 853 q 143 906 143 879 q 146 943 143 918 q 342 939 213 939 q 546 943 471 939 q 531 858 546 899 q 465 840 486 854 q 434 799 443 826 q 414 710 425 772 l 354 365 q 344 263 344 311 q 383 126 344 171 q 492 82 421 82 q 643 153 585 82 q 725 357 701 224 l 783 688 q 796 779 796 760 q 779 829 796 813 q 721 858 763 846 q 717 901 717 879 q 719 943 717 913 q 863 939 778 939 z "}}}
